<?xml version="1.0" encoding="UTF-8"?>
<svg width="57px" height="56px" viewBox="0 0 57 56" version="1.1" xmlns="http://www.w3.org/2000/svg" xmlns:xlink="http://www.w3.org/1999/xlink">
    <title>Group 11</title>
    <defs>
        <filter id="filter-1">
            <feColorMatrix in="SourceGraphic" type="matrix" values="0 0 0 0 1.000000 0 0 0 0 1.000000 0 0 0 0 1.000000 0 0 0 1.000000 0"></feColorMatrix>
        </filter>
        <polygon id="path-2" points="0 0.000110673282 27.76113 0.000110673282 27.76113 22.5914333 0 22.5914333"></polygon>
    </defs>
    <g id="Page-1" stroke="none" stroke-width="1" fill="none" fill-rule="evenodd">
        <g id="HOME" transform="translate(-1123.000000, -7196.000000)">
            <g id="FOOTER" transform="translate(0.000000, 6958.000000)">
                <g id="Group-4" transform="translate(1057.000000, 238.000000)">
                    <g id="Group-11" transform="translate(66.420000, 0.000000)">
                        <path d="M15.8328721,6.74168534 L6.74046756,15.8357326 C-2.24682252,24.8246464 -2.24682252,39.3856354 6.74046756,48.3482658 C15.7277576,57.3106334 30.2861164,57.3371796 39.2471279,48.3482658 L48.3395324,39.2542185 C57.3268225,30.2915881 57.3268225,15.7305991 48.3395324,6.74168534 C39.3522424,-2.24722845 24.7938836,-2.24722845 15.8328721,6.74168534 Z" id="Fill-38-Copy" fill="#E65014"></path>
                        <g filter="url(#filter-1)" id="Group-3">
                            <g transform="translate(15.390000, 15.390000)">
                                <mask id="mask-3" fill="white">
                                    <use xlink:href="#path-2"></use>
                                </mask>
                                <g id="Clip-2"></g>
                                <path d="M8.419707,17.679141 C5.455107,17.575461 3.602637,15.448401 3.111777,13.720671 C3.936357,13.877001 4.749597,13.846221 5.557167,13.646151 C5.577417,13.642101 5.598477,13.628331 5.638167,13.609701 C4.033557,13.236291 2.795067,12.376881 1.934037,10.991781 C1.362177,10.072431 1.089207,9.065601 1.098117,7.959141 C1.900017,8.387631 2.736747,8.626581 3.636657,8.650071 C2.429757,7.780941 1.619757,6.643701 1.289277,5.189751 C0.960417,3.739041 1.172637,2.358801 1.900017,1.057941 C4.990977,4.695651 8.898417,6.690681 13.666887,7.018731 C13.632867,6.793551 13.597227,6.594291 13.574547,6.394221 C13.414977,5.052861 13.683087,3.800601 14.408037,2.664981 C15.316047,1.242621 16.611237,0.357291 18.276597,0.086751 C20.193867,-0.228339 21.868947,0.319221 23.270247,1.676781 C23.363397,1.766691 23.441967,1.796661 23.573997,1.766691 C24.746067,1.513161 25.851717,1.090341 26.890947,0.490941 C26.916867,0.476361 26.941977,0.463401 26.967087,0.452061 C26.971947,0.448821 26.980857,0.449631 27.004347,0.449631 C26.553987,1.776411 25.732647,2.797821 24.563007,3.553551 C25.667847,3.432861 26.721657,3.138831 27.739827,2.699001 C27.747927,2.707911 27.754407,2.716821 27.761697,2.724111 C27.543807,3.010041 27.332397,3.301641 27.106407,3.579471 C26.500527,4.326291 25.807167,4.981581 25.033617,5.550201 C24.967197,5.598801 24.936417,5.645781 24.938037,5.729211 C24.970437,6.575661 24.936417,7.421301 24.833547,8.262891 C24.612417,10.034361 24.118317,11.725641 23.361777,13.341591 C22.580937,15.008571 21.561957,16.515171 20.278917,17.838711 C18.106497,20.084031 15.488577,21.533121 12.439737,22.206231 C11.394027,22.436271 10.332927,22.552911 9.262917,22.583691 C5.972697,22.680891 2.932767,21.862791 0.134217,20.134251 C0.098577,20.113191 0.062937,20.088081 -0.000243,20.046771 C1.991547,20.261421 3.883707,20.006271 5.706207,19.260261 C6.674157,18.864171 7.569207,18.344151 8.419707,17.679141" id="Fill-1" fill="#E65014" mask="url(#mask-3)"></path>
                            </g>
                        </g>
                    </g>
                </g>
            </g>
        </g>
    </g>
</svg>