<?xml version="1.0" encoding="UTF-8"?>
<svg width="239px" height="145px" viewBox="0 0 239 145" version="1.1" xmlns="http://www.w3.org/2000/svg" xmlns:xlink="http://www.w3.org/1999/xlink">
    <title>Group 42</title>
    <defs>
        <polygon id="path-1" points="0 0 95.2904478 0 95.2904478 95.9931371 0 95.9931371"></polygon>
        <polygon id="path-3" points="0 145 239 145 239 0 0 0"></polygon>
    </defs>
    <g id="Page-1" stroke="none" stroke-width="1" fill="none" fill-rule="evenodd">
        <g id="Group-42">
            <g id="Group-3" transform="translate(0.000000, 0.000183)">
                <mask id="mask-2" fill="white">
                    <use xlink:href="#path-1"></use>
                </mask>
                <g id="Clip-2"></g>
                <path d="M75.0824723,60.0551069 L70.6395099,60.0551069 L70.6395099,56.6816183 L70.0901651,57.2890661 C69.228858,58.2419255 68.1551799,59.0248277 66.8968711,59.6121189 C65.6385623,60.2049074 64.2451911,60.5049665 62.7581402,60.5049665 C60.4552578,60.5049665 58.6521517,59.8365906 57.4006642,58.5181631 C56.1428102,57.1956126 55.5084261,55.359984 55.5084261,53.0662499 L55.5084261,38.2740245 L59.9491147,38.2740245 L59.9491147,52.0785746 C59.9491147,53.5367243 60.3470259,54.6760326 61.1332984,55.4648902 C61.9172971,56.254664 63.0341769,56.6559644 64.4493764,56.6559644 C65.6672119,56.6559644 66.8186532,56.2917705 67.874141,55.5707125 C68.9128028,54.8643139 69.8259521,53.9146613 70.587213,52.7478667 L70.6395099,38.2740245 L75.0824723,38.2740245 L75.0824723,60.0551069 Z M52.9381473,60.1018337 L42.5497099,60.1018337 L42.5497099,59.6799186 L45.6902522,58.9767267 L45.6902522,39.0619659 L39.4118961,39.0619659 L31.1121513,60.5416149 L28.9916258,60.5416149 L20.0929678,39.3180468 L17.5631623,38.6588331 L17.5631623,38.2749407 L27.2735591,38.2749407 L27.2735591,38.6588331 L24.3517542,39.3180468 L31.2867775,56.4988342 L31.3736358,56.4988342 L37.9166597,39.3180468 L35.1690262,38.6588331 L35.1690262,38.2749407 L38.9334932,38.2749407 L42.3100537,38.2749407 L49.7971503,38.2749407 L49.7971503,39.0619659 L49.7971503,58.9767267 L52.9381473,59.6799186 L52.9381473,60.1018337 Z M47.7030006,28.5186686 C49.0058755,28.5186686 50.0922867,29.6126244 50.0922867,30.9255547 C50.0922867,32.2380269 49.0058755,33.3319827 47.7030006,33.3319827 C46.4010353,33.3319827 45.3137146,32.2380269 45.3137146,30.9255547 C45.3137146,29.6126244 46.4010353,28.5186686 47.7030006,28.5186686 L47.7030006,28.5186686 Z M83.6382446,11.7387235 C68.101064,-3.91290783 42.9098764,-3.91290783 27.3722411,11.7387235 L11.6531583,27.5740551 C-3.88447704,43.2256864 -3.88447704,68.6024387 11.6531583,84.25407 C27.1903388,99.9061595 52.3815265,99.9061595 67.9177975,84.25407 L83.6382446,68.4178222 C99.1745156,52.7661909 99.1745156,27.3903548 83.6382446,11.7387235 L83.6382446,11.7387235 Z" id="Fill-1" fill="#FFFFFF" mask="url(#mask-2)"></path>
            </g>
            <path d="M117.687071,34.9129505 C116.828038,34.4310235 116.17319,33.7534856 115.722527,32.8807946 C115.271864,32.0085618 115.04676,31.0048528 115.04676,29.8696674 L115.04676,21.8899283 L117.687071,21.8899283 L117.687071,29.8275217 C117.687071,30.9338464 117.944008,31.7813415 118.457882,32.3704652 C118.972211,32.9591307 119.7362,33.2532344 120.74985,33.2532344 C121.763955,33.2532344 122.527945,32.9591307 123.041819,32.3704652 C123.556147,31.7813415 123.813084,30.9338464 123.813084,29.8275217 L123.813084,21.8899283 L126.453395,21.8899283 L126.453395,29.8696674 C126.453395,31.0048528 126.228291,32.0085618 125.777174,32.8807946 C125.326511,33.7534856 124.672118,34.4310235 123.813084,34.9129505 C122.954051,35.3957936 121.933124,35.6367571 120.74985,35.6367571 C119.567486,35.6367571 118.54565,35.3957936 117.687071,34.9129505" id="Fill-4" fill="#FFFFFF"></path>
            <path d="M129.431726,24.7841012 L131.840112,24.7841012 L131.840112,26.1671216 C132.276223,25.7135972 132.807832,25.3338278 133.43494,25.0287295 C134.061139,24.7240894 134.734177,24.5710822 135.452236,24.5710822 C136.578666,24.5710822 137.455435,24.8940465 138.082088,25.5395171 C138.708741,26.1849877 139.022068,27.0398125 139.022068,28.1039915 L139.022068,35.4236006 L136.614137,35.4236006 L136.614137,28.7206015 C136.614137,28.0682593 136.448606,27.5684662 136.117543,27.2207642 C135.786481,26.8730621 135.30444,26.6994402 134.670511,26.6994402 C134.135264,26.6994402 133.617752,26.8661906 133.11843,27.1992332 C132.618199,27.532734 132.191638,27.9624369 131.840112,28.4865096 L131.840112,35.4236006 L129.431726,35.4236006 L129.431726,24.7841012 Z" id="Fill-6" fill="#FFFFFF"></path>
            <mask id="mask-4" fill="white">
                <use xlink:href="#path-3"></use>
            </mask>
            <g id="Clip-9"></g>
            <path d="M141.78871,35.4234632 L144.197096,35.4234632 L144.197096,24.7839638 L141.78871,24.7839638 L141.78871,35.4234632 Z M141.936505,22.9542906 C141.640914,22.6560639 141.493119,22.3014903 141.493119,21.8901116 C141.493119,21.4787328 141.640914,21.1241592 141.936505,20.8259326 C142.232551,20.528164 142.584077,20.3792797 142.992903,20.3792797 C143.401273,20.3792797 143.753709,20.528164 144.0493,20.8259326 C144.344891,21.1241592 144.492687,21.4787328 144.492687,21.8901116 C144.492687,22.3014903 144.344891,22.6560639 144.0493,22.9542906 C143.753709,23.2520591 143.401273,23.4009434 142.992903,23.4009434 C142.584077,23.4009434 142.232551,23.2520591 141.936505,22.9542906 L141.936505,22.9542906 Z" id="Fill-8" fill="#FFFFFF" mask="url(#mask-4)"></path>
            <polygon id="Fill-10" fill="#FFFFFF" mask="url(#mask-4)" points="146.119075 24.7841012 148.717548 24.7841012 151.125479 31.2956123 151.463363 33.1257436 151.547947 33.1257436 151.886286 31.2956123 154.294217 24.7841012 156.892235 24.7841012 152.83627 35.4236006 150.195959 35.4236006"></polygon>
            <path d="M165.954014,28.9973888 C165.883527,28.2314365 165.584298,27.6322345 165.056327,27.1993248 C164.528355,26.7668733 163.869869,26.5506475 163.081323,26.5506475 C162.349167,26.5506475 161.718875,26.7668733 161.190904,27.1993248 C160.662933,27.6322345 160.327778,28.2314365 160.187258,28.9973888 L165.954014,28.9973888 Z M160.314135,34.9449721 C159.511491,34.4845761 158.89166,33.8349825 158.455094,32.9980238 C158.018529,32.1610651 157.800701,31.1967531 157.800701,30.1041716 C157.800701,29.0257913 158.04354,28.0683509 158.529219,27.2309341 C159.014898,26.3939754 159.659287,25.7416333 160.461931,25.2734495 C161.265029,24.8052657 162.137705,24.5711738 163.081323,24.5711738 C164.080876,24.5711738 164.972197,24.7878577 165.753922,25.2203092 C166.535192,25.6532189 167.14411,26.2812815 167.580675,27.1035808 C168.016786,27.9263382 168.235523,28.898438 168.235523,30.0185059 L168.235523,30.7638435 L160.145421,30.7638435 C160.201356,31.6292047 160.500585,32.3136143 161.043108,32.8170722 C161.585177,33.3205301 162.278679,33.5724881 163.123615,33.5724881 C163.841674,33.5724881 164.433312,33.4057377 164.898072,33.072695 C165.362832,32.7391942 165.693439,32.2815469 165.890803,31.6997529 L168.003143,31.8275644 L168.066809,31.9338448 C167.728471,33.1258353 167.13365,34.0406719 166.281438,34.6792709 C165.429226,35.3174118 164.36237,35.6367113 163.081323,35.6367113 C162.039023,35.6367113 161.116779,35.4062843 160.314135,34.9449721 L160.314135,34.9449721 Z" id="Fill-11" fill="#FFFFFF" mask="url(#mask-4)"></path>
            <path d="M170.453685,24.7841012 L172.861616,24.7841012 L172.861616,26.103445 C173.748844,25.0818698 174.762949,24.5710822 175.903476,24.5710822 C176.284107,24.5710822 176.586519,24.6283454 176.811623,24.7414974 L176.495113,26.6994402 L176.410529,26.7631168 C176.24136,26.720513 176.009434,26.6994402 175.713388,26.6994402 C175.121751,26.6994402 174.579228,26.8693973 174.086727,27.2097697 C173.593772,27.5506001 173.185402,28.0398568 172.861616,28.6784558 L172.861616,35.4236006 L170.453685,35.4236006 L170.453685,24.7841012 Z" id="Fill-12" fill="#FFFFFF" mask="url(#mask-4)"></path>
            <path d="M179.346795,34.7536214 C178.572346,34.1649559 178.086212,33.3458633 177.889303,32.2958856 L177.931595,32.1680742 L179.937977,31.8272437 C180.078497,32.4094957 180.339526,32.8566067 180.719702,33.1681184 C181.100332,33.4805463 181.66332,33.6363022 182.409574,33.6363022 C182.916626,33.6363022 183.342278,33.522692 183.687892,33.2959298 C184.032597,33.0691676 184.205404,32.7567397 184.205404,32.3595622 C184.205404,31.9623848 184.00804,31.6467501 183.613767,31.4126582 C183.219494,31.1785664 182.522353,30.933938 181.5228,30.6783152 C180.437753,30.4089492 179.628288,30.0227663 179.093041,29.5183921 C178.558248,29.0153923 178.290397,28.3520556 178.290397,27.5292982 C178.290397,26.9901081 178.445469,26.4935218 178.755612,26.0395392 C179.064846,25.5860148 179.501412,25.2277764 180.064854,24.9648238 C180.627841,24.7027875 181.269047,24.5713112 181.987106,24.5713112 C183.128088,24.5713112 184.050332,24.8374705 184.754749,25.3693309 C185.45871,25.9011914 185.880723,26.663937 186.021698,27.6571096 L185.97986,27.762932 L183.930731,28.0396277 C183.831595,27.5150969 183.610129,27.1142547 183.265424,26.837559 C182.91981,26.5608633 182.486882,26.4225154 181.966187,26.4225154 C181.557362,26.4225154 181.202198,26.507723 180.89933,26.6781383 C180.596463,26.8480954 180.445484,27.0963885 180.445484,27.4230177 C180.445484,27.762932 180.649215,28.0469574 181.057585,28.2737196 C181.465956,28.5009399 182.18447,28.7561047 183.212672,29.0396719 C184.32455,29.3378986 185.148567,29.7282044 185.684269,30.2105895 C186.219062,30.6925165 186.486458,31.3384452 186.486458,32.1470013 C186.486458,32.7993435 186.317744,33.3916739 185.97986,33.9235343 C185.641522,34.4558529 185.159481,34.8741031 184.532828,35.1792014 C183.90572,35.4838415 183.184023,35.6368487 182.367736,35.6368487 C181.128073,35.6368487 180.121244,35.3422869 179.346795,34.7536214" id="Fill-13" fill="#FFFFFF" mask="url(#mask-4)"></path>
            <path d="M188.746775,35.4234632 L191.155161,35.4234632 L191.155161,24.7839638 L188.746775,24.7839638 L188.746775,35.4234632 Z M188.894571,22.9542906 C188.59898,22.6560639 188.451184,22.3014903 188.451184,21.8901116 C188.451184,21.4787328 188.59898,21.1241592 188.894571,20.8259326 C189.190617,20.528164 189.542143,20.3792797 189.950968,20.3792797 C190.359339,20.3792797 190.71132,20.528164 191.007366,20.8259326 C191.302957,21.1241592 191.450752,21.4787328 191.450752,21.8901116 C191.450752,22.3014903 191.302957,22.6560639 191.007366,22.9542906 C190.71132,23.2520591 190.359339,23.4009434 189.950968,23.4009434 C189.542143,23.4009434 189.190617,23.2520591 188.894571,22.9542906 L188.894571,22.9542906 Z" id="Fill-14" fill="#FFFFFF" mask="url(#mask-4)"></path>
            <path d="M200.903394,32.7850964 C201.45956,32.2747669 201.737415,31.6434976 201.737415,30.8912884 L201.737415,29.3383109 C201.737415,28.5861017 201.45956,27.9516256 200.903394,27.4330503 C200.346773,26.9158492 199.674644,26.6565615 198.886098,26.6565615 C198.012967,26.6565615 197.294453,26.9511233 196.731465,27.5397888 C196.168023,28.1284544 195.88653,28.9837373 195.88653,30.1038051 C195.88653,31.2247892 196.168023,32.079614 196.731465,32.6682795 C197.294453,33.256945 198.020243,33.5515069 198.907016,33.5515069 C199.681465,33.5515069 200.346773,33.295884 200.903394,32.7850964 M196.012952,34.9771311 C195.253055,34.5378079 194.636406,33.8992089 194.164825,33.0617921 C193.692788,32.2248334 193.457225,31.2389905 193.457225,30.1038051 C193.457225,28.9548766 193.682329,27.9621621 194.133447,27.1247453 C194.583655,26.2882447 195.192572,25.6533105 195.9602,25.2204009 C196.727827,24.7879493 197.569125,24.5712654 198.484548,24.5712654 C199.13212,24.5712654 199.734217,24.6775459 200.290383,24.8905649 C200.847004,25.103584 201.3295,25.4008944 201.737415,25.7843287 L201.737415,19.8898857 L204.145801,19.8898857 L204.145801,35.4237839 L201.737415,35.4237839 L201.737415,34.2748554 C200.892479,35.1828204 199.786968,35.6368029 198.420883,35.6368029 C197.575947,35.6368029 196.773758,35.4169123 196.012952,34.9771311" id="Fill-15" fill="#FFFFFF" mask="url(#mask-4)"></path>
            <path d="M211.877056,33.242698 C212.341816,32.9660023 212.798846,32.5656181 213.249508,32.0406292 L213.249508,30.4871936 L210.504149,30.806035 C209.954804,30.8770413 209.539157,31.0506633 209.257664,31.327359 C208.975715,31.6040547 208.835196,31.9412203 208.835196,32.3383978 C208.835196,32.7639777 208.975715,33.0901488 209.257664,33.3173691 C209.539157,33.5441314 209.897959,33.6572834 210.334525,33.6572834 C210.897967,33.6572834 211.411841,33.5193937 211.877056,33.242698 M207.493667,34.7750607 C206.852461,34.2001384 206.532313,33.4309793 206.532313,32.4662092 C206.532313,31.4872378 206.867013,30.7102909 207.535959,30.1358267 C208.204904,29.5613624 209.088494,29.2177833 210.186729,29.1037151 L213.249508,28.7848737 L213.249508,28.2099513 C213.249508,27.657018 213.066697,27.2351029 212.700618,26.9442059 C212.33454,26.6533089 211.841585,26.5076314 211.222208,26.5076314 C210.672863,26.5076314 210.225384,26.6427725 209.880679,26.9121385 C209.535065,27.1815045 209.313599,27.5791401 209.214917,28.1036708 L207.12395,27.9973904 L207.018447,27.9121828 C207.215356,26.8338025 207.708311,26.0073802 208.496857,25.432916 C209.285404,24.8584517 210.2222,24.5712196 211.306338,24.5712196 C212.587839,24.5712196 213.622863,24.894184 214.411864,25.5396546 C215.20041,26.1851252 215.594683,27.0683525 215.594683,28.1888785 L215.594683,32.5509587 C215.594683,33.2605641 215.876177,33.6151377 216.439619,33.6151377 C216.566041,33.6151377 216.721113,33.5936067 216.904379,33.551461 L216.96759,33.5936067 L216.96759,35.3385305 C216.531025,35.4805432 216.087638,35.5515495 215.636975,35.5515495 C215.129923,35.5515495 214.675622,35.4306097 214.274073,35.1896462 C213.872978,34.9486827 213.580571,34.5515053 213.397759,33.9981139 L213.334548,33.9981139 C212.88343,34.4947002 212.365918,34.8918776 211.781557,35.1896462 C211.197196,35.4874147 210.56736,35.6367571 209.891138,35.6367571 C208.933423,35.6367571 208.134417,35.349525 207.493667,34.7750607" id="Fill-16" fill="#FFFFFF" mask="url(#mask-4)"></path>
            <path d="M225.491575,32.7850964 C226.047741,32.2747669 226.325597,31.6434976 226.325597,30.8912884 L226.325597,29.3383109 C226.325597,28.5861017 226.047741,27.9516256 225.491575,27.4330503 C224.934954,26.9158492 224.262826,26.6565615 223.474279,26.6565615 C222.601148,26.6565615 221.882635,26.9511233 221.319192,27.5397888 C220.756205,28.1284544 220.474711,28.9837373 220.474711,30.1038051 C220.474711,31.2247892 220.756205,32.079614 221.319192,32.6682795 C221.882635,33.256945 222.608425,33.5515069 223.495198,33.5515069 C224.269647,33.5515069 224.934954,33.295884 225.491575,32.7850964 M220.601133,34.9771311 C219.841237,34.5378079 219.224588,33.8992089 218.753006,33.0617921 C218.28097,32.2248334 218.045407,31.2389905 218.045407,30.1038051 C218.045407,28.9548766 218.270511,27.9621621 218.721628,27.1247453 C219.171836,26.2882447 219.780754,25.6533105 220.548382,25.2204009 C221.316009,24.7879493 222.157307,24.5712654 223.07273,24.5712654 C223.720302,24.5712654 224.322399,24.6775459 224.878565,24.8905649 C225.435186,25.103584 225.917681,25.4008944 226.325597,25.7843287 L226.325597,19.8898857 L228.733983,19.8898857 L228.733983,35.4237839 L226.325597,35.4237839 L226.325597,34.2748554 C225.480661,35.1828204 224.37515,35.6368029 223.009064,35.6368029 C222.164128,35.6368029 221.361939,35.4169123 220.601133,34.9771311" id="Fill-17" fill="#FFFFFF" mask="url(#mask-4)"></path>
            <polygon id="Fill-18" fill="#FFFFFF" mask="url(#mask-4)" points="114.668222 41.4789761 114.668222 41.1995318 119.555025 41.1995318 119.555025 41.4789761 117.847873 41.8225552 117.847873 54.2170567 119.555025 54.5610939 119.555025 54.8405382 114.668222 54.8405382 114.668222 54.5610939 116.375374 54.2170567 116.375374 41.8225552"></polygon>
            <path d="M124.193305,43.6542441 L124.193305,45.2718145 L124.256971,45.2718145 C125.017323,44.3991236 126.369311,43.5905675 127.805884,43.5905675 C129.474837,43.5905675 130.932329,44.6121426 130.932329,47.1234768 L130.932329,53.8690798 L132.453486,54.2099102 L132.453486,54.4866059 L128.122849,54.4866059 L128.122849,54.2099102 L129.58034,53.8690798 L129.58034,46.9745925 C129.58034,45.1440031 128.545317,44.4628003 127.298832,44.4628003 C126.200142,44.4628003 125.038696,45.0161917 124.256971,45.7826021 L124.256971,53.8690798 L125.714463,54.2099102 L125.714463,54.4866059 L121.38337,54.4866059 L121.38337,54.2099102 L122.904983,53.8690798 L122.904983,44.7610269 L121.362452,44.5695388 L121.362452,44.2717703 L124.066429,43.6542441 L124.193305,43.6542441 Z" id="Fill-19" fill="#FFFFFF" mask="url(#mask-4)"></path>
            <path d="M133.719935,44.0161932 L135.241093,43.8036323 L136.14924,40.6110953 L136.571708,40.6110953 L136.571708,43.8036323 L139.317977,43.8036323 L139.317977,44.3991694 L136.571708,44.3991694 L136.571708,53.2946613 C137.036468,53.7417723 137.691316,53.996937 138.388457,53.996937 C138.980094,53.996937 139.614023,53.7633032 140.141994,53.4013999 L140.374374,53.6991685 C139.550357,54.3588403 138.64221,54.6996708 137.775901,54.6996708 C136.783169,54.6996708 135.853649,54.3166946 135.219719,53.5502842 L135.219719,44.3991694 L133.719935,44.3991694 L133.719935,44.0161932 Z" id="Fill-20" fill="#FFFFFF" mask="url(#mask-4)"></path>
            <path d="M142.802997,48.4853327 L148.6125,48.3153756 L148.6125,47.8897956 C148.6125,45.6125534 147.662061,44.1012634 145.908523,44.1012634 C144.260943,44.1012634 142.971711,45.6546991 142.802997,48.4853327 L142.802997,48.4853327 Z M149.858985,52.2944797 C149.140926,53.5501468 148.042236,54.6995334 146.0354,54.6995334 C143.204546,54.6995334 141.43009,52.7841944 141.43009,49.0387241 C141.43009,45.7614376 143.436926,43.5904758 145.950815,43.5904758 C148.6125,43.5904758 149.922651,45.4847419 149.922651,48.1660332 L149.922651,48.9750475 L142.782078,48.9319856 L142.782078,49.1024008 C142.782078,52.4222911 144.218196,53.8268425 146.204114,53.8268425 C147.91536,53.8268425 148.84488,52.9756825 149.62615,52.1029916 L149.858985,52.2944797 Z" id="Fill-21" fill="#FFFFFF" mask="url(#mask-4)"></path>
            <path d="M157.92776,46.186926 C157.92776,46.186926 157.800883,44.9101861 157.52621,44.3993985 C156.111011,44.5482827 154.864526,45.7187422 154.48435,46.186926 L154.48435,53.8693546 L156.237433,54.2101851 L156.237433,54.4864227 L151.611204,54.4864227 L151.611204,54.2101851 L153.132361,53.8693546 L153.132361,44.7613018 L151.58983,44.5693556 L151.58983,44.271587 L154.294262,43.6540609 L154.420684,43.6540609 L154.420684,45.6335346 L154.48435,45.6335346 C155.26562,44.4204713 156.575771,43.5908423 158.075555,43.5908423 C158.371146,43.5908423 158.688566,43.6119152 159.005076,43.6971228 C159.005076,45.2079546 158.6249,46.186926 158.6249,46.186926 L157.92776,46.186926 Z" id="Fill-22" fill="#FFFFFF" mask="url(#mask-4)"></path>
            <path d="M163.060859,43.6542441 L163.060859,45.2718145 L163.124525,45.2718145 C163.884876,44.3991236 165.236865,43.5905675 166.673438,43.5905675 C168.342391,43.5905675 169.799883,44.6121426 169.799883,47.1234768 L169.799883,53.8690798 L171.32104,54.2099102 L171.32104,54.4866059 L166.990402,54.4866059 L166.990402,54.2099102 L168.447894,53.8690798 L168.447894,46.9745925 C168.447894,45.1440031 167.41287,44.4628003 166.166385,44.4628003 C165.067696,44.4628003 163.905795,45.0161917 163.124525,45.7826021 L163.124525,53.8690798 L164.582017,54.2099102 L164.582017,54.4866059 L160.250924,54.4866059 L160.250924,54.2099102 L161.772536,53.8690798 L161.772536,44.7610269 L160.230005,44.5695388 L160.230005,44.2717703 L162.933982,43.6542441 L163.060859,43.6542441 Z" id="Fill-23" fill="#FFFFFF" mask="url(#mask-4)"></path>
            <path d="M179.199818,52.528938 C179.199818,51.2728129 179.220736,49.9108653 179.24211,48.5489178 C177.868748,48.8256135 175.735035,49.3790049 174.403965,50.5920681 L174.403965,51.7625276 C174.403965,53.2522866 175.312567,53.8693546 176.411256,53.8693546 C177.952878,53.8693546 178.925145,52.8693104 179.199818,52.528938 M180.594098,46.9954821 C180.594098,48.5278449 180.530433,49.1238401 180.530433,52.9334452 C180.530433,53.6357209 180.910608,53.8482818 181.333076,53.8482818 C181.81921,53.8482818 182.28397,53.3590252 182.51635,52.954518 L182.769649,53.1460061 C182.262597,54.2738618 181.692333,54.6568379 180.88969,54.6568379 C179.876039,54.6568379 179.24211,54.0823737 179.199818,53.0392675 C178.502223,53.7846051 177.53041,54.6994417 176.009707,54.6994417 C174.509923,54.6994417 173.094269,54.018697 173.094269,52.0181505 L173.094269,50.7198796 C174.509923,49.0175597 177.720952,48.3363568 179.263029,48.0385883 L179.263029,46.8892017 C179.263029,44.9949356 178.439012,44.1227028 176.854643,44.1227028 C175.925122,44.1227028 175.248901,44.4630751 174.826433,44.7823746 C174.467631,45.5698579 174.446257,46.8681288 174.446257,46.8681288 L173.749117,46.8681288 C173.749117,46.8681288 173.284357,46.186926 173.199772,45.1658089 C173.960578,44.3352637 175.354859,43.5908423 177.150234,43.5908423 C179.115233,43.5908423 180.594098,44.4630751 180.594098,46.9954821" id="Fill-24" fill="#FFFFFF" mask="url(#mask-4)"></path>
            <path d="M190.564115,44.761256 C190.310362,44.5482369 189.698261,44.1652608 188.789659,44.1652608 C186.571816,44.1652608 185.134788,46.016923 185.134788,49.2085438 C185.134788,52.4436846 186.782822,53.7845593 188.789659,53.7845593 C190.289443,53.7845593 191.324921,53.0392217 192.233068,52.0817813 L192.507286,52.2948003 C191.873811,53.5289365 190.6487,54.699854 188.599116,54.699854 C185.663214,54.699854 183.761881,52.8692646 183.761881,49.2516057 C183.761881,45.7186964 186.233477,43.5907965 188.895162,43.5907965 C190.268524,43.5907965 191.556847,44.1437298 192.190776,44.8460055 C192.148484,46.016923 191.683724,46.6976678 191.620513,46.8044063 L190.817869,46.8044063 C190.838788,46.655064 190.838788,45.5272083 190.564115,44.761256" id="Fill-25" fill="#FFFFFF" mask="url(#mask-4)"></path>
            <path d="M196.013543,39.4193339 C196.520141,39.4193339 196.943063,39.8449139 196.943063,40.3557015 C196.943063,40.8664891 196.520141,41.2920691 196.013543,41.2920691 C195.50649,41.2920691 195.084022,40.8664891 195.084022,40.3557015 C195.084022,39.8449139 195.50649,39.4193339 196.013543,39.4193339 L196.013543,39.4193339 Z M196.794813,53.8693546 L198.316425,54.2101851 L198.316425,54.4864227 L193.921667,54.4864227 L193.921667,54.2101851 L195.442824,53.8693546 L195.442824,44.7613018 L193.900748,44.5693556 L193.900748,44.271587 L196.668391,43.6540609 L196.794813,43.6540609 L196.794813,53.8693546 Z" id="Fill-26" fill="#FFFFFF" mask="url(#mask-4)"></path>
            <path d="M207.991124,49.145142 C207.991124,45.9104593 206.555005,44.1229318 204.590006,44.1229318 C202.604089,44.1229318 201.421269,45.9315322 201.421269,49.1877458 C201.421269,52.4013557 202.857387,54.1673522 204.864679,54.1673522 C206.808304,54.1673522 207.991124,52.3582938 207.991124,49.145142 M209.490908,49.1020801 C209.490908,52.6139166 207.357649,54.6996708 204.69551,54.6996708 C201.970614,54.6996708 199.942404,52.741728 199.942404,49.2298915 C199.942404,45.6974403 202.054744,43.5906133 204.737802,43.5906133 C207.441779,43.5906133 209.490908,45.570087 209.490908,49.1020801" id="Fill-27" fill="#FFFFFF" mask="url(#mask-4)"></path>
            <path d="M214.03187,43.6542441 L214.03187,45.2718145 L214.095536,45.2718145 C214.855887,44.3991236 216.207876,43.5905675 217.644449,43.5905675 C219.313402,43.5905675 220.770894,44.6121426 220.770894,47.1234768 L220.770894,53.8690798 L222.292051,54.2099102 L222.292051,54.4866059 L217.961413,54.4866059 L217.961413,54.2099102 L219.418905,53.8690798 L219.418905,46.9745925 C219.418905,45.1440031 218.383881,44.4628003 217.137396,44.4628003 C216.038707,44.4628003 214.876806,45.0161917 214.095536,45.7826021 L214.095536,53.8690798 L215.553028,54.2099102 L215.553028,54.4866059 L211.221935,54.4866059 L211.221935,54.2099102 L212.743547,53.8690798 L212.743547,44.7610269 L211.201016,44.5695388 L211.201016,44.2717703 L213.904993,43.6542441 L214.03187,43.6542441 Z" id="Fill-28" fill="#FFFFFF" mask="url(#mask-4)"></path>
            <path d="M230.170874,52.528938 C230.170874,51.2728129 230.191793,49.9108653 230.213166,48.5489178 C228.839804,48.8256135 226.706091,49.3790049 225.375021,50.5920681 L225.375021,51.7625276 C225.375021,53.2522866 226.283623,53.8693546 227.382313,53.8693546 C228.923934,53.8693546 229.896202,52.8693104 230.170874,52.528938 M231.565155,46.9954821 C231.565155,48.5278449 231.501489,49.1238401 231.501489,52.9334452 C231.501489,53.6357209 231.881665,53.8482818 232.304133,53.8482818 C232.790267,53.8482818 233.255027,53.3590252 233.487407,52.954518 L233.740706,53.1460061 C233.233653,54.2738618 232.66339,54.6568379 231.860746,54.6568379 C230.847096,54.6568379 230.213166,54.0823737 230.170874,53.0392675 C229.473279,53.7846051 228.501466,54.6994417 226.980763,54.6994417 C225.480979,54.6994417 224.065325,54.018697 224.065325,52.0181505 L224.065325,50.7198796 C225.480979,49.0175597 228.692009,48.3363568 230.234085,48.0385883 L230.234085,46.8892017 C230.234085,44.9949356 229.410068,44.1227028 227.825699,44.1227028 C226.896179,44.1227028 226.219957,44.4630751 225.797489,44.7823746 C225.438687,45.5698579 225.417314,46.8681288 225.417314,46.8681288 L224.720173,46.8681288 C224.720173,46.8681288 224.255413,46.186926 224.170828,45.1658089 C224.931635,44.3352637 226.325915,43.5908423 228.121291,43.5908423 C230.08629,43.5908423 231.565155,44.4630751 231.565155,46.9954821" id="Fill-29" fill="#FFFFFF" mask="url(#mask-4)"></path>
            <polygon id="Fill-30" fill="#FFFFFF" mask="url(#mask-4)" points="237.479024 53.869263 238.999727 54.2100935 238.999727 54.4867892 234.58496 54.4867892 234.58496 54.2100935 236.106117 53.869263 236.106117 39.8026766 234.563586 39.6322614 234.563586 39.3344928 237.352148 38.8658509 237.479024 38.8658509"></polygon>
            <path d="M122.10293,71.5700917 L122.10293,64.2921702 C121.637715,63.8239864 120.750942,63.2069183 119.462164,63.2069183 C117.074697,63.2069183 115.976008,65.2496106 115.976008,68.3358671 C115.976008,71.6552993 117.243866,72.8894355 119.356206,72.8894355 C120.454896,72.8894355 121.448082,72.2728255 122.10293,71.5700917 L122.10293,71.5700917 Z M123.475837,57.9290853 L123.475837,72.9109664 L124.996995,73.2091931 L124.996995,73.5495654 L122.334856,73.5495654 L122.18706,72.1019522 L122.10293,72.1019522 C121.553131,72.8046859 120.370766,73.7625845 118.828235,73.7625845 C115.997381,73.7625845 114.518516,71.8257146 114.518516,68.4206166 C114.518516,65.0155187 116.504434,62.6535269 119.335288,62.6535269 C120.624065,62.6535269 121.553131,62.9723683 122.10293,63.249064 L122.10293,58.8654528 L120.560399,58.6950376 L120.560399,58.3972691 L123.349415,57.9290853 L123.475837,57.9290853 Z" id="Fill-31" fill="#FFFFFF" mask="url(#mask-4)"></path>
            <path d="M128.016481,67.5481548 L133.825984,67.3781977 L133.825984,66.9526177 C133.825984,64.6753754 132.875545,63.1640855 131.122008,63.1640855 C129.474428,63.1640855 128.185196,64.7175211 128.016481,67.5481548 L128.016481,67.5481548 Z M135.07247,71.3573017 C134.35441,72.6129688 133.255721,73.7623554 131.248884,73.7623554 C128.418031,73.7623554 126.643574,71.8470165 126.643574,68.1015462 C126.643574,64.8242597 128.650411,62.6532979 131.1643,62.6532979 C133.825984,62.6532979 135.136135,64.547564 135.136135,67.2293134 L135.136135,68.0378695 L127.995563,67.9948076 L127.995563,68.1652228 C127.995563,71.4851132 129.432136,72.8896645 131.417599,72.8896645 C133.128844,72.8896645 134.058365,72.0385046 134.840089,71.1658136 L135.07247,71.3573017 Z" id="Fill-32" fill="#FFFFFF" mask="url(#mask-4)"></path>
            <polygon id="Fill-33" fill="#FFFFFF" mask="url(#mask-4)" points="147.767246 73.762447 142.49299 60.6633794 141.07779 60.323007 141.07779 60.0467694 145.746312 60.0467694 145.746312 60.323007 144.119651 60.6633794 148.379801 71.6130162 148.443467 71.6130162 152.553094 60.6633794 150.926433 60.323007 150.926433 60.0467694 154.686807 60.0467694 154.686807 60.323007 153.249779 60.6633794 148.337509 73.762447"></polygon>
            <path d="M161.054295,71.5917601 C161.054295,70.3356349 161.075214,68.9736874 161.096588,67.6117398 C159.723226,67.8884355 157.589512,68.4418269 156.258443,69.6548902 L156.258443,70.8253497 C156.258443,72.3151086 157.167044,72.9321767 158.265734,72.9321767 C159.807355,72.9321767 160.779623,71.9321325 161.054295,71.5917601 M162.448576,66.0583042 C162.448576,67.590667 162.38491,68.1866622 162.38491,71.9962672 C162.38491,72.6985429 162.765086,72.9111038 163.187554,72.9111038 C163.673688,72.9111038 164.138448,72.4218472 164.370828,72.0173401 L164.624127,72.2088282 C164.117074,73.3366838 163.546811,73.71966 162.744167,73.71966 C161.730517,73.71966 161.096588,73.1451957 161.054295,72.1020896 C160.3567,72.8474272 159.384887,73.7622638 157.864185,73.7622638 C156.364401,73.7622638 154.948746,73.0815191 154.948746,71.0809725 L154.948746,69.7827016 C156.364401,68.0803817 159.57543,67.3991789 161.117506,67.1014103 L161.117506,65.9520237 C161.117506,64.0577576 160.293489,63.1855248 158.709121,63.1855248 C157.7796,63.1855248 157.103379,63.5258972 156.680911,63.8451967 C156.322108,64.63268 156.300735,65.9309509 156.300735,65.9309509 L155.603594,65.9309509 C155.603594,65.9309509 155.138834,65.249748 155.05425,64.228631 C155.815056,63.3980858 157.209337,62.6536644 159.004712,62.6536644 C160.969711,62.6536644 162.448576,63.5258972 162.448576,66.0583042" id="Fill-34" fill="#FFFFFF" mask="url(#mask-4)"></path>
            <polygon id="Fill-35" fill="#FFFFFF" mask="url(#mask-4)" points="168.362446 72.9320851 169.883603 73.2729155 169.883603 73.5496112 165.468381 73.5496112 165.468381 73.2729155 166.989538 72.9320851 166.989538 58.8654987 165.447007 58.6950834 165.447007 58.3973149 168.235569 57.928673 168.362446 57.928673"></polygon>
            <path d="M172.861661,67.5481548 L178.671164,67.3781977 L178.671164,66.9526177 C178.671164,64.6753754 177.720725,63.1640855 175.967187,63.1640855 C174.319608,63.1640855 173.030376,64.7175211 172.861661,67.5481548 L172.861661,67.5481548 Z M179.917649,71.3573017 C179.19959,72.6129688 178.100901,73.7623554 176.094064,73.7623554 C173.26321,73.7623554 171.488754,71.8470165 171.488754,68.1015462 C171.488754,64.8242597 173.495591,62.6532979 176.00948,62.6532979 C178.671164,62.6532979 179.981315,64.547564 179.981315,67.2293134 L179.981315,68.0378695 L172.840742,67.9948076 L172.840742,68.1652228 C172.840742,71.4851132 174.276861,72.8896645 176.262779,72.8896645 C177.974024,72.8896645 178.903544,72.0385046 179.685269,71.1658136 L179.917649,71.3573017 Z" id="Fill-36" fill="#FFFFFF" mask="url(#mask-4)"></path>
            <path d="M184.479485,62.7170662 L184.479485,64.3346366 L184.543151,64.3346366 C185.303502,63.4619457 186.655491,62.6533895 188.092064,62.6533895 C189.761017,62.6533895 191.218509,63.6749647 191.218509,66.1862989 L191.218509,72.9319018 L192.739666,73.2727323 L192.739666,73.549428 L188.409028,73.549428 L188.409028,73.2727323 L189.86652,72.9319018 L189.86652,66.0374146 C189.86652,64.2068251 188.831496,63.5256223 187.585011,63.5256223 C186.486322,63.5256223 185.324421,64.0790137 184.543151,64.8454242 L184.543151,72.9319018 L186.000643,73.2727323 L186.000643,73.549428 L181.66955,73.549428 L181.66955,73.2727323 L183.191162,72.9319018 L183.191162,63.823849 L181.648631,63.6323609 L181.648631,63.3345923 L184.352608,62.7170662 L184.479485,62.7170662 Z" id="Fill-37" fill="#FFFFFF" mask="url(#mask-4)"></path>
            <path d="M201.083067,63.824078 C200.829314,63.611059 200.217213,63.2280828 199.308611,63.2280828 C197.090768,63.2280828 195.65374,65.0797451 195.65374,68.2713659 C195.65374,71.5065067 197.301774,72.8473814 199.308611,72.8473814 C200.808395,72.8473814 201.843874,72.1020438 202.752021,71.1446034 L203.026693,71.3576224 C202.393218,72.5917585 201.167652,73.762218 199.118068,73.762218 C196.182166,73.762218 194.280833,71.9320867 194.280833,68.3144278 C194.280833,64.7815184 196.75243,62.6536186 199.414114,62.6536186 C200.787476,62.6536186 202.075799,63.2065519 202.709728,63.9088275 C202.667436,65.0797451 202.202676,65.7604898 202.139465,65.8672284 L201.336821,65.8672284 C201.35774,65.717886 201.35774,64.5900304 201.083067,63.824078" id="Fill-38" fill="#FFFFFF" mask="url(#mask-4)"></path>
            <path d="M206.532495,58.482156 C207.039093,58.482156 207.462016,58.907736 207.462016,59.4185236 C207.462016,59.9293112 207.039093,60.3548911 206.532495,60.3548911 C206.025443,60.3548911 205.602975,59.9293112 205.602975,59.4185236 C205.602975,58.907736 206.025443,58.482156 206.532495,58.482156 L206.532495,58.482156 Z M207.313765,72.9321767 L208.835378,73.2730072 L208.835378,73.5492448 L204.440619,73.5492448 L204.440619,73.2730072 L205.961777,72.9321767 L205.961777,63.8241238 L204.4197,63.6321776 L204.4197,63.3344091 L207.187343,62.7168829 L207.313765,62.7168829 L207.313765,72.9321767 Z" id="Fill-39" fill="#FFFFFF" mask="url(#mask-4)"></path>
            <path d="M216.799149,71.5917601 C216.799149,70.3356349 216.820068,68.9736874 216.841441,67.6117398 C215.468079,67.8884355 213.334366,68.4418269 212.003296,69.6548902 L212.003296,70.8253497 C212.003296,72.3151086 212.911898,72.9321767 214.010587,72.9321767 C215.552209,72.9321767 216.524477,71.9321325 216.799149,71.5917601 M218.19343,66.0583042 C218.19343,67.590667 218.129764,68.1866622 218.129764,71.9962672 C218.129764,72.6985429 218.50994,72.9111038 218.932408,72.9111038 C219.418541,72.9111038 219.883302,72.4218472 220.115682,72.0173401 L220.369435,72.2088282 C219.861928,73.3366838 219.291664,73.71966 218.489021,73.71966 C217.475371,73.71966 216.841441,73.1451957 216.799149,72.1020896 C216.101554,72.8474272 215.129741,73.7622638 213.609038,73.7622638 C212.109254,73.7622638 210.6936,73.0815191 210.6936,71.0809725 L210.6936,69.7827016 C212.109254,68.0803817 215.320284,67.3991789 216.86236,67.1014103 L216.86236,65.9520237 C216.86236,64.0577576 216.038343,63.1855248 214.453974,63.1855248 C213.524454,63.1855248 212.848232,63.5258972 212.425764,63.8451967 C212.066962,64.63268 212.045588,65.9309509 212.045588,65.9309509 L211.348448,65.9309509 C211.348448,65.9309509 210.883688,65.249748 210.799103,64.228631 C211.559909,63.3980858 212.95419,62.6536644 214.749565,62.6536644 C216.714564,62.6536644 218.19343,63.5258972 218.19343,66.0583042" id="Fill-40" fill="#FFFFFF" mask="url(#mask-4)"></path>
            <path d="M129.038226,114.086952 C129.038226,113.59174 129.418857,113.208305 129.894986,113.208305 C130.37066,113.208305 130.751291,113.59174 130.751291,114.086952 C130.751291,114.582164 130.37066,114.98209 129.894986,114.98209 C129.418857,114.98209 129.038226,114.582164 129.038226,114.086952 L129.038226,114.086952 Z M129.038226,119.536574 C129.038226,119.056938 129.418857,118.657928 129.894986,118.657928 C130.37066,118.657928 130.751291,119.056938 130.751291,119.536574 C130.751291,120.031786 130.37066,120.431712 129.894986,120.431712 C129.418857,120.431712 129.038226,120.031786 129.038226,119.536574 L129.038226,119.536574 Z M122.457912,116.803975 C122.473374,118.226393 123.346505,119.280951 124.821277,119.280951 C125.55116,119.280951 126.170083,119.056938 126.693961,118.769706 L127.121886,119.744554 C126.424291,120.192123 125.519782,120.431712 124.663477,120.431712 C122.171871,120.431712 121.02998,118.594251 121.02998,116.436116 C121.02998,114.135053 122.283741,112.521147 124.20281,112.521147 C126.170083,112.521147 127.296967,114.038851 127.296967,116.452608 L127.296967,116.803975 L122.457912,116.803975 Z M125.852663,115.748958 C125.837201,114.693941 125.329239,113.639841 124.20281,113.639841 C123.124129,113.639841 122.473374,114.598655 122.457912,115.748958 L125.852663,115.748958 Z M111.703397,109.739989 L114.447847,109.739989 C118.175934,109.739989 120.048162,111.913699 120.048162,114.950022 C120.048162,118.018413 118.096806,120.272292 114.352803,120.272292 L111.703397,120.272292 L111.703397,109.739989 Z M114.352803,119.057396 C117.462422,119.057396 118.557019,117.171834 118.557019,114.917955 C118.557019,112.584366 117.208214,110.954885 114.336887,110.954885 L113.115413,110.954885 L113.115413,119.057396 L114.352803,119.057396 Z M233.707963,140.694175 C234.232751,141.029966 235.090875,141.366674 236.139542,141.366674 C237.696625,141.366674 238.999955,140.66165 238.999955,139.10913 C238.999955,136.515795 235.47196,137.060024 235.47196,135.523539 C235.47196,134.802939 236.091792,134.594959 236.790752,134.594959 C237.53746,134.594959 238.157292,134.786905 238.697997,135.026952 L238.697997,133.810682 C238.157292,133.602244 237.474249,133.442366 236.727541,133.442366 C235.026755,133.442366 234.089503,134.386521 234.089503,135.587215 C234.089503,138.100382 237.617043,137.58822 237.617043,139.125164 C237.617043,139.90944 236.934,140.214081 236.091792,140.214081 C235.281418,140.214081 234.629298,139.925474 234.153169,139.637326 L233.707963,140.694175 Z M228.003964,137.732523 C228.020335,139.157231 228.894375,140.213622 230.371876,140.213622 C231.102668,140.213622 231.7225,139.989609 232.247288,139.701461 L232.676123,140.677683 C231.977163,141.126169 231.07129,141.366216 230.213166,141.366216 C227.718377,141.366216 226.574212,139.525548 226.574212,137.364206 C226.574212,135.05902 227.829337,133.442366 229.752499,133.442366 C231.7225,133.442366 232.851204,134.962818 232.851204,137.38024 L232.851204,137.732523 L228.003964,137.732523 Z M231.405081,136.676132 C231.389164,135.619741 230.880748,134.562433 229.752499,134.562433 C228.671545,134.562433 228.020335,135.523081 228.003964,136.676132 L231.405081,136.676132 Z M218.421808,137.508052 C218.421808,135.075053 220.153972,133.442366 222.378637,133.442366 C222.776093,133.442366 223.189466,133.474433 223.570551,133.586211 L223.570551,129.87235 L224.968925,129.87235 L224.968925,140.83802 C224.380926,141.158236 223.411841,141.366674 222.458219,141.366674 C220.218093,141.366674 218.421808,140.03771 218.421808,137.508052 L218.421808,137.508052 Z M223.570551,139.989609 L223.570551,134.802939 C223.221299,134.690703 222.951174,134.627026 222.474135,134.627026 C221.028012,134.627026 219.867931,135.650892 219.867931,137.476442 C219.867931,139.141198 220.869303,140.165521 222.490506,140.165521 C222.839759,140.165521 223.28451,140.11742 223.570551,139.989609 L223.570551,139.989609 Z M215.705553,140.389993 C215.13347,140.934222 214.403132,141.366674 213.465426,141.366674 C212.082515,141.366674 211.049765,140.45367 211.049765,138.997352 C211.049765,137.988604 211.558181,137.316105 212.321261,136.948247 C212.84514,136.691708 213.44951,136.595964 214.21168,136.563438 L215.610509,136.516253 L215.610509,136.115869 C215.610509,135.042986 214.959299,134.578925 214.053425,134.578925 C213.195302,134.578925 212.543637,134.85104 212.003387,135.171256 L211.510887,134.195033 C212.384472,133.666379 213.338095,133.442366 214.228052,133.442366 C215.928383,133.442366 217.008882,134.25871 217.008882,136.083802 L217.008882,138.837016 C217.008882,140.133454 217.056632,140.822445 217.151675,141.206337 L215.943845,141.206337 L215.705553,140.389993 Z M214.386761,137.572186 C213.783301,137.588678 213.385844,137.684422 213.06797,137.844301 C212.670514,138.068315 212.479971,138.453123 212.479971,138.917184 C212.479971,139.701461 212.988388,140.213622 213.783301,140.213622 C214.656886,140.213622 215.276718,139.685427 215.610509,139.349177 L215.610509,137.524543 L214.386761,137.572186 Z M203.01014,137.508052 C203.01014,135.075053 204.741849,133.442366 206.966969,133.442366 C207.36397,133.442366 207.777343,133.474433 208.158428,133.586211 L208.158428,129.87235 L209.556802,129.87235 L209.556802,140.83802 C208.968803,141.158236 207.999719,141.366674 207.046551,141.366674 C204.805515,141.366674 203.01014,140.03771 203.01014,137.508052 L203.01014,137.508052 Z M208.158428,139.989609 L208.158428,134.802939 C207.809176,134.690703 207.539051,134.627026 207.062012,134.627026 C205.61589,134.627026 204.456263,135.650892 204.456263,137.476442 C204.456263,139.141198 205.45718,140.165521 207.078384,140.165521 C207.427636,140.165521 207.872387,140.11742 208.158428,139.989609 L208.158428,139.989609 Z M199.832308,131.169246 C199.832308,130.67266 200.197931,130.272276 200.722719,130.272276 C201.262969,130.272276 201.644054,130.657084 201.644054,131.169246 C201.644054,131.681408 201.246598,132.081792 200.722719,132.081792 C200.197931,132.081792 199.832308,131.681408 199.832308,131.169246 L199.832308,131.169246 Z M200.02285,141.205879 L201.421224,141.205879 L201.421224,133.634312 L200.02285,133.634312 L200.02285,141.205879 Z M193.206518,140.694175 C193.731306,141.029966 194.588975,141.366674 195.638097,141.366674 C197.195635,141.366674 198.498509,140.66165 198.498509,139.10913 C198.498509,136.515795 194.970515,137.060024 194.970515,135.523539 C194.970515,134.802939 195.590802,134.594959 196.289761,134.594959 C197.036925,134.594959 197.656302,134.786905 198.196552,135.026952 L198.196552,133.810682 C197.656302,133.602244 196.972804,133.442366 196.226096,133.442366 C194.525764,133.442366 193.588513,134.386521 193.588513,135.587215 C193.588513,138.100382 197.116052,137.58822 197.116052,139.125164 C197.116052,139.90944 196.432555,140.214081 195.590802,140.214081 C194.779973,140.214081 194.128308,139.925474 193.651724,139.637326 L193.206518,140.694175 Z M188.869059,141.205879 L190.267433,141.205879 L190.267433,135.699451 C190.966392,135.011377 191.459347,134.723228 191.984135,134.723228 C192.237889,134.723228 192.476635,134.786905 192.714927,134.915175 L193.206973,133.665921 C192.985052,133.522076 192.635345,133.442366 192.317471,133.442366 C191.618057,133.442366 190.99868,133.71448 190.203767,134.562892 L190.045057,133.634312 L188.869059,133.634312 L188.869059,141.205879 Z M182.561599,137.732523 C182.57706,139.157231 183.451555,140.213622 184.929056,140.213622 C185.659849,140.213622 186.280135,139.989609 186.804014,139.701461 L187.233303,140.677683 C186.533889,141.126169 185.628016,141.366216 184.770347,141.366216 C182.275103,141.366216 181.130937,139.525548 181.130937,137.364206 C181.130937,135.05902 182.386518,133.442366 184.309224,133.442366 C186.280135,133.442366 187.408384,134.962818 187.408384,137.38024 L187.408384,137.732523 L182.561599,137.732523 Z M185.962261,136.676132 C185.94589,135.619741 185.437473,134.562433 184.309224,134.562433 C183.22827,134.562433 182.57706,135.523081 182.561599,136.676132 L185.962261,136.676132 Z M176.587474,141.254438 L177.715268,141.254438 L180.655263,133.634312 L179.20914,133.634312 L177.19139,139.397279 L177.159102,139.397279 L175.077685,133.634312 L173.615646,133.634312 L176.587474,141.254438 Z M170.914852,131.169246 C170.914852,130.67266 171.280476,130.272276 171.804809,130.272276 C172.345059,130.272276 172.726599,130.657084 172.726599,131.169246 C172.726599,131.681408 172.329142,132.081792 171.804809,132.081792 C171.280476,132.081792 170.914852,131.681408 170.914852,131.169246 L170.914852,131.169246 Z M171.105395,141.205879 L172.503769,141.205879 L172.503769,133.634312 L171.105395,133.634312 L171.105395,141.205879 Z M162.922977,141.205879 L164.321351,141.205879 L164.321351,135.715485 C164.988477,135.139188 165.719724,134.691161 166.482349,134.691161 C167.515099,134.691161 167.769763,135.523081 167.769763,136.595964 L167.769763,141.205879 L169.168136,141.205879 L169.168136,136.131903 C169.168136,134.146474 168.071266,133.442366 166.879806,133.442366 C165.926183,133.442366 165.084431,133.890851 164.273601,134.562892 L164.098975,133.634312 L162.922977,133.634312 L162.922977,141.205879 Z M153.040228,139.189299 C153.596394,140.614007 154.867436,141.366674 156.790598,141.366674 C158.66601,141.366674 159.952968,140.629582 160.50868,139.221366 C160.73151,138.708746 160.826554,138.084806 160.826554,137.38024 L160.826554,130.656626 L159.412264,130.656626 L159.412264,137.220361 C159.412264,137.812692 159.349053,138.30882 159.189888,138.708746 C158.824265,139.637784 158.030261,140.149946 156.790598,140.149946 C155.56685,140.149946 154.772392,139.637784 154.406769,138.708746 C154.232142,138.30882 154.168477,137.812692 154.168477,137.268462 L154.168477,130.656626 L152.753732,130.656626 L152.753732,137.38024 C152.753732,138.068315 152.849685,138.677137 153.040228,139.189299 L153.040228,139.189299 Z M148.099763,133.634312 L146.638178,133.634312 L144.715472,139.509056 L144.683639,139.509056 L142.220682,133.634312 L140.710894,133.634312 L144.04789,141.222371 C143.459891,143.159241 142.696811,143.815706 141.759105,143.815706 C141.346642,143.815706 140.996935,143.719504 140.679061,143.5752 L140.344815,144.712218 C140.758643,144.904622 141.21931,144.999908 141.791848,144.999908 C143.06289,144.999908 144.238433,144.584407 145.271638,141.686432 L148.099763,133.634312 Z M130.097352,141.205879 L131.495726,141.205879 L131.495726,135.715485 C132.163307,135.139188 132.894099,134.691161 133.656724,134.691161 C134.689929,134.691161 134.944138,135.523081 134.944138,136.595964 L134.944138,141.205879 L136.342056,141.205879 L136.342056,136.131903 C136.342056,134.146474 135.245641,133.442366 134.054181,133.442366 C133.100558,133.442366 132.258806,133.890851 131.447976,134.562892 L131.27335,133.634312 L130.097352,133.634312 L130.097352,141.205879 Z M121.517478,137.412308 C121.517478,135.171256 122.931768,133.442366 125.093221,133.442366 C127.222387,133.442366 128.652594,135.171256 128.652594,137.412308 C128.652594,139.637784 127.238304,141.366216 125.07685,141.366216 C122.931768,141.366216 121.517478,139.637784 121.517478,137.412308 L121.517478,137.412308 Z M127.206471,137.412308 C127.206471,135.77962 126.412013,134.610993 125.093221,134.610993 C123.758059,134.610993 122.963601,135.77962 122.963601,137.412308 C122.963601,139.028962 123.758059,140.198047 125.07685,140.198047 C126.412013,140.198047 127.206471,139.028962 127.206471,137.412308 L127.206471,137.412308 Z M125.346975,130.352444 L126.904513,130.352444 L125.489768,132.70619 L124.42564,132.70619 L125.346975,130.352444 Z M118.339646,131.169246 C118.339646,130.67266 118.705269,130.272276 119.230057,130.272276 C119.770307,130.272276 120.151392,130.657084 120.151392,131.169246 C120.151392,131.681408 119.753936,132.081792 119.230057,132.081792 C118.705269,132.081792 118.339646,131.681408 118.339646,131.169246 L118.339646,131.169246 Z M118.530643,141.205879 L119.929016,141.205879 L119.929016,133.634312 L118.530643,133.634312 L118.530643,141.205879 Z M111.301393,137.492476 C111.301393,139.637326 112.588351,141.366674 114.940347,141.366674 C115.893515,141.366674 116.783927,141.046458 117.339638,140.66165 L116.92672,139.669851 C116.433765,139.941508 115.893515,140.197589 115.131345,140.197589 C113.685222,140.197589 112.747516,139.189299 112.747516,137.412308 C112.747516,135.811229 113.685222,134.610993 115.225934,134.610993 C115.957636,134.610993 116.529263,134.818514 117.038135,135.155222 L117.038135,133.92246 C116.592929,133.666379 115.925348,133.442366 115.114973,133.442366 C112.827098,133.442366 111.301393,135.23539 111.301393,137.492476 L111.301393,137.492476 Z M108.584683,140.389993 C108.0126,140.934222 107.281808,141.366674 106.344102,141.366674 C104.961645,141.366674 103.92844,140.45367 103.92844,138.997352 C103.92844,137.988604 104.436857,137.316105 105.199937,136.948247 C105.724725,136.691708 106.328185,136.595964 107.091265,136.563438 L108.489639,136.516253 L108.489639,136.115869 C108.489639,135.042986 107.837519,134.578925 106.932556,134.578925 C106.073522,134.578925 105.422312,134.85104 104.882062,135.171256 L104.390017,134.195033 C105.263602,133.666379 106.217225,133.442366 107.106727,133.442366 C108.807513,133.442366 109.887558,134.25871 109.887558,136.083802 L109.887558,138.837016 C109.887558,140.133454 109.935762,140.822445 110.03126,141.206337 L108.822975,141.206337 L108.584683,140.389993 Z M107.265891,137.572186 C106.661521,137.588678 106.264974,137.684422 105.9471,137.844301 C105.549644,138.068315 105.359101,138.453123 105.359101,138.917184 C105.359101,139.701461 105.867518,140.213622 106.661521,140.213622 C107.536016,140.213622 108.155393,139.685427 108.489639,139.349177 L108.489639,137.524543 L107.265891,137.572186 Z M91.5831891,141.205879 L92.9815626,141.205879 L92.9815626,135.699451 C93.6332274,135.139188 94.3640197,134.691161 95.1111832,134.691161 C96.144388,134.691161 96.3663087,135.507505 96.3663087,136.563896 L96.3663087,141.205879 L97.7646822,141.205879 L97.7646822,136.099835 C97.7646822,135.971566 97.7492205,135.827721 97.7492205,135.699451 C98.4004306,135.139188 99.1312229,134.691161 99.8783864,134.691161 C100.911591,134.691161 101.133512,135.507505 101.133512,136.547404 L101.133512,141.205879 L102.53234,141.205879 L102.53234,136.131903 C102.53234,134.211067 101.467757,133.442366 100.227639,133.442366 C99.3063038,133.442366 98.3526813,133.906885 97.4631793,134.706737 C97.0975557,133.858783 96.3826799,133.442366 95.5086396,133.442366 C94.5550171,133.442366 93.6964384,133.92246 92.9178968,134.562892 L92.7591871,133.634312 L91.5831891,133.634312 L91.5831891,141.205879 Z M86.419439,141.205879 L87.8178125,141.205879 L87.8178125,135.699451 C88.5167719,135.011377 89.009727,134.723228 89.5340602,134.723228 C89.7882686,134.723228 90.0270153,134.786905 90.2653073,134.915175 L90.7573529,133.665921 C90.5354321,133.522076 90.185725,133.442366 89.8678509,133.442366 C89.1684367,133.442366 88.5490596,133.71448 87.7541467,134.562892 L87.595437,133.634312 L86.419439,133.634312 L86.419439,141.205879 Z M77.8395647,137.412308 C77.8395647,135.171256 79.2533999,133.442366 81.4148534,133.442366 C83.5440192,133.442366 84.9742256,135.171256 84.9742256,137.412308 C84.9742256,139.637784 83.5603904,141.366216 81.3989369,141.366216 C79.2533999,141.366216 77.8395647,139.637784 77.8395647,137.412308 L77.8395647,137.412308 Z M83.5281028,137.412308 C83.5281028,135.77962 82.7340994,134.610993 81.4148534,134.610993 C80.0796909,134.610993 79.2856876,135.77962 79.2856876,137.412308 C79.2856876,139.028962 80.0796909,140.198047 81.3989369,140.198047 C82.7340994,140.198047 83.5281028,139.028962 83.5281028,137.412308 L83.5281028,137.412308 Z M71.7699414,141.206337 L73.1842314,141.206337 L73.1842314,136.435627 L76.5848939,136.435627 L76.5848939,135.219357 L73.1842314,135.219357 L73.1842314,131.873812 L76.6644762,131.873812 L77.077849,130.656626 L71.7699414,130.656626 L71.7699414,141.206337 Z M65.2155486,137.627159 L63.8822052,137.67526 C62.6725552,137.723361 62.1764168,138.139779 62.1764168,138.908938 C62.1764168,139.630454 62.6257154,140.191175 63.5256768,140.191175 C64.3783435,140.191175 64.9054053,139.774757 65.2155486,139.454084 L65.2155486,137.627159 Z M65.6034552,141.216415 L65.3087735,140.495815 C64.8435585,140.945217 64.1459634,141.376294 63.0913851,141.376294 C61.8508118,141.376294 60.7962335,140.479324 60.7962335,139.021174 C60.7962335,137.499348 61.8658187,136.601461 63.7889803,136.537784 L65.2155486,136.489683 L65.2155486,136.201077 C65.2155486,135.031075 64.5638838,134.614199 63.6966649,134.614199 C62.7962487,134.614199 62.1918785,134.966941 61.7735033,135.271123 L61.2614485,134.310017 C62.1764168,133.636602 62.998615,133.444656 63.9440519,133.444656 C65.4793069,133.444656 66.595732,134.117613 66.595732,136.072807 L66.595732,138.621248 C66.595732,140.415647 66.642117,140.945217 66.7508036,141.216415 L65.6034552,141.216415 Z M57.8516909,141.37721 C58.5333695,141.37721 59.340106,141.07257 59.9603927,140.608051 L59.5574792,139.646488 C59.2627976,139.870501 58.7821209,140.142616 58.2855277,140.142616 C57.804851,140.142616 57.5724709,139.854926 57.5724709,139.229612 L57.5724709,134.774994 L59.3864911,134.774994 L59.8362444,133.63706 L57.5724709,133.63706 L57.5724709,131.489462 L56.1922876,131.938405 L56.1922876,133.63706 L54.9676307,133.63706 L54.9676307,134.774994 L56.1922876,134.774994 L56.1922876,139.710165 C56.1922876,140.703795 56.7038877,141.37721 57.8516909,141.37721 L57.8516909,141.37721 Z M51.0299018,134.598624 C50.0062469,134.598624 49.3709533,135.52812 49.3709533,136.617495 L52.6270035,136.617495 C52.6270035,135.640356 52.0999418,134.598624 51.0299018,134.598624 L51.0299018,134.598624 Z M49.386415,137.723361 C49.386415,139.069733 50.2236201,140.1756 51.6965735,140.1756 C52.3327767,140.1756 52.9835319,139.95067 53.4801251,139.646488 L53.8675769,140.592018 C53.2318285,141.088604 52.2859368,141.377668 51.43327,141.377668 C49.0448935,141.377668 47.9439302,139.438508 47.9439302,137.322977 C47.9439302,135.143311 49.1690418,133.444656 51.0453635,133.444656 C52.968525,133.444656 54.0844953,134.999008 54.0844953,137.355044 L54.0844953,137.723361 L49.386415,137.723361 Z M46.4100394,141.216873 L46.4100394,136.136942 C46.4100394,134.197323 45.3090761,133.444656 44.2394909,133.444656 C43.2162907,133.444656 42.4718558,133.861532 41.6346507,134.502422 L41.4636626,133.636602 L40.3167689,133.636602 L40.3167689,141.216873 L41.6810357,141.216873 L41.6810357,135.800234 C42.2549373,135.287156 43.014834,134.742469 43.8211157,134.742469 C44.8911557,134.742469 45.0307656,135.7361 45.0307656,136.617953 L45.0307656,141.216873 L46.4100394,141.216873 Z M37.0616281,137.627159 L35.7282847,137.67526 C34.51818,137.723361 34.0224963,138.139779 34.0224963,138.908938 C34.0224963,139.630454 34.4717949,140.191175 35.3713015,140.191175 C36.2239683,140.191175 36.7514848,139.774757 37.0616281,139.454084 L37.0616281,137.627159 Z M37.4495347,141.216415 L37.1543983,140.495815 C36.689638,140.945217 35.9915882,141.376294 34.9370099,141.376294 C33.6968913,141.376294 32.642313,140.479324 32.642313,139.021174 C32.642313,137.499348 33.7118982,136.601461 35.6350598,136.537784 L37.0616281,136.489683 L37.0616281,136.201077 C37.0616281,135.031075 36.4099633,134.614199 35.5418349,134.614199 C34.6423282,134.614199 34.0375033,134.966941 33.6191281,135.271123 L33.1070733,134.310017 C34.0224963,133.636602 34.843785,133.444656 35.7901314,133.444656 C37.3253864,133.444656 38.4418114,134.117613 38.4418114,136.072807 L38.4418114,138.621248 C38.4418114,140.415647 38.4881965,140.945217 38.5964284,141.216415 L37.4495347,141.216415 Z M30.6891376,141.37721 C31.0770442,141.37721 31.4185656,141.297042 31.8210244,141.07257 L31.6509458,140.030838 C31.4485795,140.095431 31.3094243,140.095431 31.2161994,140.095431 C30.7973695,140.095431 30.6422978,139.918603 30.6422978,139.262137 L30.6422978,129.870975 L29.2780309,129.870975 L29.2780309,139.886993 C29.2780309,140.735863 29.6809444,141.37721 30.6891376,141.37721 L30.6891376,141.37721 Z M24.1001834,131.922372 L23.3407415,131.922372 L23.3407415,136.201077 L24.1779466,136.201077 C25.6509001,136.201077 26.3021101,135.304106 26.3021101,133.989344 C26.3021101,132.771699 25.5576752,131.922372 24.1001834,131.922372 L24.1001834,131.922372 Z M24.0688053,137.418263 L23.3407415,137.418263 L23.3407415,141.216415 L21.9601035,141.216415 L21.9601035,130.657084 L24.2243317,130.657084 C26.3794186,130.657084 27.744595,131.858237 27.744595,133.973768 C27.744595,135.672423 26.6900167,137.418263 24.0688053,137.418263 L24.0688053,137.418263 Z M16.0460066,134.946326 C15.4652837,130.929199 12.111461,127.844317 8.06322644,127.844317 C4.01590142,127.844317 0.661169198,130.929199 0.0813557806,134.946326 C0.0326969292,135.346252 -4.54755621e-05,135.763586 -4.54755621e-05,136.180462 C-4.54755621e-05,137.263881 0.193680419,138.298284 0.56430625,139.247478 C1.74257806,142.330986 4.66074489,144.515691 8.06322644,144.515691 C11.4666175,144.515691 14.3852391,142.330986 15.5621466,139.247478 C15.933682,138.298284 16.1269531,137.263881 16.1269531,136.180462 C16.1269531,135.763586 16.0942107,135.346252 16.0460066,134.946326 L16.0460066,134.946326 Z M8.06322644,128.860853 C9.04777236,128.860853 9.98184041,129.061503 10.8372357,129.427529 C10.8372357,129.427529 10.1923923,130.811008 8.07959765,130.811008 C5.96680303,130.811008 5.17689252,129.494413 5.17689252,129.494413 C6.06366598,129.077079 7.03093118,128.860853 8.06322644,128.860853 L8.06322644,128.860853 Z M4.30649026,129.960764 C4.30649026,129.960764 5.49931425,131.795476 8.07959765,131.795476 C10.6444193,131.795476 11.7244639,129.960764 11.7244639,129.960764 C12.4657156,130.42849 13.1433015,130.978674 13.6594491,131.696068 C13.6594491,131.696068 11.6598887,133.22843 8.07959765,133.22843 C4.48293544,133.22843 2.42016394,131.762951 2.42016394,131.762951 C2.93585681,131.045558 3.57979077,130.444982 4.30649026,129.960764 L4.30649026,129.960764 Z M1.87081915,132.629228 C1.87081915,132.629228 4.4515573,134.229391 8.07959765,134.229391 C11.7080927,134.229391 14.2078844,132.595329 14.2078844,132.595329 C14.6107979,133.312264 14.9004772,134.111658 15.045999,134.946326 C15.0946579,135.179043 15.1110291,135.413135 15.1274003,135.645853 L0.999962135,135.645853 C1.01678809,135.413135 1.03270454,135.179043 1.08090864,134.946326 C1.20960448,134.111658 1.48336736,133.329672 1.87081915,132.629228 L1.87081915,132.629228 Z M8.06322644,143.498697 C7.06367359,143.498697 6.09549887,143.281555 5.24101306,142.898579 C5.24101306,142.898579 6.11277958,141.514642 8.07959765,141.514642 C10.030954,141.514642 10.9177275,142.882087 10.9177275,142.882087 C10.0473252,143.281555 9.0791505,143.498697 8.06322644,143.498697 L8.06322644,143.498697 Z M11.8204174,142.397869 C11.8204174,142.397869 10.6116769,140.532006 8.07959765,140.532006 C5.67621419,140.532006 4.3706108,142.431311 4.3706108,142.431311 C3.62890438,141.96496 2.96768971,141.34835 2.45154208,140.647906 C2.45154208,140.647906 4.12913556,139.547995 6.7089642,139.247478 C7.14462009,139.181511 7.59573766,139.164103 8.07959765,139.164103 C8.56345763,139.164103 9.03094641,139.181511 9.46614753,139.247478 C12.0950898,139.547995 13.6594491,140.664856 13.6594491,140.664856 C13.1596727,141.34835 12.5307457,141.932434 11.8204174,142.397869 L11.8204174,142.397869 Z M14.2397173,139.764221 C14.2397173,139.764221 13.8845532,139.530129 13.2565356,139.247478 C12.2074144,138.763719 10.4015798,138.130159 8.07959765,138.130159 C5.78990309,138.130159 3.99907546,138.747685 2.95131851,139.247478 C2.27418739,139.547995 1.9031068,139.814613 1.9031068,139.814613 C1.8057891,139.630912 1.71029042,139.431178 1.62934392,139.247478 C1.27463453,138.447168 1.04816623,137.58089 0.999962135,136.662847 L15.1433167,136.662847 C15.0787414,137.58089 14.8527279,138.447168 14.4980185,139.247478 C14.4175267,139.414228 14.337035,139.597013 14.2397173,139.764221 L14.2397173,139.764221 Z" id="Fill-41" fill="#FFFFFF" mask="url(#mask-4)"></path>
        </g>
    </g>
</svg>