<svg width="153" height="60" viewBox="0 0 153 60" fill="none" xmlns="http://www.w3.org/2000/svg">
<path d="M53.2593 7.38651C48.4693 2.65689 41.974 0 35.2014 0C28.4288 0 21.9335 2.65689 17.1435 7.38651L7.056 17.3556C2.45384 22.1239 -0.0778853 28.4811 0.00182679 35.0689C0.0815389 41.6566 2.76637 47.9523 7.48259 52.6106C12.1988 57.2689 18.5723 59.9203 25.2412 59.9982C31.9101 60.0762 38.3453 57.5745 43.1718 53.0277L53.2593 43.063C58.0472 38.3312 60.7368 31.9149 60.7368 25.2247C60.7368 18.5346 58.0472 12.1182 53.2593 7.38651" fill="#E65014"/>
<path d="M39.8598 38.0849C38.3835 38.0849 37.2276 37.6572 36.4223 36.8318C35.5777 35.8934 35.1407 34.6644 35.2057 33.4104V24.0914H38.0588V32.7775C38.0333 33.1659 38.0873 33.5554 38.2175 33.9228C38.3476 34.2902 38.5513 34.6279 38.8165 34.9158C39.1028 35.1749 39.4389 35.3746 39.8048 35.5031C40.1706 35.6317 40.5589 35.6865 40.9465 35.6643C41.7333 35.6644 42.5011 35.4255 43.1459 34.98C43.8365 34.5077 44.4252 33.9043 44.8776 33.2051L44.9122 24.0957H47.7653V37.8026H44.9122V35.6643L44.5616 36.0449C43.9848 36.6646 43.2866 37.1622 42.5094 37.5075C41.6767 37.8882 40.7687 38.0811 39.8512 38.0721" fill="white"/>
<path d="M31.5431 37.1226V24.5833V24.0914H26.7331H24.5684H22.1526V24.3309L23.9147 24.7458L19.7151 35.5616H19.6589L15.2082 24.7458L17.0829 24.3309V24.0914H10.8485V24.3309L12.4721 24.7458L18.1869 38.1063H19.5463L24.8758 24.5833H28.9065V37.1226L26.889 37.5631V37.8283H33.5562V37.5631L31.5431 37.1226Z" fill="white"/>
<path d="M30.1966 20.978C30.4998 20.978 30.7961 20.8892 31.0481 20.7229C31.3001 20.5565 31.4966 20.32 31.6126 20.0434C31.7286 19.7668 31.7589 19.4624 31.6998 19.1687C31.6407 18.875 31.4947 18.6052 31.2804 18.3935C31.066 18.1818 30.7929 18.0376 30.4956 17.9792C30.1983 17.9207 29.8902 17.9507 29.6101 18.0653C29.3301 18.1799 29.0907 18.374 28.9223 18.6229C28.7539 18.8719 28.664 19.1646 28.664 19.464C28.6674 19.8645 28.83 20.2477 29.1167 20.5309C29.4034 20.8141 29.7912 20.9746 30.1966 20.978Z" fill="white"/>
<path d="M75.1228 21.9744C74.5822 21.681 74.1433 21.234 73.8629 20.6913C73.5645 20.1026 73.4159 19.4508 73.43 18.7925V13.7759H75.1271V18.7711C75.0879 19.3473 75.2635 19.9177 75.6207 20.3749C76.0268 20.7299 76.5504 20.9259 77.0927 20.9259C77.635 20.9259 78.1586 20.7299 78.5647 20.3749C78.9219 19.9177 79.0974 19.3473 79.0582 18.7711V13.7759H80.7553V18.8139C80.7674 19.472 80.6189 20.1233 80.3224 20.7127C80.0405 21.2557 79.6001 21.7027 79.0582 21.9957C78.447 22.294 77.7744 22.4492 77.0927 22.4492C76.4109 22.4492 75.7383 22.294 75.1271 21.9957L75.1228 21.9744Z" fill="black"/>
<path d="M82.6603 15.5978H84.2059V16.4532C84.5025 16.1559 84.8498 15.9127 85.2319 15.7347C85.637 15.5422 86.0813 15.4441 86.5308 15.4481C86.8351 15.4206 87.1419 15.4589 87.4298 15.5603C87.7177 15.6618 87.9797 15.824 88.1977 16.0357C88.4157 16.2473 88.5843 16.5034 88.692 16.786C88.7996 17.0685 88.8437 17.3709 88.821 17.672V22.2952H87.2754V18.074C87.2885 17.9043 87.2673 17.7338 87.2131 17.5722C87.1588 17.4107 87.0726 17.2614 86.9594 17.1332C86.8362 17.017 86.6897 16.9276 86.5293 16.8709C86.369 16.8141 86.1984 16.7913 86.0285 16.8038C85.6725 16.8071 85.3256 16.9159 85.0328 17.116C84.7091 17.3331 84.4299 17.6088 84.2102 17.9286V22.2952H82.6646L82.6603 15.5978Z" fill="black"/>
<path d="M90.6913 14.4473C90.5576 14.3153 90.4663 14.1473 90.4287 13.9643C90.3912 13.7813 90.4091 13.5914 90.4803 13.4184C90.5515 13.2454 90.6727 13.097 90.8288 12.9917C90.9849 12.8864 91.169 12.8289 91.358 12.8265C91.4844 12.8252 91.6098 12.8492 91.7266 12.897C91.8434 12.9448 91.9492 13.0153 92.0377 13.1044C92.1281 13.192 92.1998 13.2965 92.2488 13.4118C92.2978 13.5271 92.323 13.6509 92.323 13.7759C92.323 13.9009 92.2978 14.0247 92.2488 14.14C92.1998 14.2553 92.1281 14.3598 92.0377 14.4473C91.9492 14.5365 91.8434 14.607 91.7266 14.6548C91.6098 14.7026 91.4844 14.7265 91.358 14.7253C91.2337 14.7253 91.1107 14.7007 90.9962 14.653C90.8817 14.6052 90.778 14.5353 90.6913 14.4473V14.4473ZM90.5961 15.5978H92.1416V22.2951H90.5961V15.5978Z" fill="black"/>
<path d="M93.3755 15.5978H95.0424L96.588 19.6949L96.8044 20.8496H96.8607L97.0772 19.6949L98.6228 15.5978H100.29L97.692 22.2951H95.9905L93.3755 15.5978Z" fill="black"/>
<path d="M102.485 21.9958C101.984 21.7057 101.578 21.2797 101.316 20.7684C101.022 20.2056 100.873 19.5798 100.883 18.9465C100.871 18.3129 101.032 17.6878 101.35 17.1375C101.646 16.6264 102.073 16.2015 102.588 15.9058C103.101 15.617 103.683 15.4693 104.273 15.4781C104.876 15.4634 105.472 15.6034 106.004 15.8844C106.505 16.1565 106.913 16.5686 107.178 17.069C107.475 17.6354 107.623 18.2661 107.611 18.9038V19.3742H102.415C102.43 19.8607 102.639 20.3217 102.995 20.6572C103.36 20.9817 103.838 21.1535 104.329 21.1362C104.733 21.1516 105.131 21.0408 105.468 20.8197C105.766 20.6085 105.989 20.309 106.104 19.9644L107.463 20.0456L107.502 20.1098C107.326 20.7913 106.921 21.394 106.355 21.8205C105.757 22.2386 105.035 22.4505 104.303 22.4235C103.669 22.4431 103.041 22.2955 102.485 21.9958V21.9958ZM106.108 18.2494C106.098 18.0295 106.041 17.8141 105.942 17.6168C105.843 17.4196 105.703 17.2447 105.532 17.1033C105.173 16.8183 104.724 16.6669 104.264 16.6756C103.82 16.6724 103.389 16.8239 103.047 17.1033C102.7 17.3905 102.472 17.7939 102.407 18.2366L106.108 18.2494Z" fill="black"/>
<path d="M108.996 15.5978H110.542V16.4275C110.774 16.1339 111.07 15.8952 111.408 15.7288C111.746 15.5623 112.117 15.4723 112.494 15.4652C112.695 15.4557 112.895 15.4923 113.079 15.5721L112.875 16.8038L112.819 16.8423C112.676 16.8139 112.531 16.801 112.386 16.8038C112.013 16.8017 111.648 16.9138 111.343 17.1246C111.004 17.3608 110.733 17.6789 110.555 18.0484V22.2951H109.009L108.996 15.5978Z" fill="black"/>
<path d="M114.702 21.8717C114.203 21.4934 113.868 20.9413 113.767 20.3278L113.797 20.2466L115.096 20.0328C115.163 20.365 115.339 20.6659 115.598 20.8881C115.915 21.1068 116.299 21.211 116.685 21.1832C116.973 21.1923 117.257 21.118 117.503 20.9694C117.606 20.9082 117.691 20.8216 117.749 20.7181C117.808 20.6145 117.838 20.4977 117.837 20.3792C117.836 20.2547 117.8 20.133 117.733 20.0279C117.665 19.9228 117.569 19.8385 117.456 19.7847C117.031 19.5732 116.579 19.4179 116.113 19.3228C115.54 19.2118 115.004 18.9603 114.555 18.5915C114.384 18.4307 114.25 18.2358 114.161 18.0198C114.072 17.8037 114.031 17.5714 114.04 17.3384C114.039 17.0032 114.143 16.676 114.338 16.4018C114.545 16.1003 114.833 15.8618 115.17 15.7133C115.655 15.5139 116.182 15.4328 116.705 15.4767C117.229 15.5206 117.734 15.6883 118.179 15.9656C118.407 16.1382 118.597 16.3551 118.737 16.603C118.877 16.8509 118.964 17.1244 118.993 17.4068L118.967 17.471L117.668 17.6463C117.622 17.3503 117.468 17.0811 117.235 16.8894C116.995 16.7094 116.7 16.6172 116.399 16.6285C116.161 16.6232 115.925 16.6792 115.715 16.791C115.626 16.8327 115.551 16.8988 115.499 16.9815C115.447 17.0641 115.42 17.1598 115.421 17.2572C115.429 17.3742 115.471 17.4866 115.54 17.5818C115.61 17.677 115.705 17.7511 115.815 17.796C116.258 18.0032 116.723 18.1638 117.2 18.275C117.779 18.3984 118.321 18.6516 118.785 19.0149C118.956 19.1685 119.09 19.3573 119.179 19.5678C119.268 19.7784 119.309 20.0057 119.3 20.2338C119.304 20.6292 119.192 21.0173 118.975 21.35C118.747 21.6957 118.424 21.9701 118.044 22.1412C117.509 22.3684 116.926 22.4627 116.346 22.4158C115.765 22.3688 115.206 22.182 114.715 21.8717H114.702Z" fill="black"/>
<path d="M120.833 14.4473C120.742 14.3598 120.67 14.2553 120.622 14.14C120.573 14.0247 120.547 13.9009 120.547 13.7759C120.547 13.6509 120.573 13.5271 120.622 13.4118C120.67 13.2965 120.742 13.192 120.833 13.1044C120.921 13.0153 121.027 12.9448 121.144 12.897C121.261 12.8492 121.386 12.8252 121.512 12.8265C121.767 12.8265 122.012 12.9265 122.192 13.1045C122.372 13.2826 122.473 13.5241 122.473 13.7759C122.473 14.0277 122.372 14.2692 122.192 14.4472C122.012 14.6253 121.767 14.7253 121.512 14.7253C121.386 14.7265 121.261 14.7026 121.144 14.6548C121.027 14.607 120.921 14.5365 120.833 14.4473V14.4473ZM120.737 15.5978H122.283V22.2951H120.737V15.5978Z" fill="black"/>
<path d="M125.404 22.0129C124.904 21.7268 124.493 21.3094 124.218 20.8069C123.912 20.2348 123.762 19.5933 123.785 18.9465C123.768 18.2947 123.917 17.6491 124.218 17.069C124.485 16.5668 124.892 16.151 125.391 15.8715C125.886 15.5985 126.444 15.4584 127.011 15.4652C127.407 15.4605 127.8 15.5287 128.171 15.6662C128.508 15.8002 128.815 15.9978 129.076 16.2479V12.5186H130.626V22.2952H129.076V21.5724C128.803 21.8558 128.473 22.0787 128.106 22.2262C127.74 22.3737 127.345 22.4424 126.95 22.4277C126.406 22.4289 125.873 22.2856 125.404 22.0129V22.0129ZM128.543 20.6358C128.714 20.4868 128.85 20.3029 128.942 20.0969C129.034 19.8909 129.08 19.6677 129.076 19.4426V18.4632C129.079 18.2376 129.033 18.0138 128.941 17.8072C128.849 17.6006 128.714 17.4159 128.543 17.2657C128.171 16.94 127.687 16.7659 127.19 16.7786C126.692 16.7913 126.218 16.9898 125.863 17.3342C125.475 17.7804 125.281 18.3596 125.322 18.9465C125.281 19.5333 125.475 20.1126 125.863 20.5588C126.219 20.9016 126.692 21.0998 127.188 21.114C127.685 21.1283 128.168 20.9576 128.543 20.6358V20.6358Z" fill="black"/>
<path d="M132.773 21.8846C132.575 21.6947 132.418 21.4671 132.311 21.2154C132.205 20.9638 132.151 20.6934 132.153 20.4207C132.156 20.148 132.214 19.8786 132.325 19.6289C132.436 19.3791 132.597 19.1542 132.799 18.9678C133.285 18.5837 133.879 18.3567 134.5 18.3178L136.466 18.1168V17.7533C136.475 17.6028 136.448 17.4523 136.387 17.3141C136.326 17.1758 136.233 17.0538 136.115 16.9578C135.84 16.762 135.506 16.6654 135.167 16.6841C134.858 16.6697 134.553 16.7586 134.301 16.9364C134.067 17.1252 133.913 17.3937 133.868 17.6891L132.526 17.6207L132.457 17.5651C132.554 16.9411 132.896 16.3801 133.409 16.0041C133.936 15.6383 134.567 15.4494 135.21 15.4652C135.927 15.431 136.633 15.6459 137.206 16.0725C137.456 16.2727 137.654 16.5279 137.786 16.8175C137.917 17.1072 137.978 17.4233 137.964 17.7404V20.4861C137.964 20.9351 138.146 21.1575 138.505 21.1575C138.606 21.1557 138.707 21.1413 138.804 21.1148L138.847 21.1447V22.2353C138.568 22.3259 138.275 22.3721 137.981 22.3721C137.677 22.3743 137.378 22.2961 137.115 22.1455C136.841 21.9705 136.641 21.7029 136.553 21.3928H136.514C136.23 21.7019 135.893 21.9583 135.518 22.1497C135.14 22.335 134.723 22.4302 134.301 22.4277C133.741 22.4442 133.195 22.2501 132.773 21.8846ZM135.587 20.9223C135.915 20.7176 136.207 20.462 136.453 20.1653V19.186L134.691 19.387C134.395 19.4089 134.114 19.5244 133.89 19.7163C133.803 19.7982 133.734 19.8972 133.688 20.007C133.642 20.1167 133.619 20.2347 133.622 20.3535C133.615 20.4697 133.636 20.5857 133.683 20.6926C133.729 20.7994 133.8 20.8942 133.89 20.9694C134.089 21.1169 134.334 21.1924 134.583 21.1832C134.936 21.19 135.283 21.0997 135.587 20.9223V20.9223Z" fill="black"/>
<path d="M141.185 22.0129C140.685 21.7258 140.275 21.3086 139.999 20.8069C139.685 20.2369 139.528 19.5953 139.544 18.9465C139.527 18.2947 139.676 17.6491 139.977 17.069C140.244 16.5668 140.651 16.151 141.15 15.8715C141.645 15.5981 142.203 15.458 142.77 15.4652C143.166 15.4605 143.559 15.5287 143.93 15.6662C144.276 15.7972 144.593 15.995 144.861 16.2479V12.5186H146.406V22.2952H144.861V21.5724C144.588 21.8564 144.256 22.0796 143.889 22.2271C143.522 22.3746 143.127 22.443 142.731 22.4277C142.187 22.4289 141.653 22.2856 141.185 22.0129V22.0129ZM144.328 20.6358C144.499 20.4868 144.635 20.3029 144.727 20.0969C144.819 19.8909 144.865 19.6677 144.861 19.4426V18.4632C144.864 18.2376 144.818 18.0138 144.726 17.8072C144.634 17.6006 144.499 17.4159 144.328 17.2657C143.975 16.9433 143.51 16.7686 143.029 16.7782C142.773 16.7697 142.517 16.8148 142.279 16.9106C142.041 17.0064 141.826 17.1507 141.648 17.3342C141.455 17.5545 141.308 17.8104 141.215 18.087C141.122 18.3637 141.086 18.6558 141.107 18.9465C141.086 19.2372 141.122 19.5292 141.215 19.8059C141.308 20.0826 141.455 20.3384 141.648 20.5588C142.004 20.9016 142.477 21.0998 142.973 21.114C143.47 21.1283 143.953 20.9576 144.328 20.6358V20.6358Z" fill="black"/>
<path d="M73.1746 26.1058V25.9304H76.3134V26.1058L75.218 26.3239V34.1246L76.3134 34.3427V34.5181H73.1746V34.3427L74.2699 34.1246V26.3239L73.1746 26.1058Z" fill="black"/>
<path d="M79.3007 27.4743V28.4964H79.3396C79.6264 28.1761 79.9762 27.9169 80.3677 27.7345C80.7593 27.5522 81.1843 27.4505 81.6169 27.4358C82.6906 27.4358 83.6257 28.0773 83.6257 29.6597V33.9065L84.5999 34.1203V34.2957H81.8334V34.1203L82.7685 33.9065V29.5656C82.7685 28.4152 82.1061 27.9832 81.3052 27.9832C80.569 28.0172 79.8724 28.3224 79.3526 28.8386V33.9279L80.2878 34.1417V34.3171H77.504V34.1417L78.4824 33.9279V28.1714L77.504 28.0516V27.8635L79.2357 27.4743H79.3007Z" fill="black"/>
<path d="M85.4138 27.7053L86.3922 27.5684L86.9723 25.5626H87.2451V27.5684H89.0072V27.9448H87.2451V33.543C87.5639 33.827 87.9805 33.9799 88.4097 33.9707C88.814 33.9561 89.2052 33.8253 89.5353 33.5943L89.6869 33.7825C89.219 34.1719 88.6316 34.3935 88.02 34.4112C87.7093 34.419 87.4007 34.3582 87.1169 34.2332C86.833 34.1081 86.581 33.922 86.3792 33.6884V27.9448H85.4138V27.7053Z" fill="black"/>
<path d="M95.774 32.9271C95.5532 33.3841 95.2049 33.7693 94.77 34.0375C94.3352 34.3057 93.8319 34.4457 93.3193 34.441C91.5053 34.441 90.3623 33.235 90.3623 30.8785C90.3623 28.8172 91.6611 27.4572 93.2673 27.4572C94.9731 27.4572 95.8173 28.6504 95.8173 30.3397V30.8486L91.2325 30.7887V30.8956C91.2325 32.987 92.1547 33.8893 93.4275 33.8893C93.8541 33.888 94.2745 33.7893 94.6561 33.6008C95.0376 33.4124 95.3698 33.1394 95.6268 32.8031L95.774 32.9271ZM91.2455 30.5321L94.9731 30.4209V30.1558C94.9731 28.7231 94.3627 27.7694 93.2414 27.7694C92.1807 27.7565 91.3581 28.7359 91.2455 30.5193V30.5321Z" fill="black"/>
<path d="M100.956 29.0781C100.922 28.6932 100.835 28.3148 100.697 27.9533C99.9333 28.0932 99.2431 28.4908 98.744 29.0781V33.9065L99.8696 34.1204V34.2957H96.8996V34.1204L97.8781 33.9065V28.1714L96.8867 28.0517V27.8635L98.6184 27.4743H98.718V28.7231H98.757C99.002 28.3355 99.3418 28.0148 99.745 27.7906C100.148 27.5665 100.602 27.4459 101.065 27.4401C101.264 27.4363 101.464 27.4593 101.658 27.5085C101.663 28.0422 101.577 28.573 101.402 29.0781H100.956Z" fill="black"/>
<path d="M104.251 27.4743V28.4964H104.29C104.577 28.1761 104.926 27.9169 105.318 27.7345C105.71 27.5522 106.135 27.4505 106.567 27.4358C107.641 27.4358 108.576 28.0773 108.576 29.6597V33.9065L109.55 34.1203V34.2957H106.771V34.1203L107.706 33.9065V29.5656C107.706 28.4152 107.043 27.9832 106.242 27.9832C105.506 28.0172 104.81 28.3224 104.29 28.8386V33.9279L105.225 34.1417V34.3171H102.446V34.1417L103.424 33.9279V28.1714L102.433 28.0516V27.8635L104.164 27.4743H104.251Z" fill="black"/>
<path d="M115.503 29.5784C115.503 30.545 115.464 30.9213 115.464 33.3163C115.464 33.7439 115.707 33.8936 115.979 33.8936C116.142 33.8661 116.296 33.8004 116.428 33.7022C116.559 33.604 116.665 33.4761 116.737 33.3291L116.901 33.4489C116.577 34.1588 116.209 34.4026 115.694 34.4026C115.552 34.4162 115.41 34.3997 115.276 34.3541C115.142 34.3086 115.019 34.235 114.917 34.1384C114.814 34.0418 114.733 33.9245 114.681 33.7944C114.628 33.6644 114.604 33.5246 114.611 33.3847C114.366 33.6915 114.057 33.9432 113.705 34.1231C113.354 34.303 112.967 34.407 112.572 34.4282C111.607 34.4282 110.697 34.0006 110.697 32.7432V31.9221C111.607 30.8529 113.667 30.4252 114.659 30.237V29.5057C114.659 28.3125 114.131 27.7608 113.113 27.7608C112.645 27.7608 112.189 27.9109 111.814 28.1885C111.661 28.61 111.579 29.0536 111.572 29.5014H111.139C110.939 29.1769 110.819 28.8108 110.788 28.4323C111.121 28.1058 111.518 27.8495 111.954 27.679C112.39 27.5084 112.857 27.4271 113.325 27.4401C114.555 27.4358 115.503 27.9832 115.503 29.5784ZM114.611 33.0639C114.611 32.2728 114.611 31.4131 114.637 30.5578C113.771 30.7331 112.386 31.0795 111.533 31.8408V32.5764C111.512 32.7519 111.53 32.9298 111.587 33.0973C111.645 33.2647 111.739 33.4175 111.863 33.5445C111.988 33.6715 112.139 33.7695 112.307 33.8313C112.474 33.8932 112.654 33.9174 112.832 33.9022C113.172 33.8961 113.507 33.8181 113.813 33.6735C114.12 33.5289 114.392 33.3211 114.611 33.0639V33.0639Z" fill="black"/>
<path d="M121.906 28.1714C121.58 27.924 121.179 27.7929 120.768 27.7993C119.343 27.7993 118.421 28.9626 118.421 30.9726C118.421 32.9827 119.477 33.8509 120.768 33.8509C121.192 33.8401 121.609 33.739 121.99 33.5545C122.371 33.37 122.707 33.1064 122.976 32.7817L123.153 32.9143C122.926 33.3783 122.569 33.7679 122.123 34.0364C121.678 34.3049 121.164 34.4409 120.642 34.4282C118.759 34.4282 117.538 33.2778 117.538 31.0068C117.538 28.7359 119.127 27.4443 120.833 27.4443C121.618 27.418 122.383 27.6975 122.963 28.2227C122.958 28.659 122.83 29.0853 122.595 29.4544H122.079C122.094 29.0202 122.035 28.5867 121.906 28.1714Z" fill="black"/>
<path d="M125.907 33.9065L126.881 34.1204V34.2957H124.062V34.1204L125.036 33.9065V28.1715L124.045 28.0517V27.8635L125.824 27.4743H125.907V33.9065ZM125.404 24.8014C125.523 24.8014 125.638 24.836 125.736 24.9009C125.835 24.9657 125.911 25.0579 125.956 25.1657C126.002 25.2736 126.013 25.3922 125.99 25.5067C125.967 25.6212 125.91 25.7264 125.827 25.8089C125.743 25.8914 125.637 25.9477 125.521 25.9704C125.405 25.9932 125.285 25.9815 125.176 25.9368C125.067 25.8922 124.973 25.8165 124.908 25.7195C124.842 25.6224 124.807 25.5083 124.807 25.3916C124.809 25.2357 124.873 25.0869 124.984 24.9767C125.096 24.8665 125.247 24.8036 125.404 24.8014Z" fill="black"/>
<path d="M134.055 30.9042C134.055 33.1153 132.686 34.4282 130.976 34.4282C129.266 34.4282 127.924 33.1965 127.924 30.9855C127.924 28.7744 129.279 27.4358 131.002 27.4358C132.725 27.4358 134.055 28.6803 134.055 30.9042ZM133.093 30.9342C133.093 28.8942 132.171 27.7694 130.929 27.7694C129.686 27.7694 128.898 28.9113 128.898 30.9598C128.898 33.0084 129.82 34.0947 131.106 34.0947C132.392 34.0947 133.093 32.957 133.093 30.9342V30.9342Z" fill="black"/>
<path d="M136.968 27.4743V28.4964H137.012C137.298 28.1761 137.648 27.9169 138.04 27.7345C138.431 27.5522 138.856 27.4505 139.289 27.4358C140.358 27.4358 141.298 28.0773 141.298 29.6597V33.9065L142.272 34.1203V34.2957H139.492V34.1203L140.427 33.9065V29.5656C140.427 28.4152 139.765 27.9832 138.964 27.9832C138.228 28.0172 137.531 28.3224 137.012 28.8386V33.9279L137.947 34.1417V34.3171H135.167V34.1417L136.141 33.9279V28.1714L135.154 28.0516V27.8635L136.886 27.4743H136.968Z" fill="black"/>
<path d="M148.225 29.5784C148.225 30.545 148.186 30.9213 148.186 33.3163C148.186 33.744 148.428 33.8936 148.701 33.8936C148.864 33.8661 149.017 33.8004 149.149 33.7022C149.281 33.604 149.387 33.4761 149.459 33.3291L149.623 33.4489C149.298 34.1588 148.93 34.4026 148.415 34.4026C148.274 34.4155 148.132 34.3984 147.998 34.3526C147.864 34.3068 147.741 34.2332 147.638 34.1369C147.535 34.0405 147.455 33.9236 147.401 33.7939C147.348 33.6641 147.323 33.5247 147.329 33.3847C147.083 33.6934 146.773 33.9463 146.419 34.1263C146.066 34.3064 145.678 34.4093 145.281 34.4282C144.32 34.4282 143.41 34.0006 143.41 32.7432V31.9221C144.32 30.8529 146.38 30.4252 147.372 30.237V29.5057C147.372 28.3125 146.844 27.7608 145.826 27.7608C145.358 27.7608 144.902 27.9109 144.527 28.1885C144.374 28.61 144.292 29.0536 144.285 29.5014H143.852C143.65 29.1779 143.53 28.8112 143.501 28.4323C143.834 28.1063 144.229 27.8504 144.665 27.6798C145.1 27.5093 145.566 27.4277 146.034 27.4401C147.277 27.4358 148.225 27.9832 148.225 29.5784ZM147.329 33.064C147.329 32.2728 147.329 31.4131 147.359 30.5578C146.493 30.7331 145.108 31.0796 144.25 31.8408V32.5764C144.229 32.7519 144.248 32.9298 144.305 33.0973C144.362 33.2647 144.456 33.4175 144.58 33.5445C144.705 33.6715 144.856 33.7695 145.024 33.8314C145.191 33.8932 145.371 33.9174 145.549 33.9022C145.889 33.8975 146.225 33.8201 146.532 33.6754C146.839 33.5308 147.111 33.3222 147.329 33.064Z" fill="black"/>
<path d="M152.022 33.9065L153 34.1204V34.2957H150.164V34.1204L151.138 33.9065V25.0494L150.151 24.9425V24.7586L151.939 24.4635H152.022V33.9065Z" fill="black"/>
<path d="M78.8374 36.464V45.8728L79.8159 46.061V46.2748H78.0841L77.9889 45.3639H77.9369C77.6841 45.6784 77.3648 45.9348 77.0015 46.115C76.6381 46.2952 76.2393 46.395 75.8328 46.4074C74.0145 46.4074 73.0663 45.1885 73.0663 43.0459C73.0663 40.9032 74.3435 39.4149 76.1575 39.4149C76.7721 39.4031 77.3811 39.5319 77.9369 39.7913V37.0499L76.9455 36.943V36.7762L78.7335 36.4854L78.8374 36.464ZM77.9716 45.0474V40.467C77.7482 40.2482 77.4833 40.0752 77.1921 39.9577C76.9008 39.8403 76.589 39.7808 76.2744 39.7827C74.7418 39.7827 74.0361 41.0657 74.0361 43.0117C74.0361 45.103 74.8501 45.8813 76.2008 45.8813C76.5353 45.8651 76.8631 45.783 77.165 45.6398C77.4669 45.4966 77.7367 45.2951 77.9586 45.0474H77.9716Z" fill="black"/>
<path d="M86.284 44.9019C86.0623 45.3583 85.7138 45.7429 85.2791 46.011C84.8445 46.2791 84.3416 46.4195 83.8292 46.4159C82.0109 46.4159 80.8723 45.2099 80.8723 42.8534C80.8723 40.7877 82.1711 39.432 83.773 39.432C85.5047 39.432 86.323 40.6252 86.323 42.3102V42.8192L81.7381 42.7935V42.9004C81.7381 44.9918 82.6603 45.8941 83.9375 45.8941C84.3634 45.8928 84.7833 45.7941 85.1641 45.6056C85.5449 45.4171 85.8764 45.1441 86.1325 44.8079L86.284 44.9019ZM81.7555 42.5027L85.4831 42.3958V42.1306C85.4831 40.6979 84.8726 39.7442 83.7513 39.7442C82.6993 39.7699 81.8637 40.7364 81.7555 42.5155V42.5027Z" fill="black"/>
<path d="M94.4319 46.4288L91.0463 38.1833L90.1371 37.9694V37.7941H93.1331V37.9694L92.0897 38.1833L94.8216 45.0773H94.8605L97.5014 38.1833L96.4537 37.9694V37.7941H98.8695V37.9694L97.9474 38.1833L94.8216 46.4288H94.4319Z" fill="black"/>
<path d="M103.857 41.5789C103.857 42.5454 103.814 42.9175 103.814 45.3168C103.814 45.7444 104.061 45.8941 104.329 45.8941C104.492 45.8665 104.646 45.8009 104.779 45.7028C104.911 45.6046 105.018 45.4767 105.091 45.3296L105.255 45.4493C104.926 46.1593 104.563 46.4031 104.048 46.4031C103.906 46.4167 103.764 46.4001 103.629 46.3546C103.495 46.309 103.372 46.2355 103.269 46.139C103.166 46.0425 103.085 45.9252 103.032 45.7952C102.979 45.6651 102.955 45.5253 102.961 45.3852C102.715 45.6939 102.405 45.9468 102.052 46.1268C101.698 46.3069 101.31 46.4098 100.913 46.4287C99.9519 46.4287 99.0427 46.001 99.0427 44.7394V43.9225C99.9519 42.8534 102.013 42.4214 103.004 42.2375V41.5105C103.004 40.3215 102.472 39.7698 101.454 39.7698C100.985 39.7677 100.529 39.9179 100.155 40.1975C100.002 40.619 99.9182 41.0625 99.9086 41.5105H99.4757C99.2738 41.187 99.1535 40.8203 99.125 40.4413C99.4573 40.1154 99.8531 39.8594 100.288 39.6888C100.724 39.5183 101.19 39.4367 101.658 39.4491C102.909 39.4363 103.857 39.9837 103.857 41.5789ZM102.961 45.0644C102.961 44.2732 102.961 43.4136 102.987 42.5583C102.121 42.7293 100.736 43.08 99.8826 43.8413V44.5812C99.8614 44.7566 99.88 44.9346 99.9371 45.102C99.9942 45.2695 100.088 45.4223 100.213 45.5493C100.337 45.6762 100.489 45.7742 100.656 45.8361C100.824 45.898 101.003 45.9222 101.181 45.9069C101.522 45.9006 101.857 45.8221 102.164 45.6767C102.471 45.5314 102.743 45.3226 102.961 45.0644V45.0644Z" fill="black"/>
<path d="M107.654 45.907L108.628 46.1208V46.2962H105.797V46.1208L106.771 45.907V37.0499L105.779 36.943V36.7762L107.572 36.4854H107.654V45.907Z" fill="black"/>
<path d="M115.07 44.9019C114.849 45.3589 114.501 45.7442 114.066 46.0123C113.631 46.2805 113.128 46.4205 112.615 46.4159C110.797 46.4159 109.658 45.2099 109.658 42.8534C109.658 40.7877 110.957 39.432 112.563 39.432C114.269 39.432 115.113 40.6252 115.113 42.3102V42.8192L110.529 42.7935V42.9004C110.529 44.9918 111.451 45.8941 112.724 45.8941C113.15 45.8928 113.571 45.7941 113.952 45.6056C114.334 45.4172 114.666 45.1442 114.923 44.8079L115.07 44.9019ZM110.542 42.5027L114.269 42.3958V42.1306C114.269 40.6979 113.659 39.7442 112.537 39.7442C111.477 39.7699 110.65 40.7364 110.542 42.5155V42.5027Z" fill="black"/>
<path d="M118.001 39.4748V40.4926H118.04C118.328 40.1737 118.678 39.9156 119.069 39.7341C119.461 39.5525 119.885 39.4512 120.317 39.4363C121.391 39.4363 122.326 40.0778 122.326 41.6602V45.907L123.3 46.1208V46.2962H120.521V46.1208L121.456 45.907V41.5661C121.456 40.4156 120.794 39.9837 119.993 39.9837C119.256 40.0177 118.56 40.3229 118.04 40.839V45.9284L118.975 46.1422V46.3175H116.196V46.1422L117.17 45.9284V40.1719L116.183 40.0521V39.864L117.915 39.4748H118.001Z" fill="black"/>
<path d="M128.656 40.1719C128.331 39.9212 127.929 39.7883 127.517 39.7955C126.093 39.7955 125.171 40.9631 125.171 42.9731C125.171 44.9832 126.231 45.8514 127.517 45.8514C127.942 45.8407 128.36 45.7396 128.741 45.5551C129.123 45.3706 129.46 45.107 129.729 44.7822L129.907 44.9148C129.68 45.3788 129.322 45.7684 128.877 46.0369C128.432 46.3054 127.917 46.4414 127.396 46.4287C125.513 46.4287 124.292 45.2783 124.292 43.0073C124.292 40.7364 125.876 39.4448 127.586 39.4448C128.37 39.4236 129.13 39.7078 129.703 40.236C129.694 40.6716 129.567 41.0968 129.335 41.4677H128.82C128.841 41.0297 128.785 40.5914 128.656 40.1719V40.1719Z" fill="black"/>
<path d="M132.656 45.907L133.635 46.1209V46.2962H130.812V46.1209L131.79 45.907V40.1719L130.799 40.0522V39.864L132.578 39.4748H132.656V45.907ZM132.154 36.8104C132.272 36.8096 132.388 36.8435 132.487 36.9078C132.586 36.9722 132.663 37.064 132.709 37.1718C132.755 37.2796 132.767 37.3984 132.745 37.5131C132.722 37.6279 132.666 37.7334 132.582 37.8164C132.499 37.8994 132.392 37.956 132.276 37.9791C132.16 38.0023 132.04 37.9908 131.931 37.9463C131.821 37.9017 131.728 37.8261 131.662 37.729C131.596 37.6318 131.561 37.5175 131.561 37.4006C131.562 37.2452 131.625 37.0963 131.735 36.986C131.846 36.8757 131.997 36.8127 132.154 36.8104Z" fill="black"/>
<path d="M139.639 41.5789C139.639 42.5454 139.601 42.9175 139.601 45.3168C139.601 45.7444 139.843 45.8941 140.116 45.8941C140.278 45.8665 140.432 45.8009 140.564 45.7027C140.696 45.6045 140.802 45.4766 140.873 45.3296L141.038 45.4493C140.713 46.1593 140.345 46.403 139.83 46.403C139.689 46.4167 139.546 46.4002 139.412 46.3546C139.278 46.309 139.156 46.2354 139.053 46.1388C138.95 46.0423 138.87 45.9249 138.817 45.7949C138.764 45.6648 138.741 45.5251 138.748 45.3852C138.501 45.693 138.191 45.9454 137.838 46.1253C137.485 46.3053 137.097 46.4087 136.7 46.4287C135.734 46.4287 134.825 46.001 134.825 44.7394V43.9225C135.734 42.8534 137.795 42.4214 138.787 42.2375V41.5105C138.787 40.3215 138.258 39.7698 137.241 39.7698C136.773 39.7698 136.317 39.9199 135.942 40.1975C135.789 40.619 135.707 41.0626 135.7 41.5105H135.267C135.065 41.1868 134.943 40.8204 134.912 40.4413C135.245 40.1148 135.641 39.8585 136.077 39.688C136.513 39.5174 136.98 39.4362 137.449 39.4491C138.691 39.4363 139.639 39.9837 139.639 41.5789ZM138.748 45.0644C138.748 44.2732 138.748 43.4136 138.774 42.5583C137.908 42.7293 136.522 43.08 135.669 43.8413V44.5812C135.648 44.7566 135.667 44.9346 135.724 45.102C135.781 45.2695 135.875 45.4223 136 45.5492C136.124 45.6762 136.275 45.7742 136.443 45.8361C136.611 45.898 136.79 45.9222 136.968 45.9069C137.309 45.9003 137.643 45.8217 137.95 45.6763C138.257 45.531 138.529 45.3223 138.748 45.0644V45.0644Z" fill="black"/>
</svg>
