<?xml version="1.0" encoding="UTF-8"?>
<svg id="Capa_2" data-name="Capa 2" xmlns="http://www.w3.org/2000/svg" viewBox="0 0 487.31 122.94">
  <defs>
    <style>
      .cls-1 {
        fill: #ff5100;
      }

      .cls-2 {
        fill: #1d1d1b;
      }
    </style>
  </defs>
  <g id="Capa_1-2" data-name="Capa 1">
    <g>
      <path class="cls-2" d="M33.64,4.38v1.88c0,3.44,.63,6.32,.63,6.32l-.88,.31s-2.19-2.06-3.38-7.13c-1.81-.69-4.88-1.5-8.44-1.5C12.32,4.25,4.56,11.63,4.56,25.39s8.19,19.63,17.38,19.63c3.25,0,6-.56,8.44-1.5v-14.51l-4.19-.69v-.81h10.63v.81l-3.25,.69v14.32l1.69-.19v.69c-3.56,1.63-8.19,2.69-13.44,2.69-10.94,0-20.76-6.63-20.76-20.95C1.06,10.5,11.01,2.81,21.82,2.81c5.07,0,9.94,1.5,11.82,1.56Z"/>
      <path class="cls-2" d="M60.78,20.95s-.19-3.5-.81-5c-4.44,.12-8.44,3.38-10.19,5.5v22.95l5.19,.69v.81h-12.76v-.81l4.5-.69V16.82l-4.56-.31v-.81l7.07-1.31h.37v5.63h.19c2.31-3.38,6.32-6,10.82-6,.94,0,1.88,.06,2.81,.31,0,4-1,6.63-1,6.63h-1.63Z"/>
      <path class="cls-2" d="M89.22,23.7c0,4.75-.19,6.57-.19,18.13,0,1.94,1.19,2.69,2.56,2.69s2.69-1.19,3.44-2.31l.69,.56c-1.44,2.69-2.94,3.63-5,3.63-2.69,0-4.63-1.5-4.63-4.56v-.5c-2.06,2.31-4.94,5.19-9.82,5.19-4.38,0-8.57-2-8.57-7.88v-3.81c4.38-5,14.01-7.07,18.57-7.88v-3.44c0-5.69-2.81-8.13-7.57-8.13-3.31,0-5.56,1.25-7,2.38-.75,2.19-.69,5.44-.69,5.44h-1.63s-1.19-1.88-1.38-4.69c2.38-2.5,6.38-4.5,11.26-4.5,5.69,0,9.94,2.5,9.94,9.69Zm-3.13,16.26c0-3.75,.12-7.75,.12-11.69-4.19,.81-11.51,2.44-15.57,6.38v3.5c0,4.63,3,6.44,6.44,6.44,4.88,0,7.94-3.25,9-4.63Z"/>
      <path class="cls-2" d="M124.74,0V44.33l4.56,.63v.94h-7.13l-.31-4.32h-.12c-1.75,2.06-5.25,4.94-10.07,4.94-8.38,0-12.76-5.69-12.76-15.69s5.88-16.82,14.26-16.82c4.13,0,6.94,1.13,8.57,1.94V2.19l-4.56-.38V1l7.19-1h.37Zm-3,40.14V18.32c-1.25-1.06-4.07-2.88-8.32-2.88-7.32,0-11.26,6-11.26,15.26s3.81,13.82,10.57,13.82c3.81,0,7.19-2.44,9-4.38Z"/>
      <path class="cls-2" d="M140.86,14.38h.31v26.14c1.25,2.38,3.75,4,7.25,4,3.75,0,7.32-2,9.69-4.44V16.82l-4.63-.31v-.81l7.07-1.31h.63v30.01l4.5,.69v.81h-7l-.31-4.56h-.19c-2.31,2.75-6.38,5.19-10.76,5.19-4.75,0-7.69-2.13-9.25-5.82V16.82l-4.44-.31v-.81l7.13-1.31Z"/>
      <path class="cls-2" d="M193.32,23.7c0,4.75-.19,6.57-.19,18.13,0,1.94,1.19,2.69,2.56,2.69s2.69-1.19,3.44-2.31l.69,.56c-1.44,2.69-2.94,3.63-5,3.63-2.69,0-4.63-1.5-4.63-4.56v-.5c-2.06,2.31-4.94,5.19-9.82,5.19-4.38,0-8.57-2-8.57-7.88v-3.81c4.38-5,14.01-7.07,18.57-7.88v-3.44c0-5.69-2.81-8.13-7.57-8.13-3.31,0-5.57,1.25-7,2.38-.75,2.19-.69,5.44-.69,5.44h-1.63s-1.19-1.88-1.38-4.69c2.38-2.5,6.38-4.5,11.26-4.5,5.69,0,9.94,2.5,9.94,9.69Zm-3.13,16.26c0-3.75,.12-7.75,.12-11.69-4.19,.81-11.51,2.44-15.57,6.38v3.5c0,4.63,3,6.44,6.44,6.44,4.88,0,7.94-3.25,9-4.63Z"/>
      <path class="cls-2" d="M224.02,17.57c-.63-.5-2.75-2.13-6.19-2.13-6.75,0-11.76,5.56-11.76,15.01s5,14.01,11.63,14.01c4.81,0,8-2.56,10.38-5.56l.81,.5c-1.88,3.63-5.5,7.13-11.57,7.13-8.69,0-14.32-5.38-14.32-15.95s7.25-16.57,15.13-16.57c3.94,0,7.69,1.63,9.57,3.69-.12,2.94-1.19,4.81-1.5,5.44h-1.88c.19-.75,.25-3.56-.31-5.57Z"/>
      <path class="cls-2" d="M240.9,44.4l4.5,.69v.81h-12.07v-.81l4.5-.69V16.82l-4.56-.31v-.81l7.25-1.31h.37v30.01Zm-1.88-42.08c1.25,0,2.25,1,2.25,2.25s-1,2.25-2.25,2.25-2.25-1-2.25-2.25,1-2.25,2.25-2.25Z"/>
      <path class="cls-2" d="M278.23,30.14c0,10.32-6.19,16.38-13.88,16.38s-13.82-5.69-13.82-16.01,6.19-16.51,13.94-16.51,13.76,5.75,13.76,16.13Zm-3.25,.06c0-9.57-4.63-14.82-10.82-14.82s-10.32,5.44-10.32,15.01,4.56,14.76,10.82,14.76,10.32-5.38,10.32-14.94Zm-4.38-28.77l1.81,2-9.19,7.07-.69-.63,7.75-8.44h.31Z"/>
      <path class="cls-2" d="M291.11,14.38v4.75h.19c2.25-2.69,6.38-5.13,10.75-5.13,4.94,0,9.26,2.94,9.26,10.19v20.2l4.5,.69v.81h-11.88v-.81l4.38-.69V23.95c0-5.88-3.5-7.88-7.25-7.88s-7.38,1.94-9.75,4.38v23.95l4.38,.69v.81h-11.94v-.81l4.5-.69V16.82l-4.56-.31v-.81l7.07-1.31h.37Z"/>
      <path class="cls-1" d="M0,71.04v-1H19.7c10.19,0,17.95,4.13,17.95,13.63,0,8.69-7.13,14.13-14.88,14.13-1.94,0-3.69-.37-5.82-1.06v-1.19h2.25c5.38-.06,8.38-4.19,8.38-11.69s-3-11.13-8.88-11.13h-4.5v37.39l5.38,1.38v1H0v-1l4.56-1.38v-37.71l-4.56-1.38Z"/>
      <path class="cls-1" d="M61.65,90.24s-.31-4-1.63-6c-2.75,.81-4.75,2.75-5.57,3.44v22.45c1.19,.31,4.13,1.13,5.25,1.38v1h-18.76v-1l4.5-1.38v-25.89c-1-.19-3.63-.5-4.56-.69v-1.06l11.82-2.63h1.5v5.19h.25c2.5-3.25,6.19-5.19,10.19-5.19,.94,0,1.88,.12,2.81,.31,0,5.63-1.75,10.07-1.75,10.07h-4.06Z"/>
      <path class="cls-1" d="M101.67,96.3c0,10.57-6.69,16.82-16.07,16.82s-15.82-5.88-15.82-16.45,6.69-16.82,16.13-16.82,15.76,5.88,15.76,16.45Zm-9.5,.25c0-9.57-2.31-14.26-6.69-14.26s-6.19,4.69-6.19,14.26,2.31,14.13,6.82,14.13,6.07-4.63,6.07-14.13Z"/>
      <path class="cls-1" d="M118.04,79.86v4.25h.25c2.38-2.31,5.82-4.25,9.63-4.25,3.44,0,6.63,1.38,8.32,4.69h.19c2.25-2.19,5.75-4.69,10.63-4.69s9.57,2.81,9.57,10.63v19.63l4.06,1.38v1h-16.45v-1l3.38-1.38v-20.57c0-2.81-1.12-5.13-4.81-5.13-1.88,0-4.13,.81-5.82,2.25,.31,1.13,.5,2.38,.5,3.81v19.63l3.19,1.38v1h-15.38v-1l3.19-1.38v-20.57c0-2.81-1.12-5.13-4.81-5.13-1.75,0-3.94,.69-5.38,1.88v23.82l3.31,1.38v1h-16.38v-1l4.06-1.38v-25.76l-4.13-.69v-1.19l11.38-2.63h1.5Z"/>
      <path class="cls-1" d="M195.39,96.3c0,10.57-6.69,16.82-16.07,16.82s-15.82-5.88-15.82-16.45,6.69-16.82,16.13-16.82,15.76,5.88,15.76,16.45Zm-9.5,.25c0-9.57-2.31-14.26-6.69-14.26s-6.19,4.69-6.19,14.26,2.31,14.13,6.82,14.13,6.07-4.63,6.07-14.13Z"/>
      <path class="cls-1" d="M218.21,83.23c-.75-.38-1.75-.69-2.88-.69-4.69,0-7.25,4.25-7.25,13.01,0,9.88,3.94,13.13,8.63,13.13,3.5,0,6.32-1.75,8.88-4l1.13,.88c-2,3.88-5.94,7.57-12.13,7.57-9.32,0-15.57-5.5-15.57-16.38s7.57-16.88,16.2-16.88c4.13,0,8.38,1.38,10.57,3.38-.19,4.44-2.38,7.44-2.38,7.44h-3.44s-.25-4.38-1.75-7.44Z"/>
      <path class="cls-1" d="M241.97,110.12l4.06,1.38v1h-17.13v-1l4.06-1.38v-25.76l-4.13-.69v-1.19l11.44-2.63h1.69v30.26Zm-4.75-43.33c3.44,0,5.13,2,5.13,4.56s-1.69,4.5-5.13,4.5c-3.25,0-5-2-5-4.5s1.75-4.56,5-4.56Z"/>
      <path class="cls-1" d="M280.98,96.3c0,10.57-6.69,16.82-16.07,16.82s-15.82-5.88-15.82-16.45,6.69-16.82,16.13-16.82,15.76,5.88,15.76,16.45Zm-9.5,.25c0-9.57-2.31-14.26-6.69-14.26s-6.19,4.69-6.19,14.26,2.31,14.13,6.82,14.13,6.07-4.63,6.07-14.13Zm-1.38-30.51l4.19,4.75-11.51,5.57-.81-.81,7.25-9.5h.88Z"/>
      <path class="cls-1" d="M297.36,79.86v4.25h.25c2.38-2.31,5.88-4.25,9.75-4.25,5.13,0,9.69,2.81,9.69,10.63v19.63l4.06,1.38v1h-16.45v-1l3.38-1.38v-20.57c0-2.81-1.13-5.13-4.94-5.13-1.81,0-4,.69-5.5,1.88v23.82l3.31,1.38v1h-16.38v-1l4.06-1.38v-25.76l-4.13-.69v-1.19l11.38-2.63h1.5Z"/>
      <path class="cls-1" d="M337.44,81.17c1.56-3.81,5.88-9.25,13.57-9.25s12.07,4.19,12.07,11.19c0,11.63-16.38,22.13-22.51,26.76v.13h21.14c.63-3.63,2.56-5.5,2.56-5.5l.75,.25s-.63,2.38-.63,5.94v1.81h-27.76l-.19-1.38c6.88-5.13,23.26-16.63,23.26-27.7,0-5.75-3.57-8.88-9.38-8.88-6.13,0-9.94,3.94-11.94,7.19l-.94-.56Z"/>
      <path class="cls-1" d="M369.76,81.17c1.56-3.81,5.88-9.25,13.57-9.25s12.07,4.19,12.07,11.19c0,11.63-16.38,22.13-22.51,26.76v.13h21.14c.63-3.63,2.56-5.5,2.56-5.5l.75,.25s-.63,2.38-.63,5.94v1.81h-27.76l-.19-1.38c6.88-5.13,23.26-16.63,23.26-27.7,0-5.75-3.56-8.88-9.38-8.88-6.13,0-9.94,3.94-11.94,7.19l-.94-.56Z"/>
      <path class="cls-1" d="M399.96,122.94l18.26-55.71h3.25l-18.26,55.71h-3.25Z"/>
      <path class="cls-1" d="M424.03,82.3c1.69-4.06,7-10.38,15.95-10.38,7.94,0,13.01,4.5,13.01,11.76,0,9.88-11.76,17.2-20.64,22.82v.25h16.13c1.69-4.13,5.38-5.69,5.38-5.69l1,.56s-.69,3.25-.69,7.32v3.56h-30.52l-.5-2.25c6.25-4.94,20.2-16.76,20.2-25.82,0-4.25-3.06-6.07-6.88-6.07-4.38,0-8.63,2.56-11.07,5l-1.38-1.06Z"/>
      <path class="cls-1" d="M467.99,90.11c4.38-.38,8.13-1.06,8.13-6.5,0-4.13-2.75-5.94-6.44-5.94-4.13,0-7.94,2.06-10.01,4.19l-1.06-.94c1.88-4.06,6.07-9,14.01-9s12.69,4,12.69,9.63c0,4.75-4.19,7.75-9,8.5v.19c6.07,.75,11.01,4.19,11.01,10.26,0,7.94-6.5,12.63-15.82,12.63-5.75,0-11.63-1.75-13.88-3.44,0-4.63,2.31-7.75,2.69-8h2.25s.25,4.44,1.75,7.38c1.06,.56,3.31,1.44,6.25,1.44,4.13,0,7.13-2.38,7.13-8.07,0-7.75-5-9.25-10.32-10l.63-2.31Z"/>
    </g>
  </g>
</svg>