<?xml version="1.0" encoding="UTF-8"?>
<svg id="Capa_2" data-name="Capa 2" xmlns="http://www.w3.org/2000/svg" viewBox="0 0 462.46 151.68">
  <defs>
    <style>
      .cls-1 {
        fill: #ff5100;
      }

      .cls-2 {
        fill: #1d1d1b;
      }
    </style>
  </defs>
  <g id="Capa_1-2" data-name="Capa 1">
    <g>
      <g>
        <path class="cls-2" d="M57.81,23.12c-1.25-.72-2.21-1.72-2.88-2.99-.67-1.27-1-2.73-1-4.37V.98h3.14V15.63c0,1.83,.42,3.24,1.27,4.22s2.15,1.47,3.89,1.47,3.04-.49,3.89-1.47,1.27-2.39,1.27-4.22V.98h3.14V15.76c0,1.64-.33,3.09-1,4.37-.66,1.28-1.62,2.27-2.88,2.99-1.25,.72-2.73,1.08-4.43,1.08s-3.18-.36-4.43-1.08Z"/>
        <path class="cls-2" d="M74.99,7.52h2.88v2.13c.63-.68,1.46-1.25,2.48-1.73,1.03-.48,2.1-.72,3.24-.72,1.72,0,3.05,.48,3.99,1.44,.94,.96,1.41,2.28,1.41,3.96v11.28h-2.88V13.11c0-1.09-.29-1.92-.87-2.5s-1.4-.87-2.47-.87c-.94,0-1.83,.28-2.66,.85-.84,.57-1.59,1.33-2.24,2.29v10.99h-2.88V7.52Z"/>
        <path class="cls-2" d="M93.83,22.9c-.96-.86-1.44-2.01-1.44-3.45,0-1.53,.52-2.72,1.57-3.6,1.05-.87,2.37-1.38,3.96-1.54l5.1-.52v-1.11c0-.94-.33-1.65-1-2.14-.67-.49-1.54-.74-2.63-.74-.92,0-1.68,.22-2.3,.65s-1.04,1.1-1.26,1.99h-2.71c.24-1.72,.98-3.03,2.21-3.92,1.23-.89,2.65-1.34,4.27-1.34,1.92,0,3.45,.47,4.59,1.42,1.14,.95,1.72,2.2,1.72,3.74v7.65c0,.55,.12,.96,.36,1.26s.6,.44,1.08,.44c.28,0,.57-.04,.85-.13v2.16c-.65,.22-1.26,.33-1.83,.33-1.77,0-2.84-.85-3.24-2.55-.63,.72-1.45,1.35-2.45,1.88-1,.53-2.03,.8-3.07,.8-1.55,0-2.8-.43-3.76-1.29Zm9.19-3.87v-2.94l-4.9,.56c-.92,.11-1.62,.41-2.11,.9-.49,.49-.74,1.08-.74,1.78,0,.74,.24,1.3,.74,1.68,.49,.38,1.13,.57,1.91,.57,1.7,0,3.4-.85,5.1-2.55Z"/>
        <path class="cls-2" d="M123.34,22.71c-1.73-.99-3.11-2.38-4.14-4.17-1.03-1.79-1.54-3.83-1.54-6.11s.51-4.33,1.54-6.11c1.02-1.79,2.4-3.18,4.14-4.17,1.73-.99,3.63-1.49,5.71-1.49,1.74,0,3.32,.32,4.74,.95,1.42,.63,2.58,1.52,3.48,2.65,.9,1.13,1.5,2.44,1.78,3.92h-3.14c-.48-1.53-1.3-2.68-2.45-3.47-1.16-.78-2.64-1.18-4.45-1.18-1.64,0-3.07,.38-4.3,1.14-1.23,.76-2.18,1.82-2.84,3.17-.67,1.35-1,2.88-1,4.58s.33,3.23,1,4.58c.66,1.35,1.61,2.41,2.84,3.17,1.23,.76,2.66,1.14,4.3,1.14,2.18,0,3.89-.61,5.13-1.81,1.24-1.21,1.95-2.89,2.12-5.05h-9.12v-2.88h12.29v1.86c0,2.07-.42,3.92-1.27,5.54s-2.06,2.9-3.63,3.83c-1.57,.93-3.4,1.39-5.49,1.39s-3.97-.5-5.71-1.49Z"/>
        <path class="cls-2" d="M143.23,7.52h2.88v2.13c.63-.72,1.35-1.31,2.16-1.77,.81-.46,1.69-.69,2.65-.69,.57,0,1,.09,1.31,.26l-.46,2.39c-.26-.07-.61-.1-1.05-.1-.92,0-1.78,.27-2.58,.82s-1.48,1.32-2.03,2.32v10.99h-2.88V7.52Z"/>
        <path class="cls-2" d="M154.78,22.9c-.96-.86-1.44-2.01-1.44-3.45,0-1.53,.52-2.72,1.57-3.6,1.05-.87,2.37-1.38,3.96-1.54l5.1-.52v-1.11c0-.94-.33-1.65-1-2.14-.67-.49-1.54-.74-2.63-.74-.92,0-1.68,.22-2.3,.65s-1.04,1.1-1.26,1.99h-2.71c.24-1.72,.98-3.03,2.21-3.92,1.23-.89,2.65-1.34,4.27-1.34,1.92,0,3.45,.47,4.59,1.42,1.14,.95,1.72,2.2,1.72,3.74v7.65c0,.55,.12,.96,.36,1.26s.6,.44,1.08,.44c.28,0,.57-.04,.85-.13v2.16c-.65,.22-1.26,.33-1.83,.33-1.77,0-2.84-.85-3.24-2.55-.63,.72-1.45,1.35-2.45,1.88-1,.53-2.03,.8-3.07,.8-1.55,0-2.8-.43-3.76-1.29Zm9.19-3.87v-2.94l-4.9,.56c-.92,.11-1.62,.41-2.11,.9-.49,.49-.74,1.08-.74,1.78,0,.74,.24,1.3,.74,1.68,.49,.38,1.13,.57,1.91,.57,1.7,0,3.4-.85,5.1-2.55Z"/>
        <path class="cls-2" d="M174.25,23.15c-1.14-.7-2.06-1.69-2.73-2.98-.68-1.29-1.01-2.78-1.01-4.48s.32-3.19,.95-4.48c.63-1.29,1.52-2.28,2.65-2.98,1.13-.7,2.41-1.05,3.83-1.05,1.05,0,2.03,.18,2.96,.54,.93,.36,1.69,.87,2.3,1.52V0h2.88V23.87h-2.88v-1.8c-.57,.59-1.29,1.09-2.16,1.5-.87,.41-1.89,.62-3.04,.62-1.35,0-2.6-.35-3.74-1.05Zm6.57-2.16c.73-.39,1.31-.92,1.73-1.57,.43-.65,.64-1.36,.64-2.13v-3.14c0-.76-.22-1.48-.65-2.14-.44-.66-1.01-1.2-1.73-1.6-.72-.4-1.5-.61-2.35-.61-1.48,0-2.7,.49-3.65,1.47-.95,.98-1.42,2.45-1.42,4.41s.47,3.43,1.42,4.41c.95,.98,2.16,1.47,3.65,1.47,.85,0,1.64-.2,2.37-.59Z"/>
        <path class="cls-2" d="M191.66,22.76c-.94-.96-1.41-2.28-1.41-3.96V7.52h2.88v10.76c0,1.09,.29,1.92,.87,2.5,.58,.58,1.4,.87,2.47,.87,.94,0,1.83-.28,2.66-.85,.84-.57,1.59-1.33,2.24-2.29V7.52h2.88V23.87h-2.88v-2.12c-.63,.68-1.46,1.25-2.48,1.73-1.03,.48-2.1,.72-3.24,.72-1.72,0-3.05-.48-3.99-1.44Z"/>
        <path class="cls-2" d="M209.22,22.9c-.96-.86-1.44-2.01-1.44-3.45,0-1.53,.52-2.72,1.57-3.6,1.05-.87,2.37-1.38,3.96-1.54l5.1-.52v-1.11c0-.94-.33-1.65-1-2.14-.67-.49-1.54-.74-2.63-.74-.92,0-1.68,.22-2.3,.65s-1.04,1.1-1.26,1.99h-2.71c.24-1.72,.98-3.03,2.21-3.92,1.23-.89,2.65-1.34,4.27-1.34,1.92,0,3.45,.47,4.59,1.42,1.14,.95,1.72,2.2,1.72,3.74v7.65c0,.55,.12,.96,.36,1.26s.6,.44,1.08,.44c.28,0,.57-.04,.85-.13v2.16c-.65,.22-1.26,.33-1.83,.33-1.77,0-2.84-.85-3.24-2.55-.63,.72-1.45,1.35-2.45,1.88-1,.53-2.03,.8-3.07,.8-1.55,0-2.8-.43-3.76-1.29Zm9.19-3.87v-2.94l-4.9,.56c-.92,.11-1.62,.41-2.11,.9-.49,.49-.74,1.08-.74,1.78,0,.74,.24,1.3,.74,1.68,.49,.38,1.13,.57,1.91,.57,1.7,0,3.4-.85,5.1-2.55Z"/>
        <path class="cls-2" d="M228.93,23.13c-1.24-.71-2.22-1.71-2.93-2.99-.71-1.29-1.06-2.77-1.06-4.45s.35-3.16,1.06-4.45c.71-1.29,1.68-2.28,2.93-2.99s2.64-1.06,4.19-1.06c2.11,0,3.86,.55,5.23,1.65s2.2,2.63,2.49,4.59h-2.71c-.26-1.15-.82-2.05-1.67-2.68-.85-.63-1.95-.95-3.3-.95-1.57,0-2.85,.53-3.84,1.59-.99,1.06-1.49,2.49-1.49,4.3s.5,3.24,1.49,4.3c.99,1.06,2.27,1.59,3.84,1.59,1.35,0,2.45-.32,3.3-.95,.85-.63,1.41-1.53,1.67-2.68h2.71c-.28,1.96-1.11,3.49-2.49,4.59s-3.12,1.65-5.23,1.65c-1.55,0-2.94-.35-4.19-1.06Z"/>
        <path class="cls-2" d="M244.35,4.46c-.38-.38-.57-.84-.57-1.39s.19-1.01,.57-1.39,.84-.57,1.39-.57,1.01,.19,1.39,.57c.38,.38,.57,.85,.57,1.39s-.19,1.01-.57,1.39-.85,.57-1.39,.57-1.01-.19-1.39-.57Zm-.05,3.06h2.88V23.87h-2.88V7.52Z"/>
        <path class="cls-2" d="M254.68,23.1c-1.27-.73-2.27-1.74-2.98-3.04-.71-1.3-1.06-2.75-1.06-4.37s.35-3.07,1.06-4.37c.71-1.3,1.7-2.31,2.98-3.04,1.28-.73,2.73-1.1,4.37-1.1s3.09,.37,4.37,1.1c1.27,.73,2.27,1.74,2.98,3.04,.71,1.3,1.06,2.75,1.06,4.37s-.35,3.07-1.06,4.37c-.71,1.3-1.7,2.31-2.98,3.04-1.28,.73-2.73,1.1-4.37,1.1s-3.09-.37-4.37-1.1Zm8.34-3.06c1.03-1.03,1.55-2.47,1.55-4.35s-.52-3.32-1.55-4.35c-1.04-1.03-2.36-1.54-3.97-1.54s-2.94,.51-3.97,1.54c-1.04,1.02-1.55,2.47-1.55,4.35s.52,3.32,1.55,4.35c1.04,1.02,2.36,1.54,3.97,1.54s2.94-.51,3.97-1.54Zm-3.29-19.06h3.76l-3.47,4.35h-2.91l2.62-4.35Z"/>
        <path class="cls-2" d="M270.92,7.52h2.88v2.13c.63-.68,1.46-1.25,2.48-1.73,1.03-.48,2.1-.72,3.24-.72,1.72,0,3.05,.48,3.99,1.44,.94,.96,1.41,2.28,1.41,3.96v11.28h-2.88V13.11c0-1.09-.29-1.92-.87-2.5s-1.4-.87-2.47-.87c-.94,0-1.83,.28-2.66,.85-.84,.57-1.59,1.33-2.24,2.29v10.99h-2.88V7.52Z"/>
      </g>
      <g>
        <path class="cls-2" d="M194.34,128.79h2.88v1.8c.57-.59,1.29-1.09,2.16-1.5,.87-.41,1.88-.62,3.04-.62,1.35,0,2.6,.35,3.74,1.05s2.05,1.69,2.73,2.98c.68,1.29,1.01,2.78,1.01,4.48s-.32,3.19-.95,4.48-1.52,2.28-2.65,2.98c-1.13,.7-2.41,1.05-3.83,1.05-1.05,0-2.03-.18-2.96-.54-.93-.36-1.69-.87-2.3-1.52v8.27h-2.88v-22.89Zm11.26,12.59c.95-.98,1.42-2.45,1.42-4.41s-.47-3.43-1.42-4.41c-.95-.98-2.16-1.47-3.65-1.47-.85,0-1.64,.2-2.37,.59s-1.31,.92-1.73,1.57c-.43,.65-.64,1.36-.64,2.13v3.14c0,.76,.22,1.48,.65,2.14s1.01,1.2,1.73,1.6c.72,.4,1.5,.61,2.35,.61,1.48,0,2.7-.49,3.65-1.47Z"/>
        <path class="cls-2" d="M214.02,144.18c-.96-.86-1.44-2.01-1.44-3.45,0-1.53,.52-2.72,1.57-3.6,1.05-.87,2.37-1.38,3.96-1.54l5.1-.52v-1.11c0-.94-.33-1.65-1-2.14-.67-.49-1.54-.74-2.63-.74-.92,0-1.68,.22-2.3,.65s-1.04,1.1-1.26,1.99h-2.71c.24-1.72,.98-3.03,2.21-3.92,1.23-.89,2.65-1.34,4.27-1.34,1.92,0,3.45,.47,4.59,1.42,1.14,.95,1.72,2.2,1.72,3.74v7.65c0,.55,.12,.96,.36,1.26s.6,.44,1.08,.44c.28,0,.57-.04,.85-.13v2.16c-.65,.22-1.26,.33-1.83,.33-1.77,0-2.84-.85-3.24-2.55-.63,.72-1.45,1.35-2.45,1.88-1,.53-2.03,.8-3.07,.8-1.55,0-2.8-.43-3.76-1.29Zm9.19-3.87v-2.94l-4.9,.56c-.92,.11-1.62,.41-2.11,.9-.49,.49-.74,1.08-.74,1.78,0,.74,.24,1.3,.74,1.68,.49,.38,1.13,.57,1.91,.57,1.7,0,3.4-.85,5.1-2.55Z"/>
        <path class="cls-2" d="M231.52,128.79h2.88v2.13c.63-.72,1.35-1.31,2.16-1.77,.81-.46,1.69-.69,2.65-.69,.57,0,1,.09,1.31,.26l-.46,2.39c-.26-.07-.61-.1-1.05-.1-.92,0-1.78,.27-2.58,.82s-1.48,1.32-2.03,2.32v10.99h-2.88v-16.35Z"/>
        <path class="cls-2" d="M243.06,144.18c-.96-.86-1.44-2.01-1.44-3.45,0-1.53,.52-2.72,1.57-3.6,1.05-.87,2.37-1.38,3.96-1.54l5.1-.52v-1.11c0-.94-.33-1.65-1-2.14-.67-.49-1.54-.74-2.63-.74-.92,0-1.68,.22-2.3,.65s-1.04,1.1-1.26,1.99h-2.71c.24-1.72,.98-3.03,2.21-3.92,1.23-.89,2.65-1.34,4.27-1.34,1.92,0,3.45,.47,4.59,1.42,1.14,.95,1.72,2.2,1.72,3.74v7.65c0,.55,.12,.96,.36,1.26s.6,.44,1.08,.44c.28,0,.57-.04,.85-.13v2.16c-.65,.22-1.26,.33-1.83,.33-1.77,0-2.84-.85-3.24-2.55-.63,.72-1.45,1.35-2.45,1.88-1,.53-2.03,.8-3.07,.8-1.55,0-2.8-.43-3.76-1.29Zm9.19-3.87v-2.94l-4.9,.56c-.92,.11-1.62,.41-2.11,.9-.49,.49-.74,1.08-.74,1.78,0,.74,.24,1.3,.74,1.68,.49,.38,1.13,.57,1.91,.57,1.7,0,3.4-.85,5.1-2.55Z"/>
        <path class="cls-2" d="M270.34,144.41c-.71-.71-1.06-1.73-1.06-3.06v-9.94h-3.24v-2.62h3.24v-4.9l2.88,1.05v3.86h3.92v2.62h-3.92v9.74c0,.57,.17,1,.51,1.31s.84,.46,1.52,.46c.41,0,.78-.03,1.1-.08,.32-.05,.53-.09,.64-.11v2.42c-.85,.22-1.72,.33-2.62,.33-1.27,0-2.25-.35-2.96-1.06Z"/>
        <path class="cls-2" d="M282.21,144.38c-1.27-.73-2.27-1.74-2.98-3.04-.71-1.3-1.06-2.75-1.06-4.37s.35-3.07,1.06-4.37c.71-1.3,1.7-2.31,2.98-3.04,1.28-.73,2.73-1.1,4.37-1.1s3.09,.37,4.37,1.1c1.27,.73,2.27,1.74,2.98,3.04,.71,1.3,1.06,2.75,1.06,4.37s-.35,3.07-1.06,4.37c-.71,1.3-1.7,2.31-2.98,3.04-1.28,.73-2.73,1.1-4.37,1.1s-3.09-.37-4.37-1.1Zm8.34-3.06c1.03-1.03,1.55-2.47,1.55-4.35s-.52-3.32-1.55-4.35c-1.04-1.03-2.36-1.54-3.97-1.54s-2.94,.51-3.97,1.54c-1.04,1.02-1.55,2.47-1.55,4.35s.52,3.32,1.55,4.35c1.04,1.02,2.36,1.54,3.97,1.54s2.94-.51,3.97-1.54Z"/>
        <path class="cls-2" d="M301.34,144.42c-1.14-.7-2.06-1.69-2.73-2.98-.68-1.29-1.01-2.78-1.01-4.48s.32-3.19,.95-4.48c.63-1.29,1.52-2.28,2.65-2.98,1.13-.7,2.41-1.05,3.83-1.05,1.05,0,2.03,.18,2.96,.54,.93,.36,1.69,.87,2.3,1.52v-9.25h2.88v23.87h-2.88v-1.8c-.57,.59-1.29,1.09-2.16,1.5-.87,.41-1.89,.62-3.04,.62-1.35,0-2.6-.35-3.74-1.05Zm6.57-2.16c.73-.39,1.31-.92,1.73-1.57,.43-.65,.64-1.36,.64-2.13v-3.14c0-.76-.22-1.48-.65-2.14-.44-.66-1.01-1.2-1.73-1.6-.72-.4-1.5-.61-2.35-.61-1.48,0-2.7,.49-3.65,1.47-.95,.98-1.42,2.45-1.42,4.41s.47,3.43,1.42,4.41c.95,.98,2.16,1.47,3.65,1.47,.85,0,1.64-.2,2.37-.59Z"/>
        <path class="cls-2" d="M320.66,144.38c-1.27-.73-2.27-1.74-2.98-3.04-.71-1.3-1.06-2.75-1.06-4.37s.35-3.07,1.06-4.37c.71-1.3,1.7-2.31,2.98-3.04,1.28-.73,2.73-1.1,4.37-1.1s3.09,.37,4.37,1.1c1.27,.73,2.27,1.74,2.98,3.04,.71,1.3,1.06,2.75,1.06,4.37s-.35,3.07-1.06,4.37c-.71,1.3-1.7,2.31-2.98,3.04-1.28,.73-2.73,1.1-4.37,1.1s-3.09-.37-4.37-1.1Zm8.34-3.06c1.03-1.03,1.55-2.47,1.55-4.35s-.52-3.32-1.55-4.35c-1.04-1.03-2.36-1.54-3.97-1.54s-2.94,.51-3.97,1.54c-1.04,1.02-1.55,2.47-1.55,4.35s.52,3.32,1.55,4.35c1.04,1.02,2.36,1.54,3.97,1.54s2.94-.51,3.97-1.54Z"/>
        <path class="cls-2" d="M337.82,144.03c-1.2-.96-1.88-2.29-2.03-3.99h2.71c.24,.89,.67,1.59,1.29,2.08,.62,.49,1.55,.74,2.8,.74,.92,0,1.69-.21,2.34-.62s.96-.98,.96-1.7-.35-1.25-1.06-1.67c-.71-.41-1.92-.84-3.65-1.27-1.66-.41-2.87-.99-3.65-1.73-.77-.74-1.16-1.73-1.16-2.98,0-.78,.23-1.52,.7-2.19,.47-.68,1.12-1.22,1.96-1.62,.84-.4,1.79-.61,2.86-.61,1.77,0,3.19,.45,4.28,1.34,1.09,.89,1.71,2.17,1.86,3.83h-2.84c-.11-.87-.46-1.54-1.05-1.99-.59-.46-1.34-.69-2.26-.69-.72,0-1.36,.16-1.93,.47-.57,.32-.85,.78-.85,1.39s.33,1.07,.98,1.46c.65,.38,1.76,.78,3.3,1.19,1.81,.48,3.14,1.08,4.01,1.8,.86,.72,1.29,1.69,1.29,2.91,0,1-.26,1.91-.77,2.71-.51,.81-1.24,1.44-2.17,1.9s-2.02,.69-3.24,.69c-1.94,0-3.51-.48-4.71-1.44Z"/>
        <path class="cls-2" d="M364.01,144.42l-6.47-15.63h3.01l4.38,10.43,.42,1.99,4.77-12.43h2.91l-9.09,22.89h-2.84l2.91-7.26Z"/>
        <path class="cls-2" d="M385.7,144.41c-.71-.71-1.06-1.73-1.06-3.06v-9.94h-3.24v-2.62h3.24v-4.9l2.88,1.05v3.86h3.92v2.62h-3.92v9.74c0,.57,.17,1,.51,1.31s.84,.46,1.52,.46c.41,0,.78-.03,1.1-.08,.32-.05,.53-.09,.64-.11v2.42c-.85,.22-1.72,.33-2.62,.33-1.27,0-2.25-.35-2.96-1.06Z"/>
        <path class="cls-2" d="M397.57,144.38c-1.27-.73-2.27-1.74-2.98-3.04-.71-1.3-1.06-2.75-1.06-4.37s.35-3.07,1.06-4.37c.71-1.3,1.7-2.31,2.98-3.04,1.28-.73,2.73-1.1,4.37-1.1s3.09,.37,4.37,1.1c1.27,.73,2.27,1.74,2.98,3.04,.71,1.3,1.06,2.75,1.06,4.37s-.35,3.07-1.06,4.37c-.71,1.3-1.7,2.31-2.98,3.04-1.28,.73-2.73,1.1-4.37,1.1s-3.09-.37-4.37-1.1Zm8.34-3.06c1.03-1.03,1.55-2.47,1.55-4.35s-.52-3.32-1.55-4.35c-1.04-1.03-2.36-1.54-3.97-1.54s-2.94,.51-3.97,1.54c-1.04,1.02-1.55,2.47-1.55,4.35s.52,3.32,1.55,4.35c1.04,1.02,2.36,1.54,3.97,1.54s2.94-.51,3.97-1.54Z"/>
        <path class="cls-2" d="M416.7,144.42c-1.14-.7-2.06-1.69-2.73-2.98-.68-1.29-1.01-2.78-1.01-4.48s.32-3.19,.95-4.48c.63-1.29,1.52-2.28,2.65-2.98,1.13-.7,2.41-1.05,3.83-1.05,1.05,0,2.03,.18,2.96,.54,.93,.36,1.69,.87,2.3,1.52v-9.25h2.88v23.87h-2.88v-1.8c-.57,.59-1.29,1.09-2.16,1.5-.87,.41-1.89,.62-3.04,.62-1.35,0-2.6-.35-3.74-1.05Zm6.57-2.16c.73-.39,1.31-.92,1.73-1.57,.43-.65,.64-1.36,.64-2.13v-3.14c0-.76-.22-1.48-.65-2.14-.44-.66-1.01-1.2-1.73-1.6-.72-.4-1.5-.61-2.35-.61-1.48,0-2.7,.49-3.65,1.47-.95,.98-1.42,2.45-1.42,4.41s.47,3.43,1.42,4.41c.95,.98,2.16,1.47,3.65,1.47,.85,0,1.64-.2,2.37-.59Z"/>
        <path class="cls-2" d="M433.49,144.18c-.96-.86-1.44-2.01-1.44-3.45,0-1.53,.52-2.72,1.57-3.6,1.05-.87,2.37-1.38,3.96-1.54l5.1-.52v-1.11c0-.94-.33-1.65-1-2.14-.67-.49-1.54-.74-2.63-.74-.92,0-1.68,.22-2.3,.65s-1.04,1.1-1.26,1.99h-2.71c.24-1.72,.98-3.03,2.21-3.92,1.23-.89,2.65-1.34,4.27-1.34,1.92,0,3.45,.47,4.59,1.42,1.14,.95,1.72,2.2,1.72,3.74v7.65c0,.55,.12,.96,.36,1.26s.6,.44,1.08,.44c.28,0,.57-.04,.85-.13v2.16c-.65,.22-1.26,.33-1.83,.33-1.77,0-2.84-.85-3.24-2.55-.63,.72-1.45,1.35-2.45,1.88-1,.53-2.03,.8-3.07,.8-1.55,0-2.8-.43-3.76-1.29Zm9.19-3.87v-2.94l-4.9,.56c-.92,.11-1.62,.41-2.11,.9-.49,.49-.74,1.08-.74,1.78,0,.74,.24,1.3,.74,1.68,.49,.38,1.13,.57,1.91,.57,1.7,0,3.4-.85,5.1-2.55Z"/>
        <path class="cls-2" d="M451.57,144.03c-1.2-.96-1.88-2.29-2.03-3.99h2.71c.24,.89,.67,1.59,1.29,2.08,.62,.49,1.55,.74,2.8,.74,.92,0,1.69-.21,2.34-.62s.96-.98,.96-1.7-.35-1.25-1.06-1.67c-.71-.41-1.92-.84-3.65-1.27-1.66-.41-2.87-.99-3.65-1.73-.77-.74-1.16-1.73-1.16-2.98,0-.78,.23-1.52,.7-2.19,.47-.68,1.12-1.22,1.96-1.62,.84-.4,1.79-.61,2.86-.61,1.77,0,3.19,.45,4.28,1.34,1.09,.89,1.71,2.17,1.86,3.83h-2.84c-.11-.87-.46-1.54-1.05-1.99-.59-.46-1.34-.69-2.26-.69-.72,0-1.36,.16-1.93,.47-.57,.32-.85,.78-.85,1.39s.33,1.07,.98,1.46c.65,.38,1.76,.78,3.3,1.19,1.81,.48,3.14,1.08,4.01,1.8,.86,.72,1.29,1.69,1.29,2.91,0,1-.26,1.91-.77,2.71-.51,.81-1.24,1.44-2.17,1.9s-2.02,.69-3.24,.69c-1.94,0-3.51-.48-4.71-1.44Z"/>
      </g>
      <path class="cls-1" d="M40.75,38.59l28.81,71.53,7.34,2.41v1.53h-29.58v-1.53l8.65-2.41-7.67-20.05H20.7l-7.78,20.05,8.54,2.41v1.53H0v-1.53l7.34-2.41L36.04,39.46l4.71-.88Zm-6.24,15.88l-12.27,31.88h24.76l-12.05-31.88h-.44Z"/>
      <path class="cls-1" d="M220.92,102.67c-3.83,6.46-9.86,12.49-20.59,12.49-15.23,0-24.97-9.86-24.97-29.14,0-17.31,11.06-28.59,24.54-28.59,14.24,0,21.47,10.08,21.47,24.1v4.27l-34.72-.33v.44c0,16.76,6.9,22.89,15.66,22.89s12.92-3.5,17.2-7.45l1.42,1.31Zm-34.18-20.16l23.66-.99v-2.08c0-11.39-3.83-18.62-10.95-18.62s-12.05,8.43-12.71,21.69Z"/>
      <path class="cls-1" d="M229.68,107.49c0-5.37-1.1-9.53-1.1-9.53l2.3-.99s5.15,3.94,7.78,12.16c3.72,1.75,7.45,2.52,10.62,2.52,6.9,0,10.84-4.05,10.84-11.06,0-3.61-1.86-7.12-7.23-8.98l-10.3-3.4c-7.45-2.41-11.5-7.89-11.5-14.68,0-11.94,10.73-16.1,19.72-16.1s13.03,2.52,17.09,2.52v3.83c0,4.16,1.1,7.34,1.1,7.34l-1.75,1.1s-5.7-2.96-8.32-9.97c-2.41-.99-5.04-1.42-8.22-1.42-5.48,0-9.64,3.18-9.64,8.87,0,4.27,2.41,7.34,6.9,8.87l9.75,3.29c9.53,3.18,13.03,9.2,13.03,15.23,0,11.5-8.76,18.07-21.03,18.07-7.45,0-14.02-1.64-20.05-4.38v-3.29Z"/>
      <path class="cls-1" d="M297.38,110.01l7.67,2.41v1.64h-26.73v-1.64l7.67-2.41v-45.02l-7.78-1.31v-1.75l17.85-4.49h1.31v52.58Zm-6.13-75.47c4.16,0,7.01,2.96,7.01,6.68s-2.85,6.57-7.01,6.57-6.9-2.96-6.9-6.57,2.85-6.68,6.9-6.68Z"/>
      <path class="cls-1" d="M327.94,65.42c2.96-3.61,8.87-8,16.43-8,13.58,0,22.13,9.31,22.13,27.93s-10.52,29.79-25.74,29.79c-7.78,0-13.03-2.3-15.88-4.05l-6.9,4.16-1.42-1.1V40.12l-7.78-1.31v-1.75l17.85-3.4h1.31v31.77Zm0,3.29v36.59c2.63,2.96,6.57,6.13,12.16,6.13,10.74,0,14.35-9.53,14.35-25.3,0-17.09-6.03-22.24-15.12-22.24-3.83,0-8,1.64-11.39,4.82Z"/>
      <path class="cls-1" d="M392.68,110.01l7.67,2.41v1.64h-26.73v-1.64l7.67-2.41V40.12l-7.78-1.31v-1.75l17.85-3.4h1.31V110.01Z"/>
      <path class="cls-1" d="M452.7,102.67c-3.83,6.46-9.86,12.49-20.59,12.49-15.23,0-24.97-9.86-24.97-29.14,0-17.31,11.06-28.59,24.54-28.59,14.24,0,21.47,10.08,21.47,24.1v4.27l-34.72-.33v.44c0,16.76,6.9,22.89,15.66,22.89s12.92-3.5,17.2-7.45l1.42,1.31Zm-34.18-20.16l23.66-.99v-2.08c0-11.39-3.83-18.62-10.95-18.62s-12.05,8.43-12.71,21.69Z"/>
      <g>
        <path class="cls-1" d="M107.11,62.58c-1.68-1.23-3.92-2.02-6.61-2.02-10.42,0-15.79,8.96-15.79,25.2s8.06,23.18,16.8,23.18c6.83,0,11.87-3.14,17.25-7.62l1.68,1.46c-3.47,6.61-10.19,12.88-21.06,12.88-15.9,0-26.43-9.74-26.43-29.01s13.44-30.02,28.11-30.02c7.39,0,14.45,2.8,18.03,6.5-.34,7.39-3.7,11.87-3.7,11.87h-5.82s-.22-7.5-2.46-12.43Z"/>
        <path class="cls-1" d="M158.8,62.58c-1.68-1.23-3.92-2.02-6.61-2.02-10.42,0-15.79,8.96-15.79,25.2s8.06,23.18,16.8,23.18c6.83,0,11.87-3.14,17.25-7.62l1.68,1.46c-3.47,6.61-10.19,12.88-21.06,12.88-15.9,0-26.43-9.74-26.43-29.01s13.44-30.02,28.11-30.02c7.39,0,14.45,2.8,18.03,6.5-.34,7.39-3.7,11.87-3.7,11.87h-5.82s-.22-7.5-2.46-12.43Z"/>
      </g>
    </g>
  </g>
</svg>