<?xml version="1.0" encoding="UTF-8"?>
<svg id="Capa_2" data-name="Capa 2" xmlns="http://www.w3.org/2000/svg" viewBox="0 0 62.71 63.23">
  <defs>
    <style>
      .cls-1 {
        fill: #ff5100;
      }

      .cls-2 {
        fill: #fcf8f8;
      }
    </style>
  </defs>
  <g id="Capa_1-2" data-name="Capa 1">
    <g>
      <path class="cls-1" d="M55.39,60.15H7.33c-4.04,0-7.33-3.29-7.33-7.33V14.65c0-4.04,3.29-7.33,7.33-7.33H55.39c4.04,0,7.33,3.29,7.33,7.33V52.82c0,4.04-3.29,7.33-7.33,7.33ZM7.33,9.41c-2.89,0-5.23,2.35-5.23,5.23V52.82c0,2.89,2.35,5.23,5.23,5.23H55.39c2.89,0,5.23-2.35,5.23-5.23V14.65c0-2.89-2.35-5.23-5.23-5.23H7.33Z"/>
      <g>
        <rect class="cls-2" x="12.2" y="1.05" width="5.5" height="13.72" rx="2.43" ry="2.43"/>
        <path class="cls-1" d="M14.95,15.81c-2.09,0-3.8-1.7-3.8-3.8V3.8c0-2.09,1.7-3.8,3.8-3.8s3.8,1.7,3.8,3.8V12.01c0,2.09-1.7,3.8-3.8,3.8Zm0-13.72c-.94,0-1.7,.76-1.7,1.7V12.01c0,.94,.76,1.7,1.7,1.7s1.7-.76,1.7-1.7V3.8c0-.94-.76-1.7-1.7-1.7Z"/>
      </g>
      <g>
        <rect class="cls-2" x="28.47" y="1.05" width="5.5" height="13.72" rx="2.43" ry="2.43"/>
        <path class="cls-1" d="M31.22,15.81c-2.09,0-3.8-1.7-3.8-3.8V3.8c0-2.09,1.7-3.8,3.8-3.8s3.8,1.7,3.8,3.8V12.01c0,2.09-1.7,3.8-3.8,3.8Zm0-13.72c-.94,0-1.7,.76-1.7,1.7V12.01c0,.94,.76,1.7,1.7,1.7s1.7-.76,1.7-1.7V3.8c0-.94-.76-1.7-1.7-1.7Z"/>
      </g>
      <g>
        <rect class="cls-2" x="44.81" y="1.05" width="5.5" height="13.72" rx="2.43" ry="2.43"/>
        <path class="cls-1" d="M47.56,15.81c-2.09,0-3.8-1.7-3.8-3.8V3.8c0-2.09,1.7-3.8,3.8-3.8s3.8,1.7,3.8,3.8V12.01c0,2.09-1.7,3.8-3.8,3.8Zm0-13.72c-.94,0-1.7,.76-1.7,1.7V12.01c0,.94,.76,1.7,1.7,1.7s1.7-.76,1.7-1.7V3.8c0-.94-.76-1.7-1.7-1.7Z"/>
      </g>
      <rect class="cls-1" x="30.31" y="-9.16" width="2.09" height="60.62" transform="translate(10.11 52.44) rotate(-89.81)"/>
      <path class="cls-1" d="M12.88,34.87h-1.38c-2.26,0-4.09-1.84-4.09-4.09s1.84-4.09,4.09-4.09h1.38c2.26,0,4.09,1.84,4.09,4.09s-1.84,4.09-4.09,4.09Zm-1.38-6.09c-1.1,0-2,.9-2,2s.9,2,2,2h1.38c1.1,0,2-.9,2-2s-.9-2-2-2h-1.38Z"/>
      <path class="cls-1" d="M12.88,44.77h-1.38c-2.26,0-4.09-1.84-4.09-4.09s1.84-4.09,4.09-4.09h1.38c2.26,0,4.09,1.84,4.09,4.09s-1.84,4.09-4.09,4.09Zm-1.38-6.09c-1.1,0-2,.9-2,2s.9,2,2,2h1.38c1.1,0,2-.9,2-2s-.9-2-2-2h-1.38Z"/>
      <path class="cls-1" d="M12.88,54.41h-1.38c-2.26,0-4.09-1.84-4.09-4.09s1.84-4.09,4.09-4.09h1.38c2.26,0,4.09,1.84,4.09,4.09s-1.84,4.09-4.09,4.09Zm-1.38-6.09c-1.1,0-2,.9-2,2s.9,2,2,2h1.38c1.1,0,2-.9,2-2s-.9-2-2-2h-1.38Z"/>
      <path class="cls-1" d="M25.43,34.87h-1.38c-2.26,0-4.09-1.84-4.09-4.09s1.84-4.09,4.09-4.09h1.38c2.26,0,4.09,1.84,4.09,4.09s-1.84,4.09-4.09,4.09Zm-1.38-6.09c-1.1,0-2,.9-2,2s.9,2,2,2h1.38c1.1,0,2-.9,2-2s-.9-2-2-2h-1.38Z"/>
      <path class="cls-1" d="M25.43,44.77h-1.38c-2.26,0-4.09-1.84-4.09-4.09s1.84-4.09,4.09-4.09h1.38c2.26,0,4.09,1.84,4.09,4.09s-1.84,4.09-4.09,4.09Zm-1.38-6.09c-1.1,0-2,.9-2,2s.9,2,2,2h1.38c1.1,0,2-.9,2-2s-.9-2-2-2h-1.38Z"/>
      <path class="cls-1" d="M38.39,34.87h-1.38c-2.26,0-4.09-1.84-4.09-4.09s1.84-4.09,4.09-4.09h1.38c2.26,0,4.09,1.84,4.09,4.09s-1.84,4.09-4.09,4.09Zm-1.38-6.09c-1.1,0-2,.9-2,2s.9,2,2,2h1.38c1.1,0,2-.9,2-2s-.9-2-2-2h-1.38Z"/>
      <path class="cls-1" d="M51,34.87h-1.38c-2.26,0-4.09-1.84-4.09-4.09s1.84-4.09,4.09-4.09h1.38c2.26,0,4.09,1.84,4.09,4.09s-1.84,4.09-4.09,4.09Zm-1.38-6.09c-1.1,0-2,.9-2,2s.9,2,2,2h1.38c1.1,0,2-.9,2-2s-.9-2-2-2h-1.38Z"/>
      <path class="cls-1" d="M38.39,44.77h-1.38c-2.26,0-4.09-1.84-4.09-4.09s1.84-4.09,4.09-4.09h1.38c2.26,0,4.09,1.84,4.09,4.09s-1.84,4.09-4.09,4.09Zm-1.38-6.09c-1.1,0-2,.9-2,2s.9,2,2,2h1.38c1.1,0,2-.9,2-2s-.9-2-2-2h-1.38Z"/>
      <path class="cls-1" d="M25.43,54.41h-1.38c-2.26,0-4.09-1.84-4.09-4.09s1.84-4.09,4.09-4.09h1.38c2.26,0,4.09,1.84,4.09,4.09s-1.84,4.09-4.09,4.09Zm-1.38-6.09c-1.1,0-2,.9-2,2s.9,2,2,2h1.38c1.1,0,2-.9,2-2s-.9-2-2-2h-1.38Z"/>
      <g>
        <circle class="cls-2" cx="49.39" cy="49.91" r="12.28"/>
        <path class="cls-1" d="M49.39,63.23c-7.35,0-13.33-5.98-13.33-13.33s5.98-13.33,13.33-13.33,13.33,5.98,13.33,13.33-5.98,13.33-13.33,13.33Zm0-24.56c-6.19,0-11.23,5.04-11.23,11.23s5.04,11.23,11.23,11.23,11.23-5.04,11.23-11.23-5.04-11.23-11.23-11.23Z"/>
      </g>
      <g>
        <polyline class="cls-2" points="43.73 51.62 48.08 54.92 56.79 45.9"/>
        <path class="cls-1" d="M48.08,55.96c-.22,0-.44-.07-.63-.21l-4.36-3.3c-.46-.35-.55-1.01-.2-1.47,.35-.46,1-.55,1.47-.2l3.62,2.74,8.07-8.35c.4-.42,1.06-.43,1.48-.03,.42,.4,.43,1.06,.03,1.48l-8.71,9.02c-.2,.21-.48,.32-.75,.32Z"/>
      </g>
    </g>
  </g>
</svg>