<?xml version="1.0" encoding="UTF-8"?>
<svg width="56px" height="56px" viewBox="0 0 56 56" version="1.1" xmlns="http://www.w3.org/2000/svg" xmlns:xlink="http://www.w3.org/1999/xlink">
    <title>Group 10</title>
    <defs>
        <filter id="filter-1">
            <feColorMatrix in="SourceGraphic" type="matrix" values="0 0 0 0 1.000000 0 0 0 0 1.000000 0 0 0 0 1.000000 0 0 0 1.000000 0"></feColorMatrix>
        </filter>
        <polygon id="path-2" points="8.1e-05 0 14.18229 0 14.18229 27.164889 8.1e-05 27.164889"></polygon>
    </defs>
    <g id="Page-1" stroke="none" stroke-width="1" fill="none" fill-rule="evenodd">
        <g id="HOME" transform="translate(-1057.000000, -7196.000000)">
            <g id="FOOTER" transform="translate(0.000000, 6958.000000)">
                <g id="Group-10" transform="translate(1057.000000, 238.000000)">
                    <path d="M15.8328721,6.74168534 L6.74046756,15.8357326 C-2.24682252,24.8246464 -2.24682252,39.3856354 6.74046756,48.3482658 C15.7277576,57.3106334 30.2861164,57.3371796 39.2471279,48.3482658 L48.3395324,39.2542185 C57.3268225,30.2915881 57.3268225,15.7305991 48.3395324,6.74168534 C39.3522424,-2.24722845 24.7938836,-2.24722845 15.8328721,6.74168534 Z" id="Fill-38" fill="#E65014"></path>
                    <g filter="url(#filter-1)" id="Group-3">
                        <g transform="translate(20.250000, 12.150000)">
                            <mask id="mask-3" fill="white">
                                <use xlink:href="#path-2"></use>
                            </mask>
                            <g id="Clip-2"></g>
                            <path d="M11.309301,4.584519 C12.150891,4.556169 12.990861,4.578039 13.835691,4.577229 L14.182371,4.577229 L14.182371,0.199179 C13.732011,0.153819 13.262211,0.089829 12.792411,0.066339 C11.928951,0.028269 11.064681,-0.014661 10.199601,0.004779 C8.880921,0.032319 7.631901,0.354699 6.542451,1.135539 C5.291811,2.036259 4.605741,3.298239 4.343301,4.790259 C4.235571,5.405859 4.208031,6.042519 4.191021,6.669459 C4.167531,7.651989 4.187781,8.632899 4.187781,9.616239 L4.187781,9.984789 L8.1e-05,9.984789 L8.1e-05,14.873949 L4.164291,14.873949 L4.164291,27.164889 L9.252711,27.164889 L9.252711,14.895009 L13.403151,14.895009 C13.616991,13.267719 13.823541,11.657439 14.043051,9.981549 C13.708521,9.981549 13.408011,9.980739 13.109931,9.981549 C11.928951,9.986409 9.218691,9.981549 9.218691,9.981549 C9.218691,9.981549 9.230841,7.558029 9.260001,6.506649 C9.300501,5.065659 10.155051,4.625829 11.309301,4.584519" id="Fill-1" fill="#1D1D1D" mask="url(#mask-3)"></path>
                        </g>
                    </g>
                </g>
            </g>
        </g>
    </g>
</svg>