<?xml version="1.0" encoding="UTF-8"?>
<svg width="57px" height="56px" viewBox="0 0 57 56" version="1.1" xmlns="http://www.w3.org/2000/svg" xmlns:xlink="http://www.w3.org/1999/xlink">
    <title>Group 13</title>
    <defs>
        <filter id="filter-1">
            <feColorMatrix in="SourceGraphic" type="matrix" values="0 0 0 0 1.000000 0 0 0 0 1.000000 0 0 0 0 1.000000 0 0 0 1.000000 0"></feColorMatrix>
        </filter>
        <polygon id="path-2" points="0.020655 0.585873 16.3215 0.585873 16.3215 17.82 0.020655 17.82"></polygon>
    </defs>
    <g id="Page-1" stroke="none" stroke-width="1" fill="none" fill-rule="evenodd">
        <g id="HOME" transform="translate(-1256.000000, -7196.000000)">
            <g id="FOOTER" transform="translate(0.000000, 6958.000000)">
                <g id="Group-4" transform="translate(1057.000000, 238.000000)">
                    <g id="Group-13" transform="translate(199.260000, 0.000000)">
                        <path d="M15.8328721,6.74168534 L6.74046756,15.8357326 C-2.24682252,24.8246464 -2.24682252,39.3856354 6.74046756,48.3482658 C15.7277576,57.3106334 30.2861164,57.3371796 39.2471279,48.3482658 L48.3395324,39.2542185 C57.3268225,30.2915881 57.3268225,15.7305991 48.3395324,6.74168534 C39.3522424,-2.24722845 24.7938836,-2.24722845 15.8328721,6.74168534 Z" id="Fill-38-Copy-3" fill="#E65014"></path>
                        <g filter="url(#filter-1)" id="Group-6">
                            <g transform="translate(15.390000, 12.150000)">
                                <path d="M3.033612,-0.000162 C4.706262,-0.000162 6.063822,1.358208 6.063822,3.028428 C6.063822,4.701888 4.706262,6.061878 3.033612,6.061878 C1.356102,6.061878 0.000162,4.701888 0.000162,3.028428 C0.000162,1.358208 1.356102,-0.000162 3.033612,-0.000162 L3.033612,-0.000162 Z M0.416502,25.173828 L5.650722,25.173828 L5.650722,8.358228 L0.416502,8.358228 L0.416502,25.173828 Z" id="Fill-1" fill="#1D1D1D"></path>
                                <g id="Group-5" transform="translate(8.910000, 7.353828)">
                                    <mask id="mask-3" fill="white">
                                        <use xlink:href="#path-2"></use>
                                    </mask>
                                    <g id="Clip-4"></g>
                                    <path d="M0.020655,1.004643 L5.033745,1.004643 L5.033745,3.302613 L5.103405,3.302613 C5.801625,1.980693 7.508295,0.585873 10.052505,0.585873 C15.344235,0.585873 16.321905,4.067253 16.321905,8.595963 L16.321905,17.820243 L11.097405,17.820243 L11.097405,9.644103 C11.097405,7.693623 11.058525,5.185053 8.380665,5.185053 C5.659065,5.185053 5.244345,7.307253 5.244345,9.500733 L5.244345,17.820243 L0.020655,17.820243 L0.020655,1.004643 Z" id="Fill-3" fill="#1D1D1D" mask="url(#mask-3)"></path>
                                </g>
                            </g>
                        </g>
                    </g>
                </g>
            </g>
        </g>
    </g>
</svg>