<?xml version="1.0" encoding="UTF-8"?>
<svg id="Capa_2" data-name="Capa 2" xmlns="http://www.w3.org/2000/svg" viewBox="0 0 717.14 183.57">
  <defs>
    <style>
      .cls-1 {
        fill: #fff;
      }

      .cls-2 {
        fill: #e65014;
      }
    </style>
  </defs>
  <g id="Capa_1-2" data-name="Capa 1">
    <g>
      <path class="cls-1" d="M0,119.43H12.21l19.01,31.52,.89,4.22h.52v-35.73h11.32v51.79h-12.21l-19.01-31.51-.89-4.22h-.52v35.73H0v-51.79Z"/>
      <path class="cls-1" d="M61.25,169.44c-3.06-1.68-5.45-3.97-7.18-6.88-1.73-2.91-2.59-6.19-2.59-9.84s.86-6.93,2.59-9.84c1.73-2.91,4.12-5.2,7.18-6.88,3.06-1.68,6.51-2.51,10.36-2.51s7.37,.84,10.43,2.51c3.06,1.68,5.45,3.97,7.18,6.88,1.73,2.91,2.59,6.19,2.59,9.84s-.86,6.93-2.59,9.84c-1.73,2.91-4.12,5.2-7.18,6.88-3.06,1.68-6.54,2.52-10.43,2.52s-7.3-.84-10.36-2.52Zm17.42-9.21c1.85-1.85,2.77-4.35,2.77-7.51s-.92-5.66-2.77-7.51-4.21-2.77-7.07-2.77-5.2,.92-7.03,2.77c-1.83,1.85-2.74,4.35-2.74,7.51s.91,5.66,2.74,7.51c1.82,1.85,4.17,2.77,7.03,2.77s5.22-.92,7.07-2.77Z"/>
      <path class="cls-1" d="M102.09,169.1c-2.76-1.9-4.61-4.57-5.55-8.03l.3-.96,7.92-2.37c.89,4.14,3.55,6.21,7.99,6.21,1.53,0,2.79-.32,3.77-.96,.99-.64,1.48-1.53,1.48-2.66s-.55-2.11-1.67-2.77c-1.11-.67-3.27-1.42-6.47-2.26-3.9-.94-6.83-2.3-8.8-4.11-1.97-1.8-2.96-4.18-2.96-7.14,0-1.97,.55-3.76,1.66-5.36,1.11-1.6,2.67-2.87,4.7-3.81,2.02-.94,4.34-1.41,6.95-1.41,3.9,0,7.09,.85,9.58,2.55,2.49,1.7,4.11,4.11,4.85,7.21l-.44,.81-7.84,1.92c-.35-1.73-1.08-3.04-2.22-3.96-1.14-.91-2.52-1.37-4.14-1.37-1.23,0-2.27,.26-3.11,.78-.84,.52-1.26,1.22-1.26,2.11,0,1.09,.69,1.97,2.07,2.66,1.38,.69,3.9,1.53,7.55,2.52,3.8,1.04,6.6,2.39,8.4,4.07,1.8,1.68,2.7,4,2.7,6.95,0,2.27-.6,4.34-1.81,6.21-1.21,1.88-2.93,3.34-5.18,4.4-2.24,1.06-4.85,1.59-7.8,1.59-4.34,0-7.89-.95-10.65-2.85Z"/>
      <path class="cls-1" d="M153.35,168.33c-2.32-2.42-3.48-5.65-3.48-9.69v-24.41h10.36v22.27c0,2.12,.54,3.75,1.63,4.88,1.08,1.13,2.61,1.7,4.59,1.7,1.78,0,3.4-.5,4.88-1.52,1.48-1.01,2.69-2.35,3.62-4.03v-23.3h10.36v36.99h-10.36v-4.59c-3.3,3.55-7.32,5.33-12.06,5.33-4.04,0-7.23-1.21-9.54-3.62Z"/>
      <path class="cls-1" d="M194.49,134.22h10.36v4.81c3.5-3.7,7.59-5.55,12.28-5.55,4,0,7.13,1.16,9.4,3.48,2.27,2.32,3.4,5.3,3.4,8.95v25.3h-10.36v-22.27c0-2.17-.51-3.81-1.52-4.92-1.01-1.11-2.5-1.67-4.48-1.67-1.73,0-3.38,.53-4.96,1.59-1.58,1.06-2.84,2.38-3.77,3.96v23.3h-10.36v-36.99Z"/>
      <path class="cls-1" d="M246.09,169.55c-2.89-1.6-5.14-3.86-6.77-6.77-1.63-2.91-2.44-6.26-2.44-10.06s.88-7.08,2.63-9.99c1.75-2.91,4.08-5.18,6.99-6.81,2.91-1.63,6.04-2.44,9.4-2.44,3.65,0,6.88,.76,9.69,2.29,2.81,1.53,4.99,3.72,6.55,6.58,1.55,2.86,2.33,6.24,2.33,10.13v2.74h-27.82c.25,2.57,1.22,4.6,2.92,6.1,1.7,1.5,3.88,2.26,6.55,2.26,4.24,0,7.05-1.9,8.43-5.7l8.66,.89,.52,.89c-1.38,4.09-3.59,7.16-6.62,9.21-3.03,2.05-6.77,3.07-11.21,3.07-3.65,0-6.92-.8-9.8-2.4Zm18.61-20.97c-.25-2.22-1.18-4-2.81-5.33-1.63-1.33-3.65-2-6.07-2-2.17,0-4.08,.67-5.73,2-1.65,1.33-2.7,3.11-3.14,5.33h17.75Z"/>
      <path class="cls-2" d="M293.47,134.37l5.47-.96,6.81-10.43h3.55v10.36h9.32v2.74h-9.32v30.26c1.41,1.41,3.18,2.07,5.1,2.07,2.07,0,4.36-1.04,5.92-2.22l1.11,1.41c-3.18,3.03-7.18,4.37-10.88,4.37-4.51,0-8.88-1.7-11.84-4.59v-31.29h-5.25v-1.7Z"/>
      <path class="cls-2" d="M335.56,132.6h2v30.85c.44,.89,2,3.11,5.7,3.11,2.14,0,4.66-.81,6.36-2.22v-26.41l-4.88-.81v-1.41l13.39-3.11h2.14v35.8l4.81,1.63v1.18h-14.28l-.74-4.44h-.37c-2.74,2.88-6.29,5.18-11.47,5.18-7.84,0-10.28-4.81-11.24-7.32v-26.7l-4.81-.81v-1.41l13.39-3.11Z"/>
      <path class="cls-2" d="M399.18,137.63h.3c2.51-2.59,6.51-5.03,11.24-5.03,7.32,0,14.72,4.44,14.72,18.79,0,12.43-7.62,20.57-18.79,20.57-2.96,0-5.33-.52-7.17-1.18v9.99c1.41,.37,4.88,1.33,6.21,1.63v1.18h-22.19v-1.18l5.33-1.63v-42.98c-1.18-.22-4.29-.59-5.4-.81v-1.26l13.32-3.11h2.44v5.03Zm.3,2.59v24.86c1.7,2.07,4.14,3.77,7.17,3.77,5.7,0,7.62-5.47,7.62-16.64s-3.48-14.2-8.66-14.2c-2,0-4.44,.74-6.14,2.22Z"/>
      <path class="cls-2" d="M454.15,144.88s-.37-4.73-1.92-7.1c-3.25,.96-5.62,3.25-6.58,4.07v26.56c1.41,.37,4.88,1.33,6.21,1.63v1.18h-22.19v-1.18l5.33-1.63v-30.63c-1.18-.22-4.29-.59-5.4-.81v-1.26l13.98-3.11h1.78v6.14h.3c2.96-3.85,7.32-6.14,12.06-6.14,1.11,0,2.22,.15,3.33,.37,0,6.66-2.07,11.91-2.07,11.91h-4.81Z"/>
      <path class="cls-2" d="M501.49,152.05c0,12.5-7.92,19.9-19.01,19.9s-18.71-6.95-18.71-19.46,7.92-19.9,19.08-19.9,18.64,6.95,18.64,19.46Zm-11.24,.3c0-11.32-2.74-16.87-7.92-16.87s-7.32,5.55-7.32,16.87,2.74,16.72,8.06,16.72,7.18-5.47,7.18-16.72Z"/>
      <path class="cls-2" d="M520.36,137.63h.3c2.51-2.59,6.51-5.03,11.24-5.03,7.32,0,14.72,4.44,14.72,18.79,0,12.43-7.62,20.57-18.79,20.57-2.96,0-5.33-.52-7.17-1.18v9.99c1.41,.37,4.88,1.33,6.21,1.63v1.18h-22.19v-1.18l5.33-1.63v-42.98c-1.18-.22-4.29-.59-5.4-.81v-1.26l13.32-3.11h2.44v5.03Zm.3,2.59v24.86c1.7,2.07,4.14,3.77,7.17,3.77,5.7,0,7.62-5.47,7.62-16.64s-3.48-14.2-8.66-14.2c-2,0-4.44,.74-6.14,2.22Z"/>
      <path class="cls-2" d="M588.64,152.05c0,12.5-7.92,19.9-19.01,19.9s-18.72-6.95-18.72-19.46,7.92-19.9,19.08-19.9,18.64,6.95,18.64,19.46Zm-11.24,.3c0-11.32-2.74-16.87-7.92-16.87s-7.32,5.55-7.32,16.87,2.74,16.72,8.06,16.72,7.17-5.47,7.17-16.72Zm-1.63-36.1l4.96,5.62-13.61,6.58-.96-.96,8.58-11.24h1.04Z"/>
      <path class="cls-2" d="M593.52,166.48c0-4.14-.81-7.03-.81-7.03l1.55-.67s3.85,2.29,5.99,8.43c2.29,1.18,4.66,1.78,6.81,1.78,4.22,0,6.36-2.44,6.36-6.44,0-2.07-.96-4.22-4.14-5.33l-6.07-2.14c-5.55-1.92-8.66-5.47-8.66-10.95,0-8.29,7.55-11.54,14.06-11.54,5.4,0,9.32,1.7,12.58,1.7v2.96c0,2.88,.81,5.25,.81,5.25l-1.18,.67s-4.07-1.78-6.21-6.73c-1.48-.59-3.18-1.04-5.1-1.04-3.18,0-5.62,1.78-5.62,5.33,0,2.37,1.33,4.22,3.77,5.1l5.62,2.07c6.66,2.37,9.76,5.92,9.76,11.17,0,7.99-6.29,12.87-15.02,12.87-5.25,0-9.99-1.18-14.5-3.18v-2.29Z"/>
      <path class="cls-2" d="M642.57,168.4l4.81,1.63v1.18h-20.27v-1.18l4.81-1.63v-30.48l-4.88-.81v-1.41l13.54-3.11h2v35.8Zm-5.62-51.26c4.07,0,6.07,2.37,6.07,5.4s-2,5.33-6.07,5.33c-3.85,0-5.92-2.37-5.92-5.33s2.07-5.4,5.92-5.4Z"/>
      <path class="cls-2" d="M649.97,134.37l5.47-.96,6.81-10.43h3.55v10.36h9.32v2.74h-9.32v30.26c1.41,1.41,3.18,2.07,5.1,2.07,2.07,0,4.36-1.04,5.92-2.22l1.11,1.41c-3.18,3.03-7.18,4.37-10.88,4.37-4.51,0-8.88-1.7-11.84-4.59v-31.29h-5.25v-1.7Z"/>
      <path class="cls-2" d="M717.14,152.05c0,12.5-7.92,19.9-19.01,19.9s-18.72-6.95-18.72-19.46,7.92-19.9,19.08-19.9,18.64,6.95,18.64,19.46Zm-11.24,.3c0-11.32-2.74-16.87-7.92-16.87s-7.32,5.55-7.32,16.87,2.74,16.72,8.06,16.72,7.17-5.47,7.17-16.72Z"/>
    </g>
    <g>
      <path class="cls-1" d="M173.25,4.46v3.49c0,2.72,.91,6.4,.91,6.4l-1.42,.65s-3.95-2-5.95-8.08c-2.13-.97-4.92-1.62-7.57-1.62-8.67,0-14.23,7.89-14.23,20.7s6.4,19.66,14.23,19.66c2.98,0,4.98-.58,6.47-1.23v-14.1l-3.75-1.42v-.91h13.91v.91l-3.1,1.42v13.97l1.81,.45v.91c-3.3,1.23-8.6,2.46-15.33,2.46-11.9,0-21.99-7.24-21.99-21.67,0-15.46,10.28-23.54,22.64-23.54,4.72,0,10.48,1.55,13.39,1.55Z"/>
      <path class="cls-1" d="M200.29,23.48s-.52-4.2-1.68-5.95c-3.69,.91-6.6,4.27-7.05,4.66v22.9l5.43,1.42v.97h-16.82v-.97l4.66-1.42V18.5l-4.72-.78v-1.04l10.48-2.65h.71v5.95h.26c2.46-3.75,6.21-5.95,10.61-5.95,.91,0,1.88,.06,2.85,.26,0,5.5-1.49,9.18-1.49,9.18h-3.23Z"/>
      <path class="cls-1" d="M233.53,25.1c0,4.59-.19,6.66-.19,17.08,0,2,.97,2.52,2,2.52,1.55,0,3.1-2.13,3.62-3.49l1.1,.65c-1.55,4.53-3.82,6.14-7.12,6.14s-5.43-1.68-6.01-4.46c-2.07,2.2-5.17,4.59-9.31,4.59-4.72,0-9.18-2.13-9.18-8.28v-3.88c4.33-5.04,13.71-7.24,18.5-8.15v-3.36c0-5.5-1.88-8.28-6.4-8.28-1.88,0-3.49,.58-4.53,1.23-1.55,2.65-1.94,7.57-1.94,7.57h-2.85s-1.94-2.33-2.33-5.95c2.2-2.33,6.86-4.98,13.26-4.98s11.38,3.04,11.38,11.06Zm-6.73,16.75c0-3.88,.06-7.96,.13-12.16-3.82,.91-8.41,2.33-11.97,5.11v3.88c0,4.08,2.2,5.89,5.05,5.89,3.3,0,5.89-1.88,6.79-2.72Z"/>
      <path class="cls-1" d="M271.89,0V45.08l4.53,1.23v1.16h-10.28l-.65-4.08h-.32c-1.75,2.13-5.3,4.72-9.7,4.72-8.02,0-13.13-5.37-13.13-16.36s6.27-17.72,15.27-17.72c3.23,0,5.76,.71,7.57,1.42V3.82l-4.59-.78v-1.04l10.48-2h.84Zm-6.73,41.46V19.79c-1.62-1.75-4.01-3.56-7.18-3.56-6.34,0-8.47,5.69-8.47,15.14,0,10.09,3.56,12.94,8.93,12.94,2.26,0,4.66-.91,6.73-2.85Z"/>
      <path class="cls-1" d="M289.93,14.04h.71v27.23c.58,1.16,2.26,3.04,5.82,3.04,2.59,0,5.24-1.04,7.31-2.85V18.5l-4.72-.78v-1.04l10.35-2.65h1.1v31.05l4.53,1.42v.97h-10.09l-.65-4.33h-.32c-2.46,2.72-6.02,4.98-10.35,4.98-5.76,0-8.34-3.17-9.64-6.47V18.5l-4.4-.78v-1.04l10.35-2.65Z"/>
      <path class="cls-1" d="M344.91,25.1c0,4.59-.19,6.66-.19,17.08,0,2,.97,2.52,2,2.52,1.55,0,3.1-2.13,3.62-3.49l1.1,.65c-1.55,4.53-3.82,6.14-7.12,6.14s-5.43-1.68-6.01-4.46c-2.07,2.2-5.17,4.59-9.31,4.59-4.72,0-9.18-2.13-9.18-8.28v-3.88c4.33-5.04,13.71-7.24,18.5-8.15v-3.36c0-5.5-1.88-8.28-6.4-8.28-1.88,0-3.49,.58-4.53,1.23-1.55,2.65-1.94,7.57-1.94,7.57h-2.85s-1.94-2.33-2.33-5.95c2.2-2.33,6.86-4.98,13.26-4.98s11.38,3.04,11.38,11.06Zm-6.73,16.75c0-3.88,.06-7.96,.13-12.16-3.82,.91-8.41,2.33-11.97,5.11v3.88c0,4.08,2.2,5.89,5.04,5.89,3.3,0,5.89-1.88,6.79-2.72Z"/>
      <path class="cls-1" d="M373.43,17.46c-.97-.71-2.26-1.16-3.82-1.16-6.02,0-9.12,5.17-9.12,14.55s4.66,13.39,9.7,13.39c3.95,0,6.86-1.81,9.96-4.4l.97,.84c-2,3.82-5.89,7.44-12.16,7.44-9.19,0-15.27-5.63-15.27-16.75s7.76-17.33,16.24-17.33c4.27,0,8.34,1.62,10.41,3.75-.19,4.27-2.13,6.86-2.13,6.86h-3.36s-.13-4.33-1.42-7.18Z"/>
      <path class="cls-1" d="M395.62,45.08l4.53,1.42v.97h-15.78v-.97l4.53-1.42V18.5l-4.59-.78v-1.04l10.54-2.65h.78v31.05Zm-3.62-44.57c2.46,0,4.14,1.75,4.14,3.95s-1.68,3.88-4.14,3.88-4.08-1.75-4.08-3.88,1.68-3.95,4.08-3.95Z"/>
      <path class="cls-1" d="M435.07,30.92c0,10.8-6.73,17.21-15.52,17.21s-15.39-6.01-15.39-16.82,6.73-17.27,15.59-17.27,15.33,6.02,15.33,16.88Zm-7.24,.19c0-9.77-3.49-15.01-8.73-15.01s-7.7,5.24-7.7,15.01,3.49,14.88,8.8,14.88,7.63-5.11,7.63-14.88ZM424.79,.13l3.62,4.08-11,6.27-.91-.84L424.14,.13h.65Z"/>
      <path class="cls-1" d="M450.47,14.04v4.79h.26c2.39-2.59,6.21-4.79,10.35-4.79,5.17,0,9.77,3.1,9.77,10.93v20.12l4.53,1.42v.97h-15.39v-.97l4.14-1.42V24.26c0-4.33-2.13-6.4-5.95-6.4-2.46,0-5.3,1.03-7.44,2.85v24.38l4.08,1.42v.97h-15.33v-.97l4.53-1.42V18.5l-4.59-.78v-1.04l10.35-2.65h.71Z"/>
      <path class="cls-1" d="M511.91,48.12l-18.11-42.17-4.08-1.42v-.97h19.73v.97l-4.59,1.42,12.22,29.17h.19l10.8-29.17-4.53-1.42v-.97h12.87v.97l-4.2,1.42-16.04,42.17h-4.27Z"/>
      <path class="cls-1" d="M538.17,4.59v-1.04h19.41v1.04l-4.72,1.42V45.02l4.72,1.42v1.04h-19.41v-1.04l4.72-1.42V6.02l-4.72-1.42Z"/>
      <path class="cls-1" d="M597.8,6.02l-4.72-1.42v-1.04h13.45v1.04l-4.72,1.42V38.49c-2.91,6.08-7.89,9.64-17.27,9.64-8.34,0-15.85-3.3-18.56-9.31V6.02l-4.72-1.42v-1.04h19.41v1.04l-4.72,1.42v28.52c0,6.47,3.95,9.96,9.9,9.96,6.99,0,11.97-4.08,11.97-10.41V6.02Z"/>
    </g>
    <g>
      <path class="cls-1" d="M296.5,84.61l11.68-11.08c1.17-1.12,2.04-2.21,2.6-3.28s.84-2.29,.84-3.68c0-1.71-.53-3.07-1.6-4.1-1.07-1.03-2.4-1.54-4-1.54-1.87,0-3.34,.56-4.42,1.68s-1.69,2.53-1.82,4.24h-2.72c.08-1.65,.51-3.11,1.3-4.38,.79-1.27,1.85-2.25,3.18-2.96,1.33-.71,2.84-1.06,4.52-1.06,1.52,0,2.91,.33,4.18,.98s2.27,1.57,3,2.76c.73,1.19,1.1,2.55,1.1,4.1,0,1.73-.35,3.31-1.06,4.72-.71,1.41-1.81,2.83-3.3,4.24l-9.72,9.12h14.72v2.48h-18.48v-2.24Z"/>
      <path class="cls-1" d="M323.4,85.39c-1.64-1.24-2.89-2.95-3.76-5.14s-1.3-4.65-1.3-7.4,.43-5.21,1.3-7.4c.87-2.19,2.12-3.9,3.76-5.14,1.64-1.24,3.59-1.86,5.86-1.86s4.22,.62,5.86,1.86c1.64,1.24,2.89,2.95,3.76,5.14,.87,2.19,1.3,4.65,1.3,7.4s-.43,5.21-1.3,7.4c-.87,2.19-2.12,3.9-3.76,5.14-1.64,1.24-3.59,1.86-5.86,1.86s-4.22-.62-5.86-1.86Zm11.9-3.86c1.44-2.16,2.16-5.05,2.16-8.68s-.72-6.52-2.16-8.68-3.45-3.24-6.04-3.24-4.6,1.08-6.04,3.24c-1.44,2.16-2.16,5.05-2.16,8.68s.72,6.52,2.16,8.68c1.44,2.16,3.45,3.24,6.04,3.24s4.6-1.08,6.04-3.24Z"/>
      <path class="cls-1" d="M343.06,84.61l11.68-11.08c1.17-1.12,2.04-2.21,2.6-3.28s.84-2.29,.84-3.68c0-1.71-.53-3.07-1.6-4.1-1.07-1.03-2.4-1.54-4-1.54-1.87,0-3.34,.56-4.42,1.68s-1.69,2.53-1.82,4.24h-2.72c.08-1.65,.51-3.11,1.3-4.38,.79-1.27,1.85-2.25,3.18-2.96,1.33-.71,2.84-1.06,4.52-1.06,1.52,0,2.91,.33,4.18,.98s2.27,1.57,3,2.76c.73,1.19,1.1,2.55,1.1,4.1,0,1.73-.35,3.31-1.06,4.72-.71,1.41-1.81,2.83-3.3,4.24l-9.72,9.12h14.72v2.48h-18.48v-2.24Z"/>
      <path class="cls-1" d="M365.3,84.61l11.68-11.08c1.17-1.12,2.04-2.21,2.6-3.28s.84-2.29,.84-3.68c0-1.71-.53-3.07-1.6-4.1-1.07-1.03-2.4-1.54-4-1.54-1.87,0-3.34,.56-4.42,1.68s-1.69,2.53-1.82,4.24h-2.72c.08-1.65,.51-3.11,1.3-4.38,.79-1.27,1.85-2.25,3.18-2.96,1.33-.71,2.84-1.06,4.52-1.06,1.52,0,2.91,.33,4.18,.98s2.27,1.57,3,2.76c.73,1.19,1.1,2.55,1.1,4.1,0,1.73-.35,3.31-1.06,4.72-.71,1.41-1.81,2.83-3.3,4.24l-9.72,9.12h14.72v2.48h-18.48v-2.24Z"/>
      <path class="cls-1" d="M387.86,72.93h12.52v2.24h-12.52v-2.24Z"/>
      <path class="cls-1" d="M404.06,84.61l11.68-11.08c1.17-1.12,2.04-2.21,2.6-3.28s.84-2.29,.84-3.68c0-1.71-.53-3.07-1.6-4.1-1.07-1.03-2.4-1.54-4-1.54-1.87,0-3.34,.56-4.42,1.68s-1.69,2.53-1.82,4.24h-2.72c.08-1.65,.51-3.11,1.3-4.38,.79-1.27,1.85-2.25,3.18-2.96,1.33-.71,2.84-1.06,4.52-1.06,1.52,0,2.91,.33,4.18,.98s2.27,1.57,3,2.76c.73,1.19,1.1,2.55,1.1,4.1,0,1.73-.35,3.31-1.06,4.72-.71,1.41-1.81,2.83-3.3,4.24l-9.72,9.12h14.72v2.48h-18.48v-2.24Z"/>
      <path class="cls-1" d="M430.82,85.91c-1.49-.89-2.65-2.1-3.46-3.62-.81-1.52-1.27-3.19-1.38-5h2.72c.16,2.21,.85,4.01,2.08,5.4,1.23,1.39,2.99,2.08,5.28,2.08,1.31,0,2.51-.31,3.6-.92,1.09-.61,1.97-1.49,2.62-2.62,.65-1.13,.98-2.46,.98-3.98s-.36-2.83-1.08-3.92c-.72-1.09-1.69-1.93-2.9-2.5-1.21-.57-2.53-.86-3.94-.86h-.52v-2.48l6.56-6.16h-14v-2.48h17.16v2.6l-6.8,6.36c2.37,.43,4.34,1.44,5.9,3.04,1.56,1.6,2.34,3.71,2.34,6.32,0,1.87-.44,3.57-1.32,5.12s-2.07,2.76-3.58,3.64c-1.51,.88-3.17,1.32-4.98,1.32-2.03,0-3.79-.45-5.28-1.34Z"/>
    </g>
  </g>
</svg>