<?xml version="1.0" encoding="UTF-8"?>
<svg id="Capa_2" data-name="Capa 2" xmlns="http://www.w3.org/2000/svg" viewBox="0 0 383.91 383.91">
  <defs>
    <style>
      .cls-1 {
        fill: #fff;
      }

      .cls-2 {
        fill: #ff5100;
      }
    </style>
  </defs>
  <g id="Capa_1-2" data-name="Capa 1">
    <g>
      <path class="cls-2" d="M336.96,46.95h0c-62.6-62.6-164.09-62.6-226.68,0l-63.33,63.33c-62.6,62.6-62.6,164.09,0,226.68,62.59,62.6,164.08,62.6,226.68,0l63.34-63.33c62.59-62.6,62.59-164.09,0-226.68"/>
      <path class="cls-1" d="M252.84,241.98c-9.28,0-16.55-2.67-21.58-7.95-5.07-5.29-7.63-12.62-7.63-21.8v-59.15h17.89v55.21c0,5.83,1.61,10.39,4.77,13.54,3.16,3.16,7.66,4.76,13.35,4.76,4.91,0,9.55-1.46,13.8-4.34,4.18-2.83,7.86-6.62,10.93-11.29l.21-57.89h17.9v87.11h-17.9v-13.49l-2.21,2.43c-3.47,3.81-7.79,6.94-12.86,9.29-5.08,2.37-10.69,3.57-16.68,3.57"/>
      <polygon class="cls-1" points="200.62 235.87 200.62 156.23 200.62 153.07 170.46 153.07 156.86 153.07 141.69 153.07 141.69 154.61 152.76 157.25 126.4 225.96 126.05 225.96 98.11 157.25 109.88 154.61 109.88 153.07 70.76 153.07 70.76 154.61 80.95 157.25 116.8 242.13 125.34 242.13 158.78 156.23 184.08 156.23 184.08 235.87 171.42 238.68 171.42 240.37 213.28 240.37 213.28 238.68 200.62 235.87"/>
      <path class="cls-1" d="M192.18,133.31c5.25,0,9.63-4.38,9.63-9.63s-4.38-9.63-9.63-9.63-9.63,4.38-9.63,9.63,4.38,9.63,9.63,9.63"/>
    </g>
  </g>
</svg>