<?xml version="1.0" encoding="UTF-8"?>
<svg id="Capa_2" data-name="Capa 2" xmlns="http://www.w3.org/2000/svg" viewBox="0 0 73.71 60.48">
  <defs>
    <style>
      .cls-1 {
        fill: #ff5100;
      }

      .cls-2 {
        fill: none;
        stroke: #ff5100;
        stroke-linecap: round;
        stroke-linejoin: round;
        stroke-width: 2px;
      }
    </style>
  </defs>
  <g id="Capa_1-2" data-name="Capa 1">
    <g>
      <g>
        <path class="cls-1" d="M35.82,52.6c-.21-.19-.46-.36-.63-.58-4.76-6.25-9.23-12.69-13.04-19.57-1.47-2.66-2.76-5.41-3.81-8.28-1.52-4.13-1.24-8.18,.45-12.14C21.14,6.5,25.14,2.62,30.93,.85c6.07-1.86,11.65-.62,16.59,3.28,3.91,3.09,6.26,7.16,7.16,12.08,.53,2.93,.06,5.74-.96,8.5-1.61,4.33-3.84,8.34-6.25,12.26-3.16,5.17-6.63,10.12-10.31,14.93-.2,.26-.48,.47-.73,.7h-.62Zm.25-2.68c.2-.25,.32-.4,.43-.54,3.38-4.54,6.61-9.19,9.55-14.03,2.14-3.52,4.14-7.12,5.63-10.98,1.01-2.62,1.49-5.27,.93-8.08-.94-4.7-3.37-8.45-7.27-11.19-4.14-2.9-8.71-3.85-13.59-2.35-5.48,1.68-9.21,5.35-11.3,10.66-1.03,2.64-1.42,5.38-.74,8.2,.5,2.07,1.31,4.02,2.22,5.94,2.29,4.82,5.1,9.32,8.08,13.73,1.96,2.89,4,5.71,6.06,8.64Z"/>
        <path class="cls-1" d="M36.11,5.78c7.65,0,13.76,6.44,13.35,14.07-.4,7.34-6.74,13.02-14.07,12.61-7.36-.41-13.06-6.8-12.59-14.14,.13-1.97,.66-3.83,1.61-5.57,.33-.61,.92-.82,1.45-.53,.52,.28,.69,.86,.37,1.46-1.14,2.15-1.58,4.41-1.31,6.84,.51,4.69,4.37,8.85,9.04,9.69,6.4,1.15,12.23-2.93,13.33-9.33,1.02-5.89-3.17-11.82-9.06-12.86-2.13-.38-4.18-.19-6.2,.57-.27,.1-.61,.17-.89,.11-.46-.09-.73-.46-.74-.93-.02-.5,.25-.83,.72-1.02,1.61-.64,3.27-.98,5-.98Z"/>
        <path class="cls-1" d="M36.13,11.95c1.72,0,3.27,1.09,3.86,2.71,.59,1.62,.1,3.42-1.24,4.55-.22,.19-.44,.38-.69,.53-.59,.36-.98,.78-.93,1.55,.03,.54-.51,.94-1.04,.92-.53-.02-.96-.44-.98-1-.05-1.14,.27-2.12,1.28-2.8,.38-.26,.76-.53,1.1-.83,.7-.62,.89-1.6,.48-2.43-.4-.81-1.3-1.28-2.17-1.13-.93,.16-1.63,.9-1.72,1.85,0,.07,0,.14-.01,.2-.06,.62-.52,1.03-1.08,1-.57-.03-.96-.49-.96-1.12,0-2.16,1.88-4.01,4.11-4.01Z"/>
        <path class="cls-1" d="M28.94,9.91c-.01,.57-.51,1.03-1.07,1-.55-.03-.99-.5-.97-1.04,.01-.57,.51-1.03,1.07-1,.55,.03,.99,.5,.98,1.04Z"/>
        <path class="cls-1" d="M37.15,25.29c0,.57-.48,1.04-1.04,1.03-.55-.01-1-.47-1-1.02,0-.57,.48-1.04,1.04-1.03,.55,.01,1,.47,1,1.02Z"/>
      </g>
      <g>
        <line class="cls-2" x1="14.37" y1="40.3" x2="22.77" y2="40.3"/>
        <path class="cls-2" d="M48.21,40.3h8.1c2.41,0,4.73,.96,6.44,2.67l8.59,8.59c2.92,2.92,.85,7.92-3.28,7.92H5.65c-3.89,0-6.05-4.5-3.62-7.54l6.24-7.79"/>
        <path class="cls-1" d="M11.32,41.23c-.01,.5-.45,.91-.95,.89-.48-.02-.87-.44-.86-.93,.01-.5,.45-.91,.95-.88,.48,.02,.87,.44,.86,.92Z"/>
      </g>
    </g>
  </g>
</svg>