<svg xmlns="http://www.w3.org/2000/svg" viewBox="0 0 177.03 177.03"><defs><style>.cls-1{fill:#e65113;}.cls-2{fill:#fff;}</style></defs><g id="Capa_2" data-name="Capa 2"><g id="Capa_1-2" data-name="Capa 1"><rect class="cls-1" x="25.93" y="25.93" width="125.18" height="125.18" transform="translate(88.51 -36.66) rotate(45)"/><path class="cls-2" d="M92.18,94.4h-7.5L51.8,61.51V29.91h72.66V62.12Zm-6.36-2.75H91L121.71,61V32.66H54.54V60.37Z"/><rect class="cls-2" x="62.25" y="41.41" width="49.94" height="2.75"/><polygon class="cls-2" points="86.01 132.41 73.22 122.57 74.89 120.39 85.7 128.71 101.8 111.46 103.81 113.34 86.01 132.41"/><path class="cls-2" d="M88.13,151.3a27.25,27.25,0,1,1,27.25-27.25A27.28,27.28,0,0,1,88.13,151.3Zm0-51.75a24.51,24.51,0,1,0,24.5,24.5A24.54,24.54,0,0,0,88.13,99.55Z"/></g></g></svg>