<svg xmlns="http://www.w3.org/2000/svg" viewBox="0 0 177.03 177.03"><defs><style>.cls-1{fill:#e65113;}.cls-2{fill:#fff;}</style></defs><g id="Capa_2" data-name="Capa 2"><g id="Capa_1-2" data-name="Capa 1"><rect class="cls-1" x="25.93" y="25.93" width="125.18" height="125.18" transform="translate(88.51 -36.66) rotate(45)"/><path class="cls-2" d="M57.94,64.24a9.55,9.55,0,1,0,9.55,9.55A9.55,9.55,0,0,0,57.94,64.24Zm0,16.34a6.8,6.8,0,1,1,6.8-6.79A6.8,6.8,0,0,1,57.94,80.58Z"/><polygon class="cls-2" points="49.83 86.86 35.2 95.92 36.65 98.26 50.62 89.61 64.34 89.61 73.03 95.36 75.52 93.71 65.17 86.86 49.83 86.86"/><polygon class="cls-2" points="60.92 127.5 20.27 127.5 20.27 120.49 60.92 120.49 60.92 117.74 20.88 117.74 29.69 104.75 60.92 104.75 60.92 102 30.34 102 30.34 48.15 69.09 48.15 69.09 45.4 27.59 45.4 27.59 102.95 17.52 117.78 17.52 130.25 60.92 130.25 60.92 127.5"/><path class="cls-2" d="M119.58,63.63A15.87,15.87,0,1,1,88.1,66.49a15.69,15.69,0,0,1,.52-4l-2.33-1.85a18.63,18.63,0,1,0,35.65,1Z"/><path class="cls-2" d="M130.16,133.5H77.49c-5,0-13.48-6.79-13.48-11.94V104.42L91.63,87.34l.75.55a20.49,20.49,0,0,0,10.68,3.51,20.55,20.55,0,0,0,10.7-3.51l.71-.52,28.87,16.1v19C143.34,127.34,134.4,133.5,130.16,133.5ZM66.76,106v15.61c0,3.51,7.22,9.19,10.73,9.19h52.67c3.11,0,10.43-5.32,10.43-8.25V105.09l-26-14.48a22.79,22.79,0,0,1-11.57,3.54,22.69,22.69,0,0,1-11.52-3.52Z"/><path class="cls-2" d="M104,52.45,68.21,41.8l37.57-11.6,36.46,10.47ZM77.69,41.75,104,49.57l28.63-8.81-26.79-7.69Z"/><path class="cls-2" d="M114.18,61.92H94.57a9.24,9.24,0,0,1-9.22-9.23V45.88H88.1v6.81a6.48,6.48,0,0,0,6.47,6.48h19.61a7.34,7.34,0,0,0,7.34-7.34V45.19h2.75v6.64A10.11,10.11,0,0,1,114.18,61.92Z"/><rect class="cls-2" x="134.08" y="41.32" width="2.75" height="13.92"/><path class="cls-2" d="M142.92,73H128.17l.7-1.86c.32-.85,3.32-11.27,5.26-18.06l1.27-4.45ZM132,70.22h7.17l-3.69-12C134.4,62.1,132.87,67.4,132,70.22Z"/></g></g></svg>