<svg xmlns="http://www.w3.org/2000/svg" viewBox="0 0 177.03 177.03"><defs><style>.cls-1{fill:#e65113;}.cls-2{fill:#fff;}</style></defs><g id="Capa_2" data-name="Capa 2"><g id="Capa_1-2" data-name="Capa 1"><rect class="cls-1" x="25.93" y="25.93" width="125.18" height="125.18" transform="translate(88.51 -36.66) rotate(45)"/><path class="cls-2" d="M92.19,72.78V60.39H87.78a5.58,5.58,0,0,1-5.57-5.58V39.38a5.58,5.58,0,0,1,5.57-5.57h29.05a5.58,5.58,0,0,1,5.58,5.57V54.81a5.58,5.58,0,0,1-5.58,5.58H104.58ZM87.78,36.56A2.83,2.83,0,0,0,85,39.38V54.81a2.83,2.83,0,0,0,2.83,2.83h7.16v8.5l8.5-8.5h13.39a2.83,2.83,0,0,0,2.83-2.83V39.38a2.83,2.83,0,0,0-2.83-2.82Z"/><path class="cls-2" d="M134.44,102.56V45h-8.18v2.75h5.43V101.6H44.85V47.75h34.4V45H42.1v57.56L32,117.39v12.47H144.89V118.3Zm-2.11,1.79,8.62,13H35.39l8.81-13Zm-54,15.74H96.51v1a1.21,1.21,0,0,1-1.21,1.21H78.85a.47.47,0,0,1-.48-.48Zm-43.58,7v-7H75.62v1.77a3.23,3.23,0,0,0,3.23,3.23H95.3a4,4,0,0,0,4-4v-1h42.88v7Z"/><polygon class="cls-2" points="64.35 86.47 49.71 95.53 51.16 97.87 65.13 89.22 78.85 89.22 91.9 97.85 93.42 95.55 79.68 86.47 64.35 86.47"/><path class="cls-2" d="M72.46,63.85A9.55,9.55,0,1,0,82,73.39,9.55,9.55,0,0,0,72.46,63.85Zm0,16.34a6.8,6.8,0,1,1,6.79-6.8A6.81,6.81,0,0,1,72.46,80.19Z"/><rect class="cls-2" x="92.66" y="42.09" width="20.54" height="2.75"/><rect class="cls-2" x="95.61" y="49.24" width="13.73" height="2.75"/></g></g></svg>