<?xml version="1.0" encoding="UTF-8"?>
<svg width="57px" height="56px" viewBox="0 0 57 56" version="1.1" xmlns="http://www.w3.org/2000/svg" xmlns:xlink="http://www.w3.org/1999/xlink">
    <title>Group 12</title>
    <defs>
        <filter id="filter-1">
            <feColorMatrix in="SourceGraphic" type="matrix" values="0 0 0 0 1.000000 0 0 0 0 1.000000 0 0 0 0 1.000000 0 0 0 1.000000 0"></feColorMatrix>
        </filter>
        <polygon id="path-2" points="0 0.000243 26.35578 0.000243 26.35578 26.355699 0 26.355699"></polygon>
    </defs>
    <g id="Page-1" stroke="none" stroke-width="1" fill="none" fill-rule="evenodd">
        <g id="HOME" transform="translate(-1189.000000, -7196.000000)">
            <g id="FOOTER" transform="translate(0.000000, 6958.000000)">
                <g id="Group-4" transform="translate(1057.000000, 238.000000)">
                    <g id="Group-12" transform="translate(132.030000, 0.000000)">
                        <path d="M15.8328721,6.74168534 L6.74046756,15.8357326 C-2.24682252,24.8246464 -2.24682252,39.3856354 6.74046756,48.3482658 C15.7277576,57.3106334 30.2861164,57.3371796 39.2471279,48.3482658 L48.3395324,39.2542185 C57.3268225,30.2915881 57.3268225,15.7305991 48.3395324,6.74168534 C39.3522424,-2.24722845 24.7938836,-2.24722845 15.8328721,6.74168534 Z" id="Fill-38-Copy-2" fill="#E65014"></path>
                        <g filter="url(#filter-1)" id="Group-3">
                            <g transform="translate(14.580000, 13.770000)">
                                <mask id="mask-3" fill="white">
                                    <use xlink:href="#path-2"></use>
                                </mask>
                                <g id="Clip-2"></g>
                                <path d="M20.21274,4.562973 C19.33875,4.562973 18.63,5.270913 18.63,6.144093 C18.63,7.017273 19.33875,7.725213 20.21274,7.725213 C21.08592,7.725213 21.79305,7.017273 21.79305,6.144093 C21.79305,5.270913 21.08592,4.562973 20.21274,4.562973 M13.17789,17.570763 C10.75194,17.570763 8.78526,15.604893 8.78526,13.178133 C8.78526,10.752183 10.75194,8.784693 13.17789,8.784693 C15.60384,8.784693 17.57052,10.752183 17.57052,13.178133 C17.57052,15.604893 15.60384,17.570763 13.17789,17.570763 M13.17789,6.411393 C9.44055,6.411393 6.41115,9.440793 6.41115,13.178133 C6.41115,16.914663 9.44055,19.945683 13.17789,19.945683 C16.91523,19.945683 19.94463,16.915473 19.94463,13.178133 C19.94463,9.440793 16.91523,6.411393 13.17789,6.411393 M13.17789,0.000243 C9.5985,0.000243 9.15138,0.015633 7.74522,0.078813 C2.95974,0.298323 0.2997,2.954313 0.08019,7.743843 C0.01539,9.150813 0,9.598743 0,13.178133 C0,16.756713 0.01539,17.205453 0.07938,18.611613 C0.29889,23.397093 2.95407,26.057133 7.7436,26.276643 C9.15138,26.340633 9.5985,26.356023 13.17789,26.356023 C16.75647,26.356023 17.20602,26.340633 18.61137,26.276643 C23.3928,26.057133 26.05932,23.401953 26.27559,18.611613 C26.33958,17.205453 26.35578,16.756713 26.35578,13.178133 C26.35578,9.598743 26.33958,9.150813 26.2764,7.745463 C26.06175,2.964033 23.40252,0.299943 18.61218,0.080433 C17.20602,0.015633 16.75647,0.000243 13.17789,0.000243 M13.17789,2.375163 C16.69653,2.375163 17.11368,2.388123 18.50445,2.452113 C22.07493,2.614923 23.74272,4.309443 23.90634,7.854003 C23.96952,9.243153 23.98086,9.660303 23.98086,13.178943 C23.98086,16.698393 23.96871,17.114733 23.90634,18.503883 C23.74191,22.045203 22.07898,23.742963 18.50445,23.905773 C17.11368,23.968953 16.69815,23.982723 13.17789,23.982723 C9.65925,23.982723 9.2421,23.968953 7.85295,23.905773 C4.27275,23.742153 2.61306,22.040343 2.45106,18.502263 C2.38707,17.113923 2.37492,16.697583 2.37492,13.178133 C2.37492,9.659493 2.38869,9.243153 2.45106,7.853193 C2.61468,4.309443 4.27842,2.613303 7.85295,2.451303 C9.24291,2.388123 9.65925,2.375163 13.17789,2.375163" id="Fill-1" fill="#000000" mask="url(#mask-3)"></path>
                            </g>
                        </g>
                    </g>
                </g>
            </g>
        </g>
    </g>
</svg>